<svg width="60" height="24" viewBox="0 0 60 24" fill="none" xmlns="http://www.w3.org/2000/svg">
    <path d="M0 4V8.09025L10.7655 14.0708L0 20.3635H8.87019C11.7044 20.3635 14 18.3499 14 15.8655V12.183L0 4Z" fill="url(#paint0_linear_7339_4194)"/>
    <path d="M0 4V8.09025L10.7655 14.0708L0 20.3635H8.87019C11.7044 20.3635 14 18.3499 14 15.8655V12.183L0 4Z" fill="url(#paint1_linear_7339_4194)"/>
    <path d="M0 4L14 12.183V8.49804C14 6.01366 11.7019 4 8.87019 4H0Z" fill="url(#paint2_linear_7339_4194)"/>
    <path d="M7.36497 12.1777L0 16.268V20.3583L10.7655 14.0656L7.36497 12.1777Z" fill="url(#paint3_linear_7339_4194)"/>
    <path d="M23.382 7.228C24.4087 7.228 25.3093 7.42867 26.084 7.83C26.868 8.23133 27.47 8.80533 27.89 9.552C28.3193 10.2893 28.534 11.148 28.534 12.128C28.534 13.108 28.3193 13.9667 27.89 14.704C27.47 15.432 26.868 15.9967 26.084 16.398C25.3093 16.7993 24.4087 17 23.382 17H19.966V7.228H23.382ZM23.312 15.334C24.3387 15.334 25.132 15.054 25.692 14.494C26.252 13.934 26.532 13.1453 26.532 12.128C26.532 11.1107 26.252 10.3173 25.692 9.748C25.132 9.16933 24.3387 8.88 23.312 8.88H21.926V15.334H23.312ZM37.2112 12.954C37.2112 13.234 37.1925 13.486 37.1552 13.71H31.4852C31.5318 14.27 31.7278 14.7087 32.0732 15.026C32.4185 15.3433 32.8432 15.502 33.3472 15.502C34.0752 15.502 34.5932 15.1893 34.9012 14.564H37.0152C36.7912 15.3107 36.3618 15.9267 35.7272 16.412C35.0925 16.888 34.3132 17.126 33.3892 17.126C32.6425 17.126 31.9705 16.9627 31.3732 16.636C30.7852 16.3 30.3232 15.8287 29.9872 15.222C29.6605 14.6153 29.4972 13.9153 29.4972 13.122C29.4972 12.3193 29.6605 11.6147 29.9872 11.008C30.3138 10.4013 30.7712 9.93467 31.3592 9.608C31.9472 9.28133 32.6238 9.118 33.3892 9.118C34.1265 9.118 34.7845 9.27667 35.3632 9.594C35.9512 9.91133 36.4038 10.364 36.7212 10.952C37.0478 11.5307 37.2112 12.198 37.2112 12.954ZM35.1812 12.394C35.1718 11.89 34.9898 11.4887 34.6352 11.19C34.2805 10.882 33.8465 10.728 33.3332 10.728C32.8478 10.728 32.4372 10.8773 32.1012 11.176C31.7745 11.4653 31.5738 11.8713 31.4992 12.394H35.1812ZM41.6098 17.126C40.9751 17.126 40.4058 17.014 39.9018 16.79C39.3978 16.5567 38.9964 16.244 38.6978 15.852C38.4084 15.46 38.2498 15.026 38.2218 14.55H40.1958C40.2331 14.8487 40.3778 15.096 40.6298 15.292C40.8911 15.488 41.2131 15.586 41.5958 15.586C41.9691 15.586 42.2584 15.5113 42.4638 15.362C42.6784 15.2127 42.7858 15.0213 42.7858 14.788C42.7858 14.536 42.6551 14.3493 42.3938 14.228C42.1418 14.0973 41.7358 13.9573 41.1758 13.808C40.5971 13.668 40.1211 13.5233 39.7478 13.374C39.3838 13.2247 39.0664 12.996 38.7958 12.688C38.5344 12.38 38.4038 11.9647 38.4038 11.442C38.4038 11.0127 38.5251 10.6207 38.7678 10.266C39.0198 9.91133 39.3744 9.63133 39.8318 9.426C40.2984 9.22067 40.8444 9.118 41.4698 9.118C42.3938 9.118 43.1311 9.35133 43.6818 9.818C44.2324 10.2753 44.5358 10.896 44.5918 11.68H42.7158C42.6878 11.372 42.5571 11.1293 42.3238 10.952C42.0998 10.7653 41.7964 10.672 41.4138 10.672C41.0591 10.672 40.7838 10.7373 40.5878 10.868C40.4011 10.9987 40.3078 11.1807 40.3078 11.414C40.3078 11.6753 40.4384 11.876 40.6998 12.016C40.9611 12.1467 41.3671 12.282 41.9178 12.422C42.4778 12.562 42.9398 12.7067 43.3038 12.856C43.6678 13.0053 43.9804 13.2387 44.2418 13.556C44.5124 13.864 44.6524 14.2747 44.6618 14.788C44.6618 15.236 44.5358 15.6373 44.2838 15.992C44.0411 16.3467 43.6864 16.6267 43.2198 16.832C42.7624 17.028 42.2258 17.126 41.6098 17.126ZM49.7147 17.126C48.968 17.126 48.296 16.9627 47.6987 16.636C47.1014 16.3 46.63 15.8287 46.2847 15.222C45.9487 14.6153 45.7807 13.9153 45.7807 13.122C45.7807 12.3287 45.9534 11.6287 46.2987 11.022C46.6534 10.4153 47.134 9.94867 47.7407 9.622C48.3474 9.286 49.024 9.118 49.7707 9.118C50.5174 9.118 51.194 9.286 51.8007 9.622C52.4074 9.94867 52.8834 10.4153 53.2287 11.022C53.5834 11.6287 53.7607 12.3287 53.7607 13.122C53.7607 13.9153 53.5787 14.6153 53.2147 15.222C52.86 15.8287 52.3747 16.3 51.7587 16.636C51.152 16.9627 50.4707 17.126 49.7147 17.126ZM49.7147 15.418C50.0694 15.418 50.4007 15.334 50.7087 15.166C51.026 14.9887 51.278 14.7273 51.4647 14.382C51.6514 14.0367 51.7447 13.6167 51.7447 13.122C51.7447 12.3847 51.5487 11.82 51.1567 11.428C50.774 11.0267 50.3027 10.826 49.7427 10.826C49.1827 10.826 48.7114 11.0267 48.3287 11.428C47.9554 11.82 47.7687 12.3847 47.7687 13.122C47.7687 13.8593 47.9507 14.4287 48.3147 14.83C48.688 15.222 49.1547 15.418 49.7147 15.418Z" fill="#898989"/>
    <defs>
    <linearGradient id="paint0_linear_7339_4194" x1="3.44156" y1="7.68001" x2="8.31109" y2="19.4403" gradientUnits="userSpaceOnUse">
    <stop stop-color="#0057FF"/>
    <stop offset="1" stop-color="#00A3FF"/>
    </linearGradient>
    <linearGradient id="paint1_linear_7339_4194" x1="3.44156" y1="7.68001" x2="8.31109" y2="19.4403" gradientUnits="userSpaceOnUse">
    <stop stop-color="#0057FF"/>
    <stop offset="1" stop-color="#00A3FF"/>
    </linearGradient>
    <linearGradient id="paint2_linear_7339_4194" x1="5.72591" y1="7.76317" x2="14.7846" y2="5.3703" gradientUnits="userSpaceOnUse">
    <stop stop-color="#0283FF"/>
    <stop offset="1" stop-color="#01C2FF"/>
    </linearGradient>
    <linearGradient id="paint3_linear_7339_4194" x1="2.61257" y1="18.8427" x2="15.2995" y2="2.00813" gradientUnits="userSpaceOnUse">
    <stop stop-color="#0157FF"/>
    <stop offset="1" stop-color="#00FFFF"/>
    </linearGradient>
    </defs>
    </svg>
    