<svg width="16" height="16" viewBox="0 0 16 16" fill="none" xmlns="http://www.w3.org/2000/svg">
<path d="M13.3337 14.6673C13.7018 14.6673 14.0003 14.3688 14.0003 14.0007C14.0003 13.6325 13.7018 13.334 13.3337 13.334C12.9655 13.334 12.667 13.6325 12.667 14.0007C12.667 14.3688 12.9655 14.6673 13.3337 14.6673Z" stroke="#656565" stroke-width="1.33333" stroke-linecap="round" stroke-linejoin="round"/>
<path d="M5.99967 14.6673C6.36786 14.6673 6.66634 14.3688 6.66634 14.0007C6.66634 13.6325 6.36786 13.334 5.99967 13.334C5.63148 13.334 5.33301 13.6325 5.33301 14.0007C5.33301 14.3688 5.63148 14.6673 5.99967 14.6673Z" stroke="#656565" stroke-width="1.33333" stroke-linecap="round" stroke-linejoin="round"/>
<path d="M0.666992 0.666016H3.33366L5.12033 9.59268C5.18129 9.89961 5.34826 10.1753 5.59202 10.3715C5.83578 10.5678 6.14079 10.672 6.45366 10.666H12.9337C13.2465 10.672 13.5515 10.5678 13.7953 10.3715C14.0391 10.1753 14.206 9.89961 14.267 9.59268L15.3337 3.99935H4.00033" stroke="#656565" stroke-width="1.33333" stroke-linecap="round" stroke-linejoin="round"/>
</svg>
