<svg width="13" height="13" viewBox="0 0 13 13" fill="none" xmlns="http://www.w3.org/2000/svg">
<path d="M3.68751 2.75001C3.50209 2.75001 3.32083 2.80499 3.16666 2.90801C3.01249 3.01102 2.89233 3.15744 2.82137 3.32874C2.75042 3.50005 2.73185 3.68855 2.76802 3.87041C2.8042 4.05226 2.89349 4.21931 3.0246 4.35042C3.15571 4.48153 3.32276 4.57082 3.50461 4.607C3.68647 4.64317 3.87497 4.6246 4.04628 4.55365C4.21758 4.48269 4.364 4.36253 4.46701 4.20836C4.57003 4.05419 4.62501 3.87293 4.62501 3.68751C4.62501 3.43887 4.52624 3.20041 4.35042 3.0246C4.17461 2.84878 3.93615 2.75001 3.68751 2.75001V2.75001ZM12.2 5.69376L6.94376 0.43126C6.88536 0.373335 6.8161 0.327506 6.73995 0.296403C6.6638 0.265301 6.58226 0.249535 6.50001 0.25001H0.87501C0.70925 0.25001 0.550279 0.315858 0.433069 0.433069C0.315858 0.550279 0.25001 0.70925 0.25001 0.87501V6.50001C0.249535 6.58226 0.265301 6.6638 0.296403 6.73995C0.327506 6.8161 0.373335 6.88536 0.43126 6.94376L5.69376 12.2C6.04532 12.5511 6.52188 12.7484 7.01876 12.7484C7.51564 12.7484 7.9922 12.5511 8.34376 12.2L12.2 8.37501C12.5511 8.02345 12.7484 7.54689 12.7484 7.05001C12.7484 6.55313 12.5511 6.07657 12.2 5.72501V5.69376ZM11.3188 7.45626L7.45626 11.3125C7.33916 11.4289 7.18075 11.4943 7.01564 11.4943C6.85052 11.4943 6.69211 11.4289 6.57501 11.3125L1.50001 6.24376V1.50001H6.24376L11.3188 6.57501C11.3767 6.63341 11.4225 6.70267 11.4536 6.77882C11.4847 6.85497 11.5005 6.93651 11.5 7.01876C11.4993 7.18272 11.4342 7.33985 11.3188 7.45626V7.45626Z" fill="#5C5C5C"/>
</svg>
