<svg width="13" height="13" viewBox="0 0 13 13" fill="none" xmlns="http://www.w3.org/2000/svg">
<path d="M5.25 7.125H1.5C1.33424 7.125 1.17527 7.19085 1.05806 7.30806C0.940848 7.42527 0.875 7.58424 0.875 7.75V11.5C0.875 11.6658 0.940848 11.8247 1.05806 11.9419C1.17527 12.0592 1.33424 12.125 1.5 12.125H5.25C5.41576 12.125 5.57473 12.0592 5.69194 11.9419C5.80915 11.8247 5.875 11.6658 5.875 11.5V7.75C5.875 7.58424 5.80915 7.42527 5.69194 7.30806C5.57473 7.19085 5.41576 7.125 5.25 7.125ZM4.625 10.875H2.125V8.375H4.625V10.875ZM11.5 0.875H7.75C7.58424 0.875 7.42527 0.940848 7.30806 1.05806C7.19085 1.17527 7.125 1.33424 7.125 1.5V5.25C7.125 5.41576 7.19085 5.57473 7.30806 5.69194C7.42527 5.80915 7.58424 5.875 7.75 5.875H11.5C11.6658 5.875 11.8247 5.80915 11.9419 5.69194C12.0592 5.57473 12.125 5.41576 12.125 5.25V1.5C12.125 1.33424 12.0592 1.17527 11.9419 1.05806C11.8247 0.940848 11.6658 0.875 11.5 0.875V0.875ZM10.875 4.625H8.375V2.125H10.875V4.625ZM11.5 9H10.25V7.75C10.25 7.58424 10.1842 7.42527 10.0669 7.30806C9.94973 7.19085 9.79076 7.125 9.625 7.125C9.45924 7.125 9.30027 7.19085 9.18306 7.30806C9.06585 7.42527 9 7.58424 9 7.75V9H7.75C7.58424 9 7.42527 9.06585 7.30806 9.18306C7.19085 9.30027 7.125 9.45924 7.125 9.625C7.125 9.79076 7.19085 9.94973 7.30806 10.0669C7.42527 10.1842 7.58424 10.25 7.75 10.25H9V11.5C9 11.6658 9.06585 11.8247 9.18306 11.9419C9.30027 12.0592 9.45924 12.125 9.625 12.125C9.79076 12.125 9.94973 12.0592 10.0669 11.9419C10.1842 11.8247 10.25 11.6658 10.25 11.5V10.25H11.5C11.6658 10.25 11.8247 10.1842 11.9419 10.0669C12.0592 9.94973 12.125 9.79076 12.125 9.625C12.125 9.45924 12.0592 9.30027 11.9419 9.18306C11.8247 9.06585 11.6658 9 11.5 9ZM5.25 0.875H1.5C1.33424 0.875 1.17527 0.940848 1.05806 1.05806C0.940848 1.17527 0.875 1.33424 0.875 1.5V5.25C0.875 5.41576 0.940848 5.57473 1.05806 5.69194C1.17527 5.80915 1.33424 5.875 1.5 5.875H5.25C5.41576 5.875 5.57473 5.80915 5.69194 5.69194C5.80915 5.57473 5.875 5.41576 5.875 5.25V1.5C5.875 1.33424 5.80915 1.17527 5.69194 1.05806C5.57473 0.940848 5.41576 0.875 5.25 0.875V0.875ZM4.625 4.625H2.125V2.125H4.625V4.625Z" fill="#5C5C5C"/>
</svg>
