<svg width="14" height="9" viewBox="0 0 14 9" fill="none" xmlns="http://www.w3.org/2000/svg">
<path d="M3.125 3.75C3.00139 3.75 2.88055 3.78666 2.77777 3.85533C2.67499 3.92401 2.59488 4.02162 2.54758 4.13582C2.50027 4.25003 2.48789 4.37569 2.51201 4.49693C2.53612 4.61817 2.59565 4.72953 2.68306 4.81694C2.77047 4.90435 2.88183 4.96388 3.00307 4.98799C3.12431 5.01211 3.24997 4.99973 3.36418 4.95243C3.47838 4.90512 3.57599 4.82501 3.64467 4.72223C3.71334 4.61945 3.75 4.49861 3.75 4.375C3.75 4.20924 3.68415 4.05027 3.56694 3.93306C3.44973 3.81585 3.29076 3.75 3.125 3.75ZM10.625 3.75C10.5014 3.75 10.3805 3.78666 10.2778 3.85533C10.175 3.92401 10.0949 4.02162 10.0476 4.13582C10.0003 4.25003 9.98789 4.37569 10.012 4.49693C10.0361 4.61817 10.0956 4.72953 10.1831 4.81694C10.2705 4.90435 10.3818 4.96388 10.5031 4.98799C10.6243 5.01211 10.75 4.99973 10.8642 4.95243C10.9784 4.90512 11.076 4.82501 11.1447 4.72223C11.2133 4.61945 11.25 4.49861 11.25 4.375C11.25 4.20924 11.1842 4.05027 11.0669 3.93306C10.9497 3.81585 10.7908 3.75 10.625 3.75ZM11.875 0H1.875C1.37772 0 0.900805 0.197544 0.549175 0.549175C0.197544 0.900806 0 1.37772 0 1.875V6.875C0 7.37228 0.197544 7.84919 0.549175 8.20083C0.900805 8.55246 1.37772 8.75 1.875 8.75H11.875C12.3723 8.75 12.8492 8.55246 13.2008 8.20083C13.5525 7.84919 13.75 7.37228 13.75 6.875V1.875C13.75 1.37772 13.5525 0.900806 13.2008 0.549175C12.8492 0.197544 12.3723 0 11.875 0ZM12.5 6.875C12.5 7.04076 12.4342 7.19973 12.3169 7.31694C12.1997 7.43415 12.0408 7.5 11.875 7.5H1.875C1.70924 7.5 1.55027 7.43415 1.43306 7.31694C1.31585 7.19973 1.25 7.04076 1.25 6.875V1.875C1.25 1.70924 1.31585 1.55027 1.43306 1.43306C1.55027 1.31585 1.70924 1.25 1.875 1.25H11.875C12.0408 1.25 12.1997 1.31585 12.3169 1.43306C12.4342 1.55027 12.5 1.70924 12.5 1.875V6.875ZM6.875 2.5C6.50416 2.5 6.14165 2.60997 5.83331 2.81599C5.52496 3.02202 5.28464 3.31486 5.14273 3.65747C5.00081 4.00008 4.96368 4.37708 5.03603 4.74079C5.10837 5.10451 5.28695 5.4386 5.54917 5.70083C5.8114 5.96305 6.14549 6.14163 6.50921 6.21397C6.87292 6.28632 7.24992 6.24919 7.59253 6.10727C7.93514 5.96536 8.22798 5.72504 8.43401 5.41669C8.64003 5.10835 8.75 4.74584 8.75 4.375C8.75 3.87772 8.55246 3.40081 8.20083 3.04917C7.84919 2.69754 7.37228 2.5 6.875 2.5ZM6.875 5C6.75139 5 6.63055 4.96334 6.52777 4.89467C6.42499 4.82599 6.34488 4.72838 6.29757 4.61418C6.25027 4.49997 6.23789 4.37431 6.26201 4.25307C6.28612 4.13183 6.34565 4.02047 6.43306 3.93306C6.52047 3.84565 6.63183 3.78612 6.75307 3.76201C6.87431 3.73789 6.99997 3.75027 7.11418 3.79758C7.22838 3.84488 7.32599 3.92499 7.39467 4.02777C7.46334 4.13055 7.5 4.25139 7.5 4.375C7.5 4.54076 7.43415 4.69973 7.31694 4.81694C7.19973 4.93415 7.04076 5 6.875 5Z" fill="#656565"/>
</svg>
