<svg width="156" height="25" viewBox="0 0 156 25" fill="none" xmlns="http://www.w3.org/2000/svg">
<g clip-path="url(#clip0_9032_2976)">
<path d="M40.8243 15.7747C40.7897 15.654 40.7615 15.5315 40.7399 15.4076L40.7398 15.4069C40.6667 14.9835 40.6334 14.5541 40.6403 14.1245V10.2795V10.2685L40.6404 10.2685C40.6491 9.8733 40.5665 9.4814 40.3993 9.12324C40.2484 8.80984 40.0247 8.53706 39.747 8.32767C39.4334 8.09489 39.0791 7.92283 38.7022 7.82039L38.7005 7.81992C38.2527 7.69648 37.79 7.6356 37.3256 7.63901L37.3161 7.63908L37.3161 7.63899C36.825 7.63328 36.3361 7.70493 35.8673 7.85133L35.8651 7.85202L35.8651 7.85202C35.4945 7.96582 35.1479 8.14622 34.8421 8.38438C34.5913 8.58152 34.3871 8.83168 34.2442 9.11694C34.1869 9.2333 34.1417 9.35472 34.1089 9.47933H35.411C35.4238 9.43714 35.4385 9.39543 35.455 9.35434C35.5373 9.14871 35.6627 8.96309 35.8227 8.80994L35.8257 8.80706L35.8257 8.80707C36.1762 8.47726 36.6734 8.36933 37.1947 8.36924M40.8243 15.7747L39.5027 15.7645C39.4691 15.6379 39.4394 15.4999 39.4123 15.3491L39.235 14.363L38.5536 15.0975C38.4426 15.2171 38.3202 15.3255 38.1879 15.421L38.1879 15.421L38.1832 15.4245C38.0433 15.5281 37.893 15.617 37.7347 15.6897C37.5511 15.7693 37.3598 15.8296 37.1637 15.8698L37.1614 15.8703C36.9374 15.9173 36.709 15.9404 36.4801 15.9392L36.4801 15.9391L36.4722 15.9392C36.0979 15.9433 35.7255 15.8848 35.3705 15.7661L35.3701 15.7659C35.0681 15.6653 34.7882 15.5081 34.5452 15.3026C34.3267 15.1159 34.1507 14.8846 34.029 14.6243C33.9042 14.356 33.8411 14.0631 33.8444 13.7671L33.8444 13.7671V13.7616C33.8444 12.962 34.1321 12.3885 34.6958 11.9754C35.2764 11.5499 36.2023 11.2977 37.5519 11.2965H38.8352H39.3352V10.7965V10.2797C39.3459 10.0197 39.3002 9.76038 39.2011 9.51962C39.1003 9.27482 38.9468 9.05524 38.7515 8.87649L38.7515 8.87646L38.747 8.87239C38.3419 8.51058 37.7986 8.36795 37.1947 8.36924M40.8243 15.7747H39.5055C39.5046 15.7713 39.5037 15.768 39.5028 15.7647L40.8243 15.7747ZM37.1947 8.36924C37.1949 8.36924 37.1951 8.36924 37.1953 8.36924V8.86924L37.1942 8.36924C37.1944 8.36924 37.1946 8.36924 37.1947 8.36924ZM38.8406 11.6742H37.6699C37.3182 11.6681 36.9672 11.7076 36.6257 11.7917C36.3387 11.8624 36.0683 11.9885 35.8298 12.163L35.8298 12.163L35.8272 12.1649C35.6021 12.3319 35.4233 12.5535 35.3079 12.8089L35.3078 12.8089L35.3062 12.8127C35.1994 13.054 35.1448 13.3151 35.1459 13.579C35.142 13.7916 35.183 14.0027 35.2662 14.1985C35.3502 14.3963 35.4753 14.5738 35.6332 14.7195C35.9807 15.0431 36.456 15.1593 36.9645 15.1583C37.2259 15.1602 37.4864 15.1272 37.7391 15.0603L37.7391 15.0603L37.7414 15.0597C37.967 14.9989 38.1847 14.9119 38.3901 14.8005C38.5817 14.6986 38.7579 14.5702 38.9136 14.4191C39.0541 14.2861 39.1749 14.1337 39.2724 13.9666L39.3406 13.8498V13.7146V12.1742V11.6742H38.8406Z" fill="#222326" stroke="black"/>
<path d="M51.4509 7.13877C51.7741 7.13698 52.0969 7.16056 52.4164 7.20928C52.6605 7.24503 52.902 7.29636 53.1396 7.36295L52.7924 9.66991C52.4854 9.59858 52.1745 9.54486 51.8614 9.509C51.5613 9.47396 51.2595 9.45585 50.9574 9.45477C50.4125 9.4251 49.8705 9.55181 49.3953 9.81997C48.9995 10.0767 48.6941 10.451 48.522 10.8903V16.2744H46.2241V7.31956H48.3702L48.4768 8.78582C48.821 8.29645 49.2677 7.88801 49.7858 7.58895C50.2913 7.2943 50.8659 7.13896 51.4509 7.13877Z" fill="#222326"/>
<path d="M62.2012 13.4654L62.9786 7.31836H65.0922L63.4849 16.2822H61.4636L60.2866 10.5727L59.1584 16.2732H57.1299L55.5244 7.31836H57.6271L58.4063 13.498L59.5327 7.31836H61.0731L62.2012 13.4654Z" fill="#222326"/>
<path d="M72.2717 16.4409C71.6289 16.4494 70.9905 16.334 70.3914 16.101C69.8542 15.8892 69.363 15.5755 68.945 15.1771C68.5443 14.7874 68.2285 14.3189 68.0176 13.8012C67.798 13.2636 67.6868 12.6879 67.6903 12.1072V11.7763C67.6827 11.1362 67.7924 10.5002 68.0139 9.89965C68.2147 9.35668 68.522 8.85937 68.9179 8.43701C69.3062 8.02824 69.7746 7.70389 70.2938 7.48421C71.4022 7.03828 72.6389 7.03117 73.7524 7.46432C74.2416 7.66743 74.68 7.97611 75.0361 8.36831C75.3968 8.77276 75.669 9.24818 75.8352 9.76405C76.0246 10.3477 76.1174 10.9584 76.11 11.572V12.5483H70.0172C70.0578 12.8397 70.149 13.1217 70.2865 13.3818C70.552 13.8805 70.9934 14.2626 71.525 14.4539C71.8097 14.5561 72.1103 14.6069 72.4127 14.604C72.6392 14.6042 72.8651 14.5818 73.0871 14.5371C73.3073 14.4948 73.5224 14.4293 73.7289 14.3418C73.9314 14.2531 74.1231 14.1415 74.3002 14.0091C74.4764 13.8835 74.633 13.7324 74.7649 13.5608L75.9165 14.8047C75.7555 15.0273 75.5672 15.2289 75.3561 15.4049C75.1094 15.6137 74.8365 15.7893 74.5443 15.9274C74.2115 16.0843 73.8631 16.2055 73.5047 16.289C73.1014 16.3894 72.6873 16.4404 72.2717 16.4409ZM71.9951 9.01013C71.7509 9.00726 71.5087 9.05337 71.2827 9.14573C71.0682 9.23638 70.8749 9.37059 70.715 9.53986C70.5457 9.72005 70.4076 9.92719 70.3064 10.1528C70.1908 10.4067 70.107 10.6738 70.0569 10.9483H73.8356V10.7675C73.8255 10.5324 73.7779 10.3005 73.6945 10.0804C73.614 9.87066 73.4909 9.67983 73.333 9.51998C73.1714 9.358 72.9782 9.23119 72.7653 9.14754C72.5196 9.05303 72.2582 9.00639 71.9951 9.01013Z" fill="#222326"/>
<path d="M84.9746 16.2747C84.9155 16.1525 84.8689 16.0247 84.8353 15.8932C84.7943 15.7431 84.7611 15.5911 84.7359 15.4376C84.5999 15.5812 84.4504 15.7114 84.2893 15.8263C84.1201 15.9515 83.9384 16.0587 83.747 16.1463C83.5322 16.2409 83.3079 16.3124 83.078 16.3596C82.8194 16.414 82.5558 16.4407 82.2916 16.4392C81.8616 16.4438 81.4338 16.3766 81.026 16.2403C80.6638 16.1194 80.3282 15.9304 80.037 15.6835C79.7582 15.4475 79.5348 15.1529 79.383 14.8207C79.2311 14.4885 79.1544 14.1268 79.1583 13.7616C79.1583 12.8178 79.5103 12.088 80.2142 11.5721C80.9181 11.0563 81.9691 10.7977 83.3673 10.7965H84.6509V10.2686C84.66 10.0774 84.6268 9.8866 84.5536 9.70973C84.4805 9.53285 84.3693 9.37428 84.2279 9.2453C83.9458 8.99339 83.5402 8.86804 83.0111 8.86924C82.541 8.86924 82.1993 8.96868 81.9824 9.17117C81.8742 9.27515 81.7896 9.40106 81.7341 9.54044C81.6786 9.67983 81.6535 9.82947 81.6606 9.97933H79.359C79.3586 9.60306 79.4452 9.23178 79.6121 8.89456C79.7882 8.54291 80.0394 8.23429 80.348 7.99057C80.7026 7.71472 81.1045 7.5058 81.534 7.37406C82.0523 7.212 82.5929 7.13268 83.1359 7.13902C83.647 7.13529 84.1563 7.20222 84.6491 7.3379C85.0866 7.45722 85.4981 7.65711 85.8623 7.9273C86.2042 8.186 86.4794 8.52256 86.665 8.90902C86.8662 9.33733 86.9659 9.80633 86.9561 10.2795V14.1286C86.949 14.5283 86.9792 14.9278 87.0465 15.3219C87.0961 15.6037 87.1856 15.877 87.3123 16.1336V16.2747H84.9746ZM82.7797 14.6583C82.9981 14.6602 83.2158 14.6328 83.427 14.577C83.6155 14.5258 83.7975 14.453 83.9693 14.36C84.1207 14.2791 84.26 14.1774 84.3834 14.0581C84.4898 13.9568 84.5817 13.8412 84.6564 13.7146V12.1742H83.4758C83.1664 12.1684 82.8577 12.2031 82.5573 12.2773C82.3346 12.3313 82.1245 12.4283 81.939 12.5629C81.7828 12.6797 81.6584 12.8339 81.5774 13.0113C81.4989 13.1901 81.4595 13.3837 81.4617 13.579C81.458 13.7233 81.4852 13.8667 81.5417 13.9996C81.5981 14.1325 81.6825 14.2517 81.7889 14.3492C82.0077 14.5517 82.3386 14.6583 82.7797 14.6583Z" fill="#222326"/>
<path d="M94.6397 13.6131L94.7554 14.2585L94.8711 13.6384L96.8436 7.31055H99.2446L95.8402 16.2726H93.6706L90.2554 7.31778H92.66L94.6397 13.6131Z" fill="#222326"/>
<path d="M106.632 16.4409C105.989 16.4494 105.351 16.334 104.751 16.101C104.214 15.8892 103.723 15.5755 103.305 15.1771C102.901 14.7882 102.582 14.3197 102.369 13.8012C102.149 13.2636 102.038 12.6879 102.041 12.1072V11.7763C102.035 11.136 102.146 10.5 102.369 9.89965C102.569 9.35679 102.877 8.85952 103.273 8.43701C103.66 8.02789 104.128 7.70347 104.647 7.48421C105.755 7.03828 106.992 7.03117 108.105 7.46432C108.595 7.66695 109.033 7.9757 109.389 8.36831C109.75 8.77266 110.023 9.24807 110.19 9.76405C110.378 10.348 110.47 10.9586 110.463 11.572V12.5483H104.379C104.419 12.8396 104.509 13.1217 104.647 13.3818C104.912 13.8805 105.353 14.2626 105.885 14.4539C106.17 14.5559 106.47 14.6067 106.773 14.604C106.999 14.6042 107.225 14.5818 107.447 14.5371C107.667 14.4948 107.882 14.4293 108.089 14.3418C108.292 14.2536 108.483 14.1419 108.66 14.0091C108.836 13.8835 108.993 13.7324 109.125 13.5608L110.277 14.8047C110.116 15.0269 109.928 15.2285 109.718 15.4049C109.471 15.6129 109.198 15.7885 108.906 15.9274C108.573 16.0838 108.225 16.205 107.867 16.289C107.463 16.3893 107.048 16.4403 106.632 16.4409ZM106.359 9.01013C106.115 9.00706 105.872 9.05318 105.646 9.14573C105.432 9.2357 105.239 9.37003 105.08 9.53986C104.911 9.71998 104.772 9.92711 104.67 10.1528C104.554 10.4064 104.471 10.6737 104.422 10.9483H108.199V10.7675C108.19 10.5323 108.142 10.3002 108.058 10.0804C107.978 9.87066 107.855 9.67983 107.697 9.51998C107.535 9.358 107.342 9.23119 107.129 9.14754C106.883 9.05277 106.622 9.00612 106.359 9.01013Z" fill="#222326"/>
<path d="M116.064 14.9401C116.062 14.735 116.098 14.5313 116.172 14.3398C116.24 14.1584 116.348 13.9943 116.487 13.8589C116.631 13.7189 116.803 13.6094 116.991 13.5371C117.424 13.3757 117.9 13.3757 118.333 13.5371C118.52 13.609 118.691 13.7185 118.835 13.8589C118.971 13.9966 119.078 14.1601 119.15 14.3398C119.225 14.5308 119.263 14.7347 119.262 14.9401C119.263 15.1414 119.225 15.341 119.15 15.5277C119.077 15.7035 118.97 15.8633 118.835 15.9977C118.692 16.1382 118.521 16.2467 118.333 16.3159C117.899 16.4727 117.424 16.4727 116.991 16.3159C116.803 16.2461 116.631 16.1377 116.487 15.9977C116.348 15.8635 116.241 15.7006 116.172 15.5204C116.1 15.3356 116.063 15.1387 116.064 14.9401Z" fill="#222326"/>
<path d="M124.874 11.7083C124.868 11.0942 124.963 10.4834 125.156 9.9003C125.331 9.36794 125.612 8.87613 125.98 8.45394C126.348 8.04375 126.8 7.71808 127.305 7.49933C128.457 7.03408 129.744 7.03408 130.896 7.49933C131.404 7.71817 131.859 8.04588 132.227 8.45936C132.595 8.88155 132.876 9.37336 133.051 9.90573C133.244 10.4889 133.339 11.0997 133.333 11.7137V11.8945C133.34 12.5121 133.244 13.1266 133.051 13.7133C132.877 14.2453 132.598 14.7371 132.23 15.1597C131.865 15.5728 131.412 15.8995 130.905 16.1161C130.339 16.3537 129.729 16.4707 129.115 16.4596C128.495 16.4718 127.88 16.3548 127.307 16.1161C126.797 15.8997 126.342 15.5731 125.973 15.1597C125.604 14.7377 125.324 14.2458 125.149 13.7133C124.955 13.1266 124.86 12.5121 124.867 11.8945L124.874 11.7083ZM127.177 11.8891C127.175 12.2445 127.211 12.5991 127.286 12.9467C127.347 13.2514 127.462 13.5427 127.625 13.8073C127.779 14.0618 127.999 14.2702 128.261 14.4108C128.523 14.5513 128.818 14.6189 129.115 14.6064C129.419 14.6156 129.72 14.5412 129.985 14.3913C130.227 14.2461 130.429 14.0429 130.572 13.8001C130.732 13.5342 130.846 13.2432 130.909 12.9395C130.981 12.5917 131.017 12.2372 131.015 11.8818V11.701C131.017 11.3529 130.981 11.0056 130.909 10.6651C130.844 10.364 130.731 10.0757 130.572 9.81172C130.427 9.56902 130.223 9.3669 129.979 9.22413C129.589 8.99538 129.124 8.92878 128.684 9.03861C128.245 9.14844 127.866 9.42596 127.629 9.81172C127.467 10.0766 127.352 10.3678 127.289 10.6723C127.215 11.0127 127.179 11.36 127.181 11.7083L127.177 11.8891Z" fill="#222326"/>
<path d="M143.08 7.13877C143.402 7.13695 143.725 7.16053 144.043 7.20928C144.288 7.24492 144.529 7.29625 144.767 7.36296L144.421 9.66992C144.114 9.59859 143.803 9.54486 143.49 9.50901C143.19 9.47397 142.888 9.45586 142.586 9.45477C142.044 9.42873 141.505 9.55793 141.033 9.82721C140.637 10.0814 140.33 10.453 140.155 10.8903V16.2744H137.853V7.31957H139.997L140.106 8.78582C140.45 8.29215 140.899 7.88042 141.42 7.57991C141.925 7.28934 142.497 7.13717 143.08 7.13877Z" fill="#222326"/>
<path d="M147.864 11.7246C147.856 11.0946 147.939 10.4668 148.11 9.86059C148.259 9.33757 148.504 8.847 148.833 8.41422C149.138 8.01916 149.529 7.69885 149.976 7.4777C150.451 7.247 150.974 7.1306 151.502 7.1378C151.966 7.12561 152.428 7.21637 152.853 7.40357C153.225 7.57898 153.554 7.83677 153.813 8.15749L153.905 7.30413H156V15.9824C156.011 16.5405 155.905 17.0946 155.689 17.6095C155.492 18.0693 155.195 18.4794 154.82 18.81C154.428 19.1462 153.971 19.3985 153.478 19.5513C152.919 19.7255 152.336 19.8109 151.75 19.8044C151.458 19.8018 151.167 19.7739 150.88 19.7212C150.567 19.6642 150.259 19.5783 149.962 19.4645C149.659 19.3489 149.37 19.2004 149.099 19.0215C148.834 18.8464 148.599 18.6297 148.403 18.3797L149.439 16.9785C149.715 17.2974 150.053 17.5559 150.433 17.7379C150.809 17.9128 151.219 18.0018 151.634 17.9982C152.281 17.9982 152.784 17.8174 153.145 17.4812C153.507 17.1449 153.688 16.6441 153.688 16.0095V15.4942C153.422 15.7883 153.099 16.0251 152.739 16.1903C152.343 16.3634 151.915 16.4485 151.484 16.4398C150.962 16.4479 150.446 16.3294 149.98 16.0944C149.535 15.8663 149.146 15.5429 148.841 15.1471C148.512 14.7141 148.266 14.2236 148.117 13.7007C147.945 13.1138 147.859 12.5046 147.864 11.8927V11.7246ZM150.177 11.9054C150.174 12.2575 150.211 12.6088 150.289 12.9522C150.353 13.2522 150.469 13.5386 150.632 13.7983C150.78 14.0313 150.982 14.2254 151.22 14.3642C151.478 14.5083 151.769 14.5802 152.064 14.5721C152.412 14.5851 152.757 14.5052 153.064 14.3407C153.327 14.1848 153.543 13.9613 153.69 13.6935V9.89675C153.545 9.62605 153.329 9.40073 153.064 9.24589C152.764 9.08525 152.428 9.00608 152.088 9.01628C151.792 9.00848 151.499 9.08161 151.242 9.22781C150.998 9.37085 150.793 9.56979 150.641 9.80816C150.476 10.073 150.357 10.364 150.289 10.6688C150.21 11.015 150.171 11.3694 150.173 11.7246L150.177 11.9054Z" fill="#222326"/>
<path d="M13.8885 16.2747C13.828 16.1529 13.7808 16.025 13.7475 15.8932C13.7064 15.7431 13.6732 15.5911 13.648 15.4376C13.5147 15.5813 13.3676 15.7115 13.2087 15.8263C13.0395 15.9515 12.8577 16.0587 12.6663 16.1463C12.4492 16.2414 12.2225 16.3129 11.9901 16.3596C11.7315 16.414 11.4679 16.4407 11.2037 16.4392C10.7737 16.4435 10.346 16.3763 9.93808 16.2403C9.57594 16.1194 9.24026 15.9304 8.94913 15.6835C8.67029 15.4475 8.44696 15.1529 8.29507 14.8207C8.14319 14.4885 8.06649 14.1268 8.07046 13.7616C8.07046 12.8178 8.42241 12.088 9.12631 11.5721C9.83021 11.0563 10.8812 10.7977 12.2794 10.7965H13.563V10.2686C13.5721 10.0774 13.5389 9.8866 13.4657 9.70973C13.3926 9.53285 13.2814 9.37428 13.14 9.2453C12.8597 8.99399 12.453 8.86924 11.9232 8.86924C11.4532 8.86924 11.1115 8.96868 10.8963 9.17117C10.7875 9.27477 10.7023 9.40057 10.6465 9.54002C10.5907 9.67946 10.5655 9.82929 10.5727 9.97933H8.27114C8.27071 9.60306 8.35734 9.23178 8.52426 8.89456C8.69984 8.54211 8.95184 8.23328 9.26191 7.99057C9.61561 7.71436 10.017 7.5054 10.4461 7.37406C10.9644 7.212 11.505 7.13268 12.048 7.13902C12.5592 7.13518 13.0684 7.2021 13.5612 7.3379C13.9989 7.45686 14.4104 7.65678 14.7744 7.9273C15.1202 8.18646 15.3987 8.52504 15.5862 8.91444C15.7874 9.34275 15.887 9.81175 15.8772 10.2849V14.1286C15.871 14.5283 15.9013 14.9277 15.9676 15.3219C16.018 15.6035 16.1075 15.8767 16.2334 16.1336V16.2747H13.8885ZM11.6918 14.6583C11.9078 14.6596 12.123 14.6322 12.3318 14.577C12.5204 14.5258 12.7024 14.453 12.8742 14.36C13.0255 14.2791 13.1649 14.1774 13.2882 14.0581C13.3947 13.9568 13.4866 13.8412 13.5612 13.7146V12.1742H12.3879C12.0785 12.1684 11.7698 12.2031 11.4694 12.2773C11.2455 12.3312 11.0343 12.4282 10.8475 12.5629C10.6913 12.6797 10.5669 12.8339 10.4859 13.0113C10.4074 13.1901 10.368 13.3837 10.3702 13.579C10.3668 13.7245 10.395 13.8689 10.4527 14.0025C10.5105 14.1361 10.5964 14.2556 10.7047 14.3528C10.9228 14.5577 11.2519 14.6595 11.6918 14.6583Z" fill="#222326"/>
<path d="M12.0282 23.1833C18.189 23.1833 23.1833 18.189 23.1833 12.0282C23.1833 5.86737 18.189 0.873047 12.0282 0.873047C5.86737 0.873047 0.873047 5.86737 0.873047 12.0282C0.873047 18.189 5.86737 23.1833 12.0282 23.1833Z" stroke="#222326" stroke-width="1.74468" stroke-miterlimit="10"/>
</g>
<defs>
<clipPath id="clip0_9032_2976">
<rect width="156" height="24.0567" fill="white"/>
</clipPath>
</defs>
</svg>
