<svg width="17" height="18" viewBox="0 0 17 18" fill="none" xmlns="http://www.w3.org/2000/svg">
<path d="M9.99063 0.0800638C10.3011 0.222851 10.5 0.533299 10.5 0.875013V16.625C10.5 16.9667 10.3011 17.2772 9.99063 17.42C9.68017 17.5627 9.31501 17.5117 9.05556 17.2894L3.17632 12.25H0.875C0.391751 12.25 0 11.8583 0 11.375V6.12501C0 5.64176 0.391751 5.25001 0.875 5.25001H3.17632L9.05556 0.210663C9.31501 -0.0117211 9.68017 -0.0627235 9.99063 0.0800638ZM8.75 2.77746L4.06944 6.78936C3.91085 6.92529 3.70887 7.00001 3.5 7.00001H1.75V10.5H3.5C3.70887 10.5 3.91085 10.5747 4.06944 10.7107L8.75 14.7226V2.77746ZM13.3813 2.88129C13.723 2.53959 14.277 2.53959 14.6187 2.88129L14.6193 2.88192L14.62 2.88259L14.6215 2.88405L14.6248 2.88747L14.6335 2.89632C14.6401 2.90311 14.6483 2.9117 14.658 2.92207C14.6774 2.94282 14.703 2.97074 14.7337 3.00585C14.7951 3.07605 14.8774 3.17513 14.9734 3.30314C15.1654 3.55904 15.4128 3.93163 15.6576 4.4212C16.1486 5.4032 16.625 6.84884 16.625 8.75001C16.625 10.6512 16.1486 12.0968 15.6576 13.0788C15.4128 13.5684 15.1654 13.941 14.9734 14.1969C14.8774 14.3249 14.7951 14.424 14.7337 14.4942C14.703 14.5293 14.6774 14.5572 14.658 14.578C14.6483 14.5883 14.6401 14.5969 14.6335 14.6037L14.6248 14.6126L14.6215 14.616L14.62 14.6174L14.6193 14.6181L14.6187 14.6187C14.277 14.9604 13.723 14.9604 13.3813 14.6187C13.041 14.2785 13.0396 13.7278 13.3769 13.3857L13.3813 13.3811C13.3875 13.3745 13.3996 13.3614 13.4167 13.3418C13.451 13.3026 13.5054 13.2376 13.5734 13.1469C13.7096 12.9653 13.8997 12.6816 14.0924 12.2962C14.4764 11.5282 14.875 10.3488 14.875 8.75001C14.875 7.15118 14.4764 5.97182 14.0924 5.20382C13.8997 4.81839 13.7096 4.53473 13.5734 4.35314C13.5054 4.2624 13.451 4.19741 13.4167 4.15824C13.3996 4.13866 13.3875 4.12557 13.3813 4.11897L13.3769 4.11432C13.0396 3.77227 13.041 3.22154 13.3813 2.88129ZM11.6313 5.50629C11.973 5.16459 12.527 5.16459 12.8687 5.50629L12.87 5.50755L12.8713 5.50889L12.8742 5.51183L12.881 5.51876L12.8982 5.53682C12.9112 5.55073 12.9273 5.5684 12.9461 5.58984C12.9836 5.63269 13.0317 5.69075 13.0867 5.76408C13.1966 5.9106 13.3347 6.11913 13.4701 6.38995C13.7424 6.93445 14 7.72384 14 8.75001C14 9.77618 13.7424 10.5656 13.4701 11.1101C13.3347 11.3809 13.1966 11.5894 13.0867 11.736C13.0317 11.8093 12.9836 11.8673 12.9461 11.9102C12.9273 11.9316 12.9112 11.9493 12.8982 11.9632L12.881 11.9813L12.8742 11.9882L12.8713 11.9911L12.87 11.9925L12.8693 11.9931C12.5276 12.3348 11.973 12.3354 11.6313 11.9937C11.2925 11.655 11.2896 11.1075 11.6226 10.7651C11.6238 10.7638 11.626 10.7614 11.6291 10.7578C11.6394 10.746 11.6597 10.722 11.6867 10.6859C11.7409 10.6137 11.8215 10.4941 11.9049 10.3275C12.0701 9.99695 12.25 9.47384 12.25 8.75001C12.25 8.02618 12.0701 7.50307 11.9049 7.17257C11.8215 7.00589 11.7409 6.8863 11.6867 6.81407C11.6597 6.77802 11.6394 6.75405 11.6291 6.74222C11.626 6.73866 11.6238 6.73621 11.6226 6.73488C11.2896 6.39252 11.2925 5.84507 11.6313 5.50629Z" fill="#0D0D0D"/>
</svg>
