<svg width="15" height="15" viewBox="0 0 15 15" fill="none" xmlns="http://www.w3.org/2000/svg">
<path d="M14.3357 0.58657C14.2585 0.520309 14.168 0.47146 14.0702 0.443347C13.9724 0.415235 13.8697 0.408517 13.7691 0.423653L4.56074 1.84032C4.39305 1.86576 4.24006 1.95053 4.12957 2.07921C4.01908 2.2079 3.95844 2.37196 3.95866 2.54157V9.87282C3.6277 9.71117 3.26448 9.62641 2.89616 9.6249C2.40583 9.6249 1.92651 9.7703 1.51881 10.0427C1.11111 10.3151 0.793351 10.7023 0.605709 11.1553C0.418066 11.6083 0.368971 12.1068 0.46463 12.5877C0.560289 13.0686 0.796407 13.5104 1.14312 13.8571C1.48984 14.2038 1.93159 14.4399 2.4125 14.5356C2.89341 14.6313 3.39189 14.5822 3.8449 14.3945C4.2979 14.2069 4.6851 13.8891 4.95751 13.4814C5.22993 13.0737 5.37533 12.5944 5.37533 12.1041V6.6924L13.167 5.49532V8.45615C12.836 8.2945 12.4728 8.20975 12.1045 8.20824C11.6142 8.20824 11.1348 8.35364 10.7271 8.62605C10.3194 8.89847 10.0017 9.28566 9.81404 9.73867C9.6264 10.1917 9.5773 10.6902 9.67296 11.1711C9.76862 11.652 10.0047 12.0937 10.3515 12.4404C10.6982 12.7872 11.1399 13.0233 11.6208 13.1189C12.1017 13.2146 12.6002 13.1655 13.0532 12.9779C13.5062 12.7902 13.8934 12.4725 14.1658 12.0648C14.4383 11.6571 14.5837 11.1777 14.5837 10.6874V1.1249C14.5837 1.02259 14.5615 0.921492 14.5187 0.828561C14.4759 0.735629 14.4135 0.653073 14.3357 0.58657ZM2.89616 13.1666C2.68602 13.1666 2.48059 13.1043 2.30587 12.9875C2.13114 12.8708 1.99496 12.7048 1.91454 12.5107C1.83412 12.3165 1.81308 12.1029 1.85408 11.8968C1.89507 11.6907 1.99627 11.5014 2.14486 11.3528C2.29345 11.2042 2.48277 11.103 2.68888 11.062C2.89498 11.021 3.10861 11.042 3.30276 11.1224C3.49691 11.2029 3.66285 11.339 3.7796 11.5138C3.89635 11.6885 3.95866 11.8939 3.95866 12.1041C3.95866 12.3859 3.84672 12.6561 3.64746 12.8554C3.4482 13.0546 3.17795 13.1666 2.89616 13.1666ZM12.1045 11.7499C11.8944 11.7499 11.6889 11.6876 11.5142 11.5708C11.3395 11.4541 11.2033 11.2881 11.1229 11.094C11.0425 10.8999 11.0214 10.6862 11.0624 10.4801C11.1034 10.274 11.2046 10.0847 11.3532 9.9361C11.5018 9.78751 11.6911 9.68632 11.8972 9.64532C12.1033 9.60432 12.3169 9.62536 12.5111 9.70578C12.7052 9.7862 12.8712 9.92238 12.9879 10.0971C13.1047 10.2718 13.167 10.4773 13.167 10.6874C13.167 10.9692 13.0551 11.2394 12.8558 11.4387C12.6565 11.638 12.3863 11.7499 12.1045 11.7499ZM13.167 4.0574L5.37533 5.25449V3.12949L13.167 1.95365V4.0574Z" fill="black"/>
</svg>
