<svg width="18" height="18" viewBox="0 0 18 18" fill="none" xmlns="http://www.w3.org/2000/svg">
<path fill-rule="evenodd" clip-rule="evenodd" d="M17.7381 9.11937C17.7381 13.7875 13.9538 17.5718 9.28569 17.5718H1.67322C0.926441 17.5718 0.55245 16.6613 1.0805 16.1288L2.73467 14.4608C1.54614 13.0049 0.833313 11.1454 0.833313 9.11937C0.833313 4.45125 4.61757 0.666992 9.28569 0.666992C13.9538 0.666992 17.7381 4.45125 17.7381 9.11937ZM11.9965 6.4086C12.3265 6.73869 12.3265 7.27387 11.9965 7.60395L10.481 9.11937L11.9965 10.6348C12.3265 10.9649 12.3265 11.5001 11.9965 11.8301C11.6664 12.1602 11.1312 12.1602 10.8011 11.8301L9.28569 10.3147L7.77027 11.8301C7.44019 12.1602 6.90501 12.1602 6.57493 11.8301C6.24484 11.5001 6.24484 10.9649 6.57493 10.6348L8.09035 9.11937L6.57493 7.60395C6.24484 7.27387 6.24484 6.73869 6.57493 6.4086C6.90501 6.07852 7.44019 6.07852 7.77027 6.4086L9.28569 7.92403L10.8011 6.4086C11.1312 6.07852 11.6664 6.07852 11.9965 6.4086Z" fill="#FF507A"/>
</svg>
