<svg width="11" height="19" viewBox="0 0 11 19" fill="none" xmlns="http://www.w3.org/2000/svg">
<path d="M5.125 11.3H3.56457C1.96051 11.3 1.15849 11.3 0.822597 10.7744C0.486707 10.2487 0.823658 9.5209 1.49756 8.06527L4.60825 1.34618C5.03441 0.425682 5.24749 -0.034569 5.47097 0.0146528C5.69444 0.0638747 5.69444 0.571057 5.69444 1.58542V6.63056C5.69444 6.89899 5.69444 7.03321 5.77784 7.11661C5.86123 7.2 5.99545 7.2 6.26389 7.2H7.82432C9.42838 7.2 10.2304 7.2 10.5663 7.72564C10.9022 8.25129 10.5652 8.9791 9.89133 10.4347L6.78064 17.1538C6.35448 18.0743 6.1414 18.5346 5.91792 18.4853C5.69444 18.4361 5.69444 17.9289 5.69444 16.9146V11.8694C5.69444 11.601 5.69444 11.4668 5.61105 11.3834C5.52766 11.3 5.39344 11.3 5.125 11.3Z" fill="white"/>
</svg>
    