<svg width="9" height="16" viewBox="0 0 9 16" fill="none" xmlns="http://www.w3.org/2000/svg">
<path d="M4.125 9.9H2.86904C1.57797 9.9 0.93244 9.9 0.66209 9.47692C0.39174 9.05384 0.662944 8.46804 1.20535 7.29644L3.70908 1.88839C4.05208 1.1475 4.22359 0.777054 4.40346 0.816672C4.58333 0.85629 4.58333 1.26451 4.58333 2.08095V6.14167C4.58333 6.35773 4.58333 6.46576 4.65045 6.53288C4.71758 6.6 4.82561 6.6 5.04167 6.6H6.29763C7.58869 6.6 8.23423 6.6 8.50458 7.02308C8.77493 7.44616 8.50372 8.03196 7.96131 9.20356L5.45759 14.6116C5.11458 15.3525 4.94308 15.7229 4.76321 15.6833C4.58333 15.6437 4.58333 15.2355 4.58333 14.4191V10.3583C4.58333 10.1423 4.58333 10.0342 4.51621 9.96712C4.44909 9.9 4.34106 9.9 4.125 9.9Z" fill="black"/>
</svg>
