<svg width="20" height="20" viewBox="0 0 20 20" fill="none" xmlns="http://www.w3.org/2000/svg">
<path d="M14.1673 7.49984V5.83317C14.1673 4.7281 13.7283 3.66829 12.9469 2.88689C12.1655 2.10549 11.1057 1.6665 10.0007 1.6665C8.89558 1.6665 7.83577 2.10549 7.05437 2.88689C6.27297 3.66829 5.83398 4.7281 5.83398 5.83317V7.49984C5.17094 7.49984 4.53506 7.76323 4.06622 8.23207C3.59738 8.70091 3.33398 9.3368 3.33398 9.99984V15.8332C3.33398 16.4962 3.59738 17.1321 4.06622 17.6009C4.53506 18.0698 5.17094 18.3332 5.83398 18.3332H14.1673C14.8304 18.3332 15.4662 18.0698 15.9351 17.6009C16.4039 17.1321 16.6673 16.4962 16.6673 15.8332V9.99984C16.6673 9.3368 16.4039 8.70091 15.9351 8.23207C15.4662 7.76323 14.8304 7.49984 14.1673 7.49984ZM7.50065 5.83317C7.50065 5.17013 7.76404 4.53424 8.23288 4.0654C8.70172 3.59656 9.33761 3.33317 10.0007 3.33317C10.6637 3.33317 11.2996 3.59656 11.7684 4.0654C12.2373 4.53424 12.5007 5.17013 12.5007 5.83317V7.49984H7.50065V5.83317ZM15.0007 15.8332C15.0007 16.0542 14.9129 16.2661 14.7566 16.4224C14.6003 16.5787 14.3883 16.6665 14.1673 16.6665H5.83398C5.61297 16.6665 5.40101 16.5787 5.24473 16.4224C5.08845 16.2661 5.00065 16.0542 5.00065 15.8332V9.99984C5.00065 9.77882 5.08845 9.56686 5.24473 9.41058C5.40101 9.2543 5.61297 9.1665 5.83398 9.1665H14.1673C14.3883 9.1665 14.6003 9.2543 14.7566 9.41058C14.9129 9.56686 15.0007 9.77882 15.0007 9.99984V15.8332Z" fill="#212121"/>
</svg>
