<?xml version="1.0" encoding="utf-8"?>
<!-- Generator: Adobe Illustrator 26.0.3, SVG Export Plug-In . SVG Version: 6.00 Build 0)  -->
<svg version="1.1" id="Layer_1" xmlns="http://www.w3.org/2000/svg" xmlns:xlink="http://www.w3.org/1999/xlink" x="0px" y="0px"
	 viewBox="0 0 20 20" style="enable-background:new 0 0 20 20;" xml:space="preserve">
<style type="text/css">
	.st0{fill-rule:evenodd;clip-rule:evenodd;fill:#F2F2F2;}
</style>
<path class="st0" d="M7.4,10.8L4.6,9.8c-2.9-1-4.4-1.5-4.4-2.4s1.5-1.4,4.4-2.4l10.6-3.5c2.1-0.7,3.1-1,3.6-0.5
	c0.5,0.5,0.2,1.6-0.5,3.6v0l0,0l-3.5,10.6c-1,2.9-1.5,4.4-2.4,4.4s-1.4-1.5-2.4-4.4l-0.9-2.8l5.4-5.4c0.5-0.5,0.5-1.3,0-1.8
	s-1.3-0.5-1.8,0L7.4,10.8z"/>
</svg>
