<svg width="16" height="16" viewBox="0 0 16 16" fill="none" xmlns="http://www.w3.org/2000/svg">
<path d="M8.00004 2.66683C5.05452 2.66683 2.66671 5.05464 2.66671 8.00016C2.66671 10.9457 5.05452 13.3335 8.00004 13.3335C10.9456 13.3335 13.3334 10.9457 13.3334 8.00016C13.3334 5.05464 10.9456 2.66683 8.00004 2.66683ZM1.33337 8.00016C1.33337 4.31826 4.31814 1.3335 8.00004 1.3335C11.6819 1.3335 14.6667 4.31826 14.6667 8.00016C14.6667 11.6821 11.6819 14.6668 8.00004 14.6668C4.31814 14.6668 1.33337 11.6821 1.33337 8.00016ZM5.1953 5.19542C5.45565 4.93508 5.87776 4.93508 6.13811 5.19542L8.00004 7.05735L9.86197 5.19542C10.1223 4.93508 10.5444 4.93508 10.8048 5.19542C11.0651 5.45577 11.0651 5.87788 10.8048 6.13823L8.94285 8.00016L10.8048 9.86209C11.0651 10.1224 11.0651 10.5446 10.8048 10.8049C10.5444 11.0652 10.1223 11.0652 9.86197 10.8049L8.00004 8.94297L6.13811 10.8049C5.87776 11.0652 5.45565 11.0652 5.1953 10.8049C4.93495 10.5446 4.93495 10.1224 5.1953 9.86209L7.05723 8.00016L5.1953 6.13823C4.93495 5.87788 4.93495 5.45577 5.1953 5.19542Z" fill="#0D0D0D"/>
</svg>
