<svg width="15" height="15" viewBox="0 0 15 15" fill="none" xmlns="http://www.w3.org/2000/svg">
<path d="M6.08317 8.20768H1.12484C0.936976 8.20768 0.756808 8.28231 0.62397 8.41515C0.491132 8.54799 0.416504 8.72815 0.416504 8.91602V13.8743C0.416504 14.0622 0.491132 14.2424 0.62397 14.3752C0.756808 14.5081 0.936976 14.5827 1.12484 14.5827H6.08317C6.27103 14.5827 6.4512 14.5081 6.58404 14.3752C6.71688 14.2424 6.7915 14.0622 6.7915 13.8743V8.91602C6.7915 8.72815 6.71688 8.54799 6.58404 8.41515C6.4512 8.28231 6.27103 8.20768 6.08317 8.20768ZM5.37484 13.166H1.83317V9.62435H5.37484V13.166ZM13.8748 0.416016H8.9165C8.72864 0.416016 8.54848 0.490643 8.41564 0.623482C8.2828 0.75632 8.20817 0.936487 8.20817 1.12435V6.08268C8.20817 6.27054 8.2828 6.45071 8.41564 6.58355C8.54848 6.71639 8.72864 6.79102 8.9165 6.79102H13.8748C14.0627 6.79102 14.2429 6.71639 14.3757 6.58355C14.5085 6.45071 14.5832 6.27054 14.5832 6.08268V1.12435C14.5832 0.936487 14.5085 0.75632 14.3757 0.623482C14.2429 0.490643 14.0627 0.416016 13.8748 0.416016V0.416016ZM13.1665 5.37435H9.62484V1.83268H13.1665V5.37435ZM13.8748 8.20768H8.9165C8.72864 8.20768 8.54848 8.28231 8.41564 8.41515C8.2828 8.54799 8.20817 8.72815 8.20817 8.91602V13.8743C8.20817 14.0622 8.2828 14.2424 8.41564 14.3752C8.54848 14.5081 8.72864 14.5827 8.9165 14.5827H13.8748C14.0627 14.5827 14.2429 14.5081 14.3757 14.3752C14.5085 14.2424 14.5832 14.0622 14.5832 13.8743V8.91602C14.5832 8.72815 14.5085 8.54799 14.3757 8.41515C14.2429 8.28231 14.0627 8.20768 13.8748 8.20768ZM13.1665 13.166H9.62484V9.62435H13.1665V13.166ZM6.08317 0.416016H1.12484C0.936976 0.416016 0.756808 0.490643 0.62397 0.623482C0.491132 0.75632 0.416504 0.936487 0.416504 1.12435V6.08268C0.416504 6.27054 0.491132 6.45071 0.62397 6.58355C0.756808 6.71639 0.936976 6.79102 1.12484 6.79102H6.08317C6.27103 6.79102 6.4512 6.71639 6.58404 6.58355C6.71688 6.45071 6.7915 6.27054 6.7915 6.08268V1.12435C6.7915 0.936487 6.71688 0.75632 6.58404 0.623482C6.4512 0.490643 6.27103 0.416016 6.08317 0.416016V0.416016ZM5.37484 5.37435H1.83317V1.83268H5.37484V5.37435Z" fill="#2D2D2D"/>
</svg>
