<svg width="18" height="18" viewBox="0 0 18 18" fill="none" xmlns="http://www.w3.org/2000/svg">
<path d="M9.00161 1.5C8.0167 1.5 7.04142 1.69399 6.13148 2.0709C5.22154 2.44781 4.39475 3.00026 3.69831 3.6967C2.29178 5.10322 1.50161 7.01088 1.50161 9C1.49505 10.7319 2.0947 12.4114 3.19661 13.7475L1.69661 15.2475C1.59254 15.353 1.52204 15.4869 1.49401 15.6324C1.46598 15.7779 1.48167 15.9284 1.53911 16.065C1.6014 16.1999 1.70239 16.3133 1.82924 16.3908C1.9561 16.4682 2.10311 16.5063 2.25161 16.5H9.00161C10.9907 16.5 12.8984 15.7098 14.3049 14.3033C15.7114 12.8968 16.5016 10.9891 16.5016 9C16.5016 7.01088 15.7114 5.10322 14.3049 3.6967C12.8984 2.29018 10.9907 1.5 9.00161 1.5V1.5ZM9.00161 15H4.05911L4.75661 14.3025C4.8963 14.162 4.9747 13.9719 4.9747 13.7737C4.9747 13.5756 4.8963 13.3855 4.75661 13.245C3.77455 12.264 3.16299 10.9729 3.02613 9.5916C2.88926 8.21029 3.23557 6.82425 4.00603 5.66964C4.77649 4.51503 5.92345 3.66327 7.2515 3.25948C8.57954 2.85569 10.0065 2.92485 11.2893 3.45519C12.572 3.98552 13.6312 4.94421 14.2864 6.16792C14.9416 7.39163 15.1523 8.80466 14.8825 10.1663C14.6126 11.5279 13.8791 12.7538 12.8068 13.6352C11.7344 14.5166 10.3897 14.9989 9.00161 15V15Z" fill="#515151"/>
</svg>
