<svg width="17" height="16" viewBox="0 0 17 16" fill="none" xmlns="http://www.w3.org/2000/svg">
<g clip-path="url(#clip0_2381_1420)">
<path d="M13.5175 6.23047H7.85022C7.15467 6.23047 6.59082 6.79432 6.59082 7.48986V13.1571C6.59082 13.8527 7.15467 14.4165 7.85022 14.4165H13.5175C14.213 14.4165 14.7769 13.8527 14.7769 13.1571V7.48986C14.7769 6.79432 14.213 6.23047 13.5175 6.23047Z" stroke="#424242" stroke-width="1.2594" stroke-linecap="round" stroke-linejoin="round"/>
<path d="M4.07171 10.0083H3.44201C3.108 10.0083 2.78767 9.87565 2.55149 9.63946C2.3153 9.40328 2.18262 9.08295 2.18262 8.74894V3.08166C2.18262 2.74765 2.3153 2.42732 2.55149 2.19113C2.78767 1.95495 3.108 1.82227 3.44201 1.82227H9.10929C9.4433 1.82227 9.76363 1.95495 9.99982 2.19113C10.236 2.42732 10.3687 2.74765 10.3687 3.08166V3.71136" stroke="#424242" stroke-width="1.2594" stroke-linecap="round" stroke-linejoin="round"/>
</g>
<defs>
<clipPath id="clip0_2381_1420">
<rect width="15.1127" height="15.1127" fill="white" transform="translate(0.923828 0.563477)"/>
</clipPath>
</defs>
</svg>