<svg width="17" height="16" viewBox="0 0 17 16" fill="none" xmlns="http://www.w3.org/2000/svg">
<g clip-path="url(#clip0_4732_4574)">
<path d="M13.5185 6.23047H7.85119C7.15565 6.23047 6.5918 6.79432 6.5918 7.48986V13.1571C6.5918 13.8527 7.15565 14.4165 7.85119 14.4165H13.5185C14.214 14.4165 14.7779 13.8527 14.7779 13.1571V7.48986C14.7779 6.79432 14.214 6.23047 13.5185 6.23047Z" stroke="#424242" stroke-width="1.2594" stroke-linecap="round" stroke-linejoin="round"/>
<path d="M4.07269 10.0083H3.44299C3.10898 10.0083 2.78864 9.87565 2.55246 9.63946C2.31628 9.40328 2.18359 9.08295 2.18359 8.74894V3.08166C2.18359 2.74765 2.31628 2.42732 2.55246 2.19113C2.78864 1.95495 3.10898 1.82227 3.44299 1.82227H9.11027C9.44428 1.82227 9.76461 1.95495 10.0008 2.19113C10.237 2.42732 10.3697 2.74765 10.3697 3.08166V3.71136" stroke="#424242" stroke-width="1.2594" stroke-linecap="round" stroke-linejoin="round"/>
</g>
<defs>
<clipPath id="clip0_4732_4574">
<rect width="15.1127" height="15.1127" fill="white" transform="translate(0.923828 0.563477)"/>
</clipPath>
</defs>
</svg>
