<svg width="216" height="240" viewBox="0 0 216 240" fill="none" xmlns="http://www.w3.org/2000/svg">
<g filter="url(#filter0_d_2423_2554)">
<g clip-path="url(#clip0_2423_2554)">
<path d="M9 23.0901C9 14.7561 15.7561 8 24.0901 8H190.081C198.415 8 205.171 14.7561 205.171 23.0901V213.602C205.171 221.936 198.415 228.692 190.081 228.692H24.0901C15.7561 228.692 9 221.936 9 213.602V23.0901Z" fill="white"/>
<path d="M71.8824 165.619C71.8824 164.559 72.1117 163.617 72.5702 162.791C73.0288 161.956 73.6657 161.309 74.481 160.85C75.3064 160.381 76.2389 160.147 77.2784 160.147C78.5522 160.147 79.6426 160.483 80.5496 161.156C81.4565 161.828 82.0629 162.746 82.3686 163.907H79.4948C79.2808 163.459 78.9751 163.117 78.5777 162.883C78.1904 162.649 77.7471 162.532 77.2478 162.532C76.4427 162.532 75.7905 162.812 75.2912 163.372C74.7918 163.933 74.5421 164.682 74.5421 165.619C74.5421 166.557 74.7918 167.306 75.2912 167.866C75.7905 168.427 76.4427 168.707 77.2478 168.707C77.7471 168.707 78.1904 168.59 78.5777 168.356C78.9751 168.121 79.2808 167.78 79.4948 167.331H82.3686C82.0629 168.493 81.4565 169.41 80.5496 170.083C79.6426 170.745 78.5522 171.076 77.2784 171.076C76.2389 171.076 75.3064 170.847 74.481 170.389C73.6657 169.92 73.0288 169.273 72.5702 168.447C72.1117 167.622 71.8824 166.679 71.8824 165.619ZM89.4418 171L87.21 166.949H86.5833V171H83.9693V160.269H88.3564C89.2023 160.269 89.9207 160.417 90.5118 160.712C91.113 161.008 91.5614 161.416 91.8569 161.935C92.1525 162.445 92.3002 163.016 92.3002 163.647C92.3002 164.361 92.0964 164.998 91.6888 165.558C91.2914 166.119 90.7003 166.516 89.9156 166.75L92.392 171H89.4418ZM86.5833 165.1H88.2036C88.6825 165.1 89.0392 164.982 89.2736 164.748C89.5182 164.514 89.6405 164.182 89.6405 163.754C89.6405 163.347 89.5182 163.026 89.2736 162.791C89.0392 162.557 88.6825 162.44 88.2036 162.44H86.5833V165.1ZM96.555 162.363V164.534H100.056V166.552H96.555V168.906H100.514V171H93.9411V160.269H100.514V162.363H96.555ZM108.891 169.105H104.886L104.244 171H101.508L105.391 160.269H108.417L112.3 171H109.533L108.891 169.105ZM108.219 167.087L106.889 163.158L105.574 167.087H108.219ZM121.201 160.269V162.363H118.358V171H115.744V162.363H112.901V160.269H121.201ZM127.588 171.107C126.579 171.107 125.652 170.873 124.806 170.404C123.97 169.935 123.303 169.283 122.803 168.447C122.314 167.601 122.07 166.654 122.07 165.604C122.07 164.554 122.314 163.612 122.803 162.776C123.303 161.94 123.97 161.288 124.806 160.819C125.652 160.351 126.579 160.116 127.588 160.116C128.597 160.116 129.519 160.351 130.355 160.819C131.2 161.288 131.863 161.94 132.342 162.776C132.831 163.612 133.076 164.554 133.076 165.604C133.076 166.654 132.831 167.601 132.342 168.447C131.853 169.283 131.19 169.935 130.355 170.404C129.519 170.873 128.597 171.107 127.588 171.107ZM127.588 168.722C128.444 168.722 129.127 168.437 129.636 167.866C130.156 167.296 130.416 166.542 130.416 165.604C130.416 164.656 130.156 163.902 129.636 163.342C129.127 162.771 128.444 162.486 127.588 162.486C126.722 162.486 126.029 162.766 125.509 163.326C124.999 163.887 124.745 164.646 124.745 165.604C124.745 166.552 124.999 167.311 125.509 167.882C126.029 168.442 126.722 168.722 127.588 168.722ZM140.002 171L137.77 166.949H137.144V171H134.53V160.269H138.917C139.763 160.269 140.481 160.417 141.072 160.712C141.673 161.008 142.122 161.416 142.417 161.935C142.713 162.445 142.861 163.016 142.861 163.647C142.861 164.361 142.657 164.998 142.249 165.558C141.852 166.119 141.261 166.516 140.476 166.75L142.952 171H140.002ZM137.144 165.1H138.764C139.243 165.1 139.6 164.982 139.834 164.748C140.079 164.514 140.201 164.182 140.201 163.754C140.201 163.347 140.079 163.026 139.834 162.791C139.6 162.557 139.243 162.44 138.764 162.44H137.144V165.1Z" fill="#1D1D1D"/>
<path d="M47.6214 189.701V197.691H46.5781V189.701H47.6214ZM60.825 191.409L58.8646 197.691H57.7869L56.2736 192.704L54.7603 197.691H53.6826L51.7107 191.409H52.7769L54.2215 196.683L55.7806 191.409H56.8468L58.3716 196.694L59.7932 191.409H60.825ZM61.4706 194.527C61.4706 193.885 61.6006 193.323 61.8604 192.842C62.1203 192.353 62.4757 191.974 62.9266 191.707C63.3852 191.439 63.8935 191.306 64.4514 191.306C65.0017 191.306 65.4794 191.424 65.8845 191.661C66.2896 191.898 66.5915 192.196 66.7902 192.555V191.409H67.8449V197.691H66.7902V196.522C66.5838 196.889 66.2743 197.195 65.8616 197.439C65.4565 197.676 64.9826 197.795 64.44 197.795C63.882 197.795 63.3776 197.657 62.9266 197.382C62.4757 197.107 62.1203 196.721 61.8604 196.224C61.6006 195.727 61.4706 195.162 61.4706 194.527ZM66.7902 194.539C66.7902 194.065 66.6947 193.652 66.5036 193.3C66.3125 192.949 66.0526 192.681 65.724 192.498C65.403 192.307 65.0476 192.211 64.6578 192.211C64.268 192.211 63.9126 192.303 63.5916 192.487C63.2706 192.67 63.0145 192.937 62.8235 193.289C62.6324 193.641 62.5368 194.053 62.5368 194.527C62.5368 195.009 62.6324 195.429 62.8235 195.788C63.0145 196.14 63.2706 196.411 63.5916 196.602C63.9126 196.786 64.268 196.877 64.6578 196.877C65.0476 196.877 65.403 196.786 65.724 196.602C66.0526 196.411 66.3125 196.14 66.5036 195.788C66.6947 195.429 66.7902 195.013 66.7902 194.539ZM72.669 191.294C73.4333 191.294 74.0524 191.527 74.5262 191.994C75.0001 192.452 75.237 193.117 75.237 193.988V197.691H74.2052V194.137C74.2052 193.511 74.0486 193.033 73.7352 192.704C73.4218 192.368 72.9938 192.2 72.4512 192.2C71.9009 192.2 71.4614 192.372 71.1327 192.716C70.8117 193.06 70.6512 193.56 70.6512 194.218V197.691H69.608V191.409H70.6512V192.303C70.8576 191.982 71.1366 191.734 71.4881 191.558C71.8474 191.382 72.241 191.294 72.669 191.294ZM78.2138 192.269V195.972C78.2138 196.277 78.2788 196.495 78.4087 196.625C78.5386 196.747 78.7641 196.809 79.0851 196.809H79.8532V197.691H78.9131C78.3323 197.691 77.8966 197.558 77.6062 197.29C77.3157 197.023 77.1705 196.583 77.1705 195.972V192.269H76.3565V191.409H77.1705V189.827H78.2138V191.409H79.8532V192.269H78.2138ZM85.4463 192.269V195.972C85.4463 196.277 85.5113 196.495 85.6412 196.625C85.7711 196.747 85.9966 196.809 86.3176 196.809H87.0857V197.691H86.1456C85.5648 197.691 85.1291 197.558 84.8387 197.29C84.5483 197.023 84.403 196.583 84.403 195.972V192.269H83.5891V191.409H84.403V189.827H85.4463V191.409H87.0857V192.269H85.4463ZM91.0898 197.795C90.5013 197.795 89.9663 197.661 89.4848 197.393C89.0109 197.126 88.6364 196.747 88.3613 196.258C88.0938 195.762 87.96 195.188 87.96 194.539C87.96 193.897 88.0976 193.331 88.3727 192.842C88.6555 192.345 89.0377 191.967 89.5192 191.707C90.0007 191.439 90.5395 191.306 91.1357 191.306C91.7318 191.306 92.2707 191.439 92.7522 191.707C93.2337 191.967 93.612 192.341 93.8872 192.83C94.17 193.32 94.3114 193.889 94.3114 194.539C94.3114 195.188 94.1661 195.762 93.8757 196.258C93.5929 196.747 93.2069 197.126 92.7178 197.393C92.2286 197.661 91.686 197.795 91.0898 197.795ZM91.0898 196.877C91.4643 196.877 91.8159 196.79 92.1446 196.614C92.4732 196.438 92.7369 196.174 92.9356 195.823C93.142 195.471 93.2452 195.043 93.2452 194.539C93.2452 194.034 93.1458 193.606 92.9471 193.255C92.7484 192.903 92.4885 192.643 92.1675 192.475C91.8465 192.299 91.4987 192.211 91.1242 192.211C90.7421 192.211 90.3905 192.299 90.0695 192.475C89.7561 192.643 89.5039 192.903 89.3128 193.255C89.1217 193.606 89.0262 194.034 89.0262 194.539C89.0262 195.051 89.1179 195.483 89.3014 195.834C89.4924 196.186 89.7446 196.449 90.058 196.625C90.3714 196.793 90.7153 196.877 91.0898 196.877ZM98.3497 194.539C98.3497 193.889 98.4797 193.323 98.7395 192.842C98.9994 192.353 99.3586 191.974 99.8172 191.707C100.283 191.439 100.815 191.306 101.411 191.306C102.183 191.306 102.817 191.493 103.314 191.867C103.818 192.242 104.151 192.762 104.311 193.427H103.188C103.081 193.044 102.871 192.743 102.557 192.521C102.252 192.299 101.869 192.188 101.411 192.188C100.815 192.188 100.333 192.395 99.9662 192.808C99.5994 193.213 99.4159 193.79 99.4159 194.539C99.4159 195.295 99.5994 195.88 99.9662 196.293C100.333 196.705 100.815 196.912 101.411 196.912C101.869 196.912 102.252 196.805 102.557 196.591C102.863 196.377 103.073 196.071 103.188 195.674H104.311C104.143 196.316 103.807 196.832 103.302 197.221C102.798 197.604 102.167 197.795 101.411 197.795C100.815 197.795 100.283 197.661 99.8172 197.393C99.3586 197.126 98.9994 196.747 98.7395 196.258C98.4797 195.769 98.3497 195.196 98.3497 194.539ZM106.747 192.429C106.93 192.07 107.19 191.791 107.526 191.592C107.87 191.394 108.287 191.294 108.776 191.294V192.372H108.501C107.331 192.372 106.747 193.006 106.747 194.275V197.691H105.703V191.409H106.747V192.429ZM115.712 194.309C115.712 194.508 115.701 194.718 115.678 194.94H110.657C110.695 195.559 110.905 196.044 111.287 196.396C111.677 196.74 112.147 196.912 112.697 196.912C113.148 196.912 113.523 196.809 113.821 196.602C114.127 196.388 114.341 196.105 114.463 195.754H115.586C115.418 196.358 115.082 196.851 114.577 197.233C114.073 197.607 113.446 197.795 112.697 197.795C112.101 197.795 111.566 197.661 111.092 197.393C110.626 197.126 110.259 196.747 109.992 196.258C109.724 195.762 109.59 195.188 109.59 194.539C109.59 193.889 109.72 193.32 109.98 192.83C110.24 192.341 110.603 191.967 111.069 191.707C111.543 191.439 112.086 191.306 112.697 191.306C113.293 191.306 113.821 191.436 114.279 191.695C114.738 191.955 115.09 192.315 115.334 192.773C115.586 193.224 115.712 193.736 115.712 194.309ZM114.635 194.092C114.635 193.694 114.547 193.354 114.371 193.071C114.195 192.781 113.955 192.563 113.649 192.418C113.351 192.265 113.018 192.188 112.651 192.188C112.124 192.188 111.673 192.357 111.299 192.693C110.932 193.029 110.722 193.495 110.668 194.092H114.635ZM116.7 194.527C116.7 193.885 116.83 193.323 117.09 192.842C117.349 192.353 117.705 191.974 118.156 191.707C118.614 191.439 119.123 191.306 119.681 191.306C120.231 191.306 120.709 191.424 121.114 191.661C121.519 191.898 121.821 192.196 122.019 192.555V191.409H123.074V197.691H122.019V196.522C121.813 196.889 121.503 197.195 121.091 197.439C120.686 197.676 120.212 197.795 119.669 197.795C119.111 197.795 118.607 197.657 118.156 197.382C117.705 197.107 117.349 196.721 117.09 196.224C116.83 195.727 116.7 195.162 116.7 194.527ZM122.019 194.539C122.019 194.065 121.924 193.652 121.733 193.3C121.542 192.949 121.282 192.681 120.953 192.498C120.632 192.307 120.277 192.211 119.887 192.211C119.497 192.211 119.142 192.303 118.821 192.487C118.5 192.67 118.244 192.937 118.053 193.289C117.861 193.641 117.766 194.053 117.766 194.527C117.766 195.009 117.861 195.429 118.053 195.788C118.244 196.14 118.5 196.411 118.821 196.602C119.142 196.786 119.497 196.877 119.887 196.877C120.277 196.877 120.632 196.786 120.953 196.602C121.282 196.411 121.542 196.14 121.733 195.788C121.924 195.429 122.019 195.013 122.019 194.539ZM126.11 192.269V195.972C126.11 196.277 126.175 196.495 126.305 196.625C126.434 196.747 126.66 196.809 126.981 196.809H127.749V197.691H126.809C126.228 197.691 125.792 197.558 125.502 197.29C125.212 197.023 125.066 196.583 125.066 195.972V192.269H124.252V191.409H125.066V189.827H126.11V191.409H127.749V192.269H126.11ZM134.745 194.309C134.745 194.508 134.734 194.718 134.711 194.94H129.69C129.728 195.559 129.938 196.044 130.32 196.396C130.71 196.74 131.18 196.912 131.73 196.912C132.181 196.912 132.556 196.809 132.854 196.602C133.159 196.388 133.373 196.105 133.496 195.754H134.619C134.451 196.358 134.115 196.851 133.61 197.233C133.106 197.607 132.479 197.795 131.73 197.795C131.134 197.795 130.599 197.661 130.125 197.393C129.659 197.126 129.292 196.747 129.025 196.258C128.757 195.762 128.623 195.188 128.623 194.539C128.623 193.889 128.753 193.32 129.013 192.83C129.273 192.341 129.636 191.967 130.102 191.707C130.576 191.439 131.119 191.306 131.73 191.306C132.326 191.306 132.854 191.436 133.312 191.695C133.771 191.955 134.122 192.315 134.367 192.773C134.619 193.224 134.745 193.736 134.745 194.309ZM133.668 194.092C133.668 193.694 133.58 193.354 133.404 193.071C133.228 192.781 132.987 192.563 132.682 192.418C132.384 192.265 132.051 192.188 131.684 192.188C131.157 192.188 130.706 192.357 130.332 192.693C129.965 193.029 129.754 193.495 129.701 194.092H133.668ZM145.461 197.691H144.418L140.222 191.329V197.691H139.179V189.689H140.222L144.418 196.041V189.689H145.461V197.691ZM151.757 189.701V190.549H148.283V193.243H151.103V194.092H148.283V197.691H147.24V189.701H151.757ZM157.935 189.701V190.549H155.757V197.691H154.714V190.549H152.524V189.701H157.935ZM159.38 189.701H160.538L159.437 192.303H158.704L159.38 189.701ZM163.951 197.795C163.47 197.795 163.038 197.714 162.656 197.554C162.274 197.386 161.972 197.156 161.75 196.866C161.529 196.568 161.406 196.228 161.383 195.846H162.461C162.492 196.159 162.637 196.415 162.897 196.614C163.164 196.812 163.512 196.912 163.94 196.912C164.337 196.912 164.651 196.824 164.88 196.648C165.109 196.472 165.224 196.251 165.224 195.983C165.224 195.708 165.102 195.506 164.857 195.376C164.613 195.238 164.234 195.104 163.722 194.974C163.256 194.852 162.874 194.73 162.576 194.607C162.285 194.478 162.033 194.29 161.819 194.046C161.613 193.793 161.51 193.465 161.51 193.06C161.51 192.739 161.605 192.444 161.796 192.177C161.987 191.909 162.259 191.699 162.61 191.546C162.962 191.386 163.363 191.306 163.814 191.306C164.509 191.306 165.071 191.481 165.499 191.833C165.927 192.185 166.156 192.666 166.187 193.278H165.144C165.121 192.949 164.987 192.685 164.743 192.487C164.506 192.288 164.185 192.188 163.779 192.188C163.405 192.188 163.107 192.269 162.885 192.429C162.664 192.59 162.553 192.8 162.553 193.06C162.553 193.266 162.618 193.438 162.748 193.576C162.885 193.706 163.053 193.813 163.252 193.897C163.458 193.973 163.741 194.061 164.101 194.16C164.551 194.283 164.918 194.405 165.201 194.527C165.484 194.642 165.725 194.818 165.923 195.055C166.13 195.291 166.237 195.601 166.244 195.983C166.244 196.327 166.149 196.637 165.958 196.912C165.767 197.187 165.495 197.405 165.144 197.565C164.8 197.718 164.402 197.795 163.951 197.795ZM168.05 197.76C167.851 197.76 167.683 197.691 167.545 197.554C167.408 197.416 167.339 197.248 167.339 197.049C167.339 196.851 167.408 196.683 167.545 196.545C167.683 196.407 167.851 196.339 168.05 196.339C168.241 196.339 168.401 196.407 168.531 196.545C168.669 196.683 168.737 196.851 168.737 197.049C168.737 197.248 168.669 197.416 168.531 197.554C168.401 197.691 168.241 197.76 168.05 197.76Z" fill="black"/>
<path d="M9.00293 23.0901C9.00293 14.7561 15.759 8 24.093 8H190.084C198.418 8 205.174 14.7561 205.174 23.0901V142.302H9.00293V23.0901Z" fill="#F4F4F4"/>
<path d="M127.416 73.484C126.643 73.484 125.901 73.7912 125.354 74.3382C124.807 74.8852 124.5 75.6271 124.5 76.4006V83.3715L120.125 79.0548C118.587 77.5789 116.539 76.7547 114.408 76.7547C112.277 76.7547 110.229 77.5789 108.691 79.0548L106.65 81.0965L99.3872 73.834C97.868 72.3236 95.8128 71.4758 93.6705 71.4758C91.5283 71.4758 89.4731 72.3236 87.9538 73.834L83.6663 78.1798V61.8173C83.6663 61.0437 83.9736 60.3019 84.5206 59.7549C85.0676 59.2079 85.8095 58.9006 86.583 58.9006H104.083C104.857 58.9006 105.598 58.5933 106.145 58.0463C106.692 57.4994 107 56.7575 107 55.984C107 55.2104 106.692 54.4685 106.145 53.9216C105.598 53.3746 104.857 53.0673 104.083 53.0673H86.583C84.2624 53.0673 82.0368 53.9892 80.3958 55.6301C78.7549 57.271 77.833 59.4966 77.833 61.8173V96.8173C77.833 99.1379 78.7549 101.364 80.3958 103.004C82.0368 104.645 84.2624 105.567 86.583 105.567H121.583C123.904 105.567 126.129 104.645 127.77 103.004C129.411 101.364 130.333 99.1379 130.333 96.8173V76.4006C130.333 75.6271 130.026 74.8852 129.479 74.3382C128.932 73.7912 128.19 73.484 127.416 73.484ZM86.583 99.7339C85.8095 99.7339 85.0676 99.4267 84.5206 98.8797C83.9736 98.3327 83.6663 97.5908 83.6663 96.8173V86.434L92.0663 77.9173C92.2784 77.6985 92.5323 77.5246 92.8129 77.4059C93.0934 77.2871 93.395 77.2259 93.6997 77.2259C94.0043 77.2259 94.3059 77.2871 94.5865 77.4059C94.8671 77.5246 95.1209 77.6985 95.333 77.9173L104.579 87.1631L117.004 99.5881L86.583 99.7339ZM124.5 96.8173C124.49 97.3791 124.317 97.926 124.004 98.3923L110.762 85.209L112.804 83.1965C113.23 82.7726 113.807 82.5346 114.408 82.5346C115.009 82.5346 115.586 82.7726 116.012 83.1965L124.5 91.6256V96.8173ZM135.35 52.3381L128.291 45.2798C127.745 44.7366 127.006 44.4316 126.235 44.4316C125.465 44.4316 124.725 44.7366 124.179 45.2798L110.821 58.6381C110.54 58.9058 110.315 59.2268 110.16 59.5824C110.004 59.938 109.922 60.321 109.916 60.709V67.7673C109.916 68.5408 110.224 69.2827 110.771 69.8297C111.318 70.3767 112.059 70.684 112.833 70.684H119.891C120.657 70.6807 121.39 70.377 121.933 69.8381L135.291 56.4798C135.569 56.2125 135.79 55.893 135.943 55.5396C136.096 55.1863 136.178 54.8061 136.183 54.4211C136.189 54.0361 136.118 53.6538 135.975 53.2962C135.832 52.9387 135.619 52.6131 135.35 52.3381ZM118.666 64.8506H115.75V61.934L126.25 51.4631L129.166 54.3798L118.666 64.8506Z" fill="#2E2E2E"/>
<path d="M127.416 73.484C126.643 73.484 125.901 73.7912 125.354 74.3382C124.807 74.8852 124.5 75.6271 124.5 76.4006V83.3715L120.125 79.0548C118.587 77.5789 116.539 76.7547 114.408 76.7547C112.277 76.7547 110.229 77.5789 108.691 79.0548L106.65 81.0965L99.3872 73.834C97.868 72.3236 95.8128 71.4758 93.6705 71.4758C91.5283 71.4758 89.4731 72.3236 87.9538 73.834L83.6663 78.1798V61.8173C83.6663 61.0437 83.9736 60.3019 84.5206 59.7549C85.0676 59.2079 85.8095 58.9006 86.583 58.9006H104.083C104.857 58.9006 105.598 58.5933 106.145 58.0463C106.692 57.4994 107 56.7575 107 55.984C107 55.2104 106.692 54.4685 106.145 53.9216C105.598 53.3746 104.857 53.0673 104.083 53.0673H86.583C84.2624 53.0673 82.0368 53.9892 80.3958 55.6301C78.7549 57.271 77.833 59.4966 77.833 61.8173V96.8173C77.833 99.1379 78.7549 101.364 80.3958 103.004C82.0368 104.645 84.2624 105.567 86.583 105.567H121.583C123.904 105.567 126.129 104.645 127.77 103.004C129.411 101.364 130.333 99.1379 130.333 96.8173V76.4006C130.333 75.6271 130.026 74.8852 129.479 74.3382C128.932 73.7912 128.19 73.484 127.416 73.484ZM86.583 99.7339C85.8095 99.7339 85.0676 99.4267 84.5206 98.8797C83.9736 98.3327 83.6663 97.5908 83.6663 96.8173V86.434L92.0663 77.9173C92.2784 77.6985 92.5323 77.5246 92.8129 77.4059C93.0934 77.2871 93.395 77.2259 93.6997 77.2259C94.0043 77.2259 94.3059 77.2871 94.5865 77.4059C94.8671 77.5246 95.1209 77.6985 95.333 77.9173L104.579 87.1631L117.004 99.5881L86.583 99.7339ZM124.5 96.8173C124.49 97.3791 124.317 97.926 124.004 98.3923L110.762 85.209L112.804 83.1965C113.23 82.7726 113.807 82.5346 114.408 82.5346C115.009 82.5346 115.586 82.7726 116.012 83.1965L124.5 91.6256V96.8173ZM135.35 52.3381L128.291 45.2798C127.745 44.7366 127.006 44.4316 126.235 44.4316C125.465 44.4316 124.725 44.7366 124.179 45.2798L110.821 58.6381C110.54 58.9058 110.315 59.2268 110.16 59.5824C110.004 59.938 109.922 60.321 109.916 60.709V67.7673C109.916 68.5408 110.224 69.2827 110.771 69.8297C111.318 70.3767 112.059 70.684 112.833 70.684H119.891C120.657 70.6807 121.39 70.377 121.933 69.8381L135.291 56.4798C135.569 56.2125 135.79 55.893 135.943 55.5396C136.096 55.1863 136.178 54.8061 136.183 54.4211C136.189 54.0361 136.118 53.6538 135.975 53.2962C135.832 52.9387 135.619 52.6131 135.35 52.3381ZM118.666 64.8506H115.75V61.934L126.25 51.4631L129.166 54.3798L118.666 64.8506Z" fill="#2E2E2E"/>
</g>
</g>
<defs>
<filter id="filter0_d_2423_2554" x="0.883424" y="0.520979" width="214.856" height="239.377" filterUnits="userSpaceOnUse" color-interpolation-filters="sRGB">
<feFlood flood-opacity="0" result="BackgroundImageFix"/>
<feColorMatrix in="SourceAlpha" type="matrix" values="0 0 0 0 0 0 0 0 0 0 0 0 0 0 0 0 0 0 127 0" result="hardAlpha"/>
<feOffset dx="1.22607" dy="1.86363"/>
<feGaussianBlur stdDeviation="4.67132"/>
<feComposite in2="hardAlpha" operator="out"/>
<feColorMatrix type="matrix" values="0 0 0 0 0 0 0 0 0 0 0 0 0 0 0 0 0 0 0.11 0"/>
<feBlend mode="normal" in2="BackgroundImageFix" result="effect1_dropShadow_2423_2554"/>
<feBlend mode="normal" in="SourceGraphic" in2="effect1_dropShadow_2423_2554" result="shape"/>
</filter>
<clipPath id="clip0_2423_2554">
<path d="M9 23.0901C9 14.7561 15.7561 8 24.0901 8H190.081C198.415 8 205.171 14.7561 205.171 23.0901V213.602C205.171 221.936 198.415 228.692 190.081 228.692H24.0901C15.7561 228.692 9 221.936 9 213.602V23.0901Z" fill="white"/>
</clipPath>
</defs>
</svg>
    