<svg width="24" height="24" viewBox="0 0 24 24" fill="none" xmlns="http://www.w3.org/2000/svg">
<path d="M12.1098 15.3898L8.22984 19.2698C8.00035 19.5002 7.72763 19.683 7.42732 19.8078C7.12701 19.9325 6.80502 19.9967 6.47984 19.9967C6.15465 19.9967 5.83266 19.9325 5.53236 19.8078C5.23205 19.683 4.95932 19.5002 4.72984 19.2698C4.49824 19.041 4.31436 18.7685 4.18886 18.4681C4.06336 18.1677 3.99874 17.8454 3.99874 17.5198C3.99874 17.1943 4.06336 16.8719 4.18886 16.5715C4.31436 16.2711 4.49824 15.9986 4.72984 15.7698L8.60984 11.8898C8.79814 11.7015 8.90393 11.4461 8.90393 11.1798C8.90393 10.9135 8.79814 10.6581 8.60984 10.4698C8.42153 10.2815 8.16614 10.1757 7.89984 10.1757C7.63353 10.1757 7.37814 10.2815 7.18984 10.4698L3.30984 14.3598C2.52819 15.2106 2.10546 16.3305 2.12991 17.4856C2.15436 18.6407 2.62412 19.7417 3.44107 20.5586C4.25802 21.3756 5.359 21.8453 6.51408 21.8698C7.66917 21.8942 8.78904 21.4715 9.63984 20.6898L13.5298 16.8098C13.7181 16.6215 13.8239 16.3661 13.8239 16.0998C13.8239 15.8335 13.7181 15.5781 13.5298 15.3898C13.3415 15.2015 13.0861 15.0957 12.8198 15.0957C12.5535 15.0957 12.2981 15.2015 12.1098 15.3898ZM8.82984 15.1698C8.92328 15.2625 9.03409 15.3358 9.15593 15.3856C9.27777 15.4354 9.40823 15.4606 9.53984 15.4598C9.67144 15.4606 9.80191 15.4354 9.92374 15.3856C10.0456 15.3358 10.1564 15.2625 10.2498 15.1698L15.1698 10.2498C15.3581 10.0615 15.4639 9.80614 15.4639 9.53984C15.4639 9.27353 15.3581 9.01814 15.1698 8.82984C14.9815 8.64153 14.7261 8.53575 14.4598 8.53575C14.1935 8.53575 13.9381 8.64153 13.7498 8.82984L8.82984 13.7498C8.73611 13.8428 8.66171 13.9534 8.61095 14.0753C8.56018 14.1971 8.53404 14.3278 8.53404 14.4598C8.53404 14.5918 8.56018 14.7226 8.61095 14.8444C8.66171 14.9663 8.73611 15.0769 8.82984 15.1698ZM20.9998 17.9998H19.9998V16.9998C19.9998 16.7346 19.8945 16.4803 19.7069 16.2927C19.5194 16.1052 19.2651 15.9998 18.9998 15.9998C18.7346 15.9998 18.4803 16.1052 18.2927 16.2927C18.1052 16.4803 17.9998 16.7346 17.9998 16.9998V17.9998H16.9998C16.7346 17.9998 16.4803 18.1052 16.2927 18.2927C16.1052 18.4803 15.9998 18.7346 15.9998 18.9998C15.9998 19.2651 16.1052 19.5194 16.2927 19.7069C16.4803 19.8945 16.7346 19.9998 16.9998 19.9998H17.9998V20.9998C17.9998 21.2651 18.1052 21.5194 18.2927 21.7069C18.4803 21.8945 18.7346 21.9998 18.9998 21.9998C19.2651 21.9998 19.5194 21.8945 19.7069 21.7069C19.8945 21.5194 19.9998 21.2651 19.9998 20.9998V19.9998H20.9998C21.2651 19.9998 21.5194 19.8945 21.7069 19.7069C21.8945 19.5194 21.9998 19.2651 21.9998 18.9998C21.9998 18.7346 21.8945 18.4803 21.7069 18.2927C21.5194 18.1052 21.2651 17.9998 20.9998 17.9998ZM16.8098 13.5298L20.6898 9.63984C21.4715 8.78904 21.8942 7.66917 21.8698 6.51408C21.8453 5.359 21.3756 4.25802 20.5586 3.44107C19.7417 2.62412 18.6407 2.15436 17.4856 2.12991C16.3305 2.10546 15.2106 2.52819 14.3598 3.30984L10.4698 7.18984C10.3766 7.28307 10.3026 7.39377 10.2522 7.51559C10.2017 7.63741 10.1757 7.76798 10.1757 7.89984C10.1757 8.0317 10.2017 8.16226 10.2522 8.28409C10.3026 8.40591 10.3766 8.5166 10.4698 8.60984C10.5631 8.70307 10.6738 8.77704 10.7956 8.8275C10.9174 8.87796 11.048 8.90393 11.1798 8.90393C11.3117 8.90393 11.4423 8.87796 11.5641 8.8275C11.6859 8.77704 11.7966 8.70307 11.8898 8.60984L15.7698 4.72984C15.9993 4.49944 16.272 4.31663 16.5724 4.19189C16.8727 4.06715 17.1947 4.00294 17.5198 4.00294C17.845 4.00294 18.167 4.06715 18.4673 4.19189C18.7676 4.31663 19.0403 4.49944 19.2698 4.72984C19.5014 4.95864 19.6853 5.23115 19.8108 5.53155C19.9363 5.83195 20.0009 6.15427 20.0009 6.47984C20.0009 6.8054 19.9363 7.12772 19.8108 7.42812C19.6853 7.72853 19.5014 8.00103 19.2698 8.22984L15.3898 12.1098C15.2961 12.2028 15.2217 12.3134 15.1709 12.4353C15.1202 12.5571 15.094 12.6878 15.094 12.8198C15.094 12.9518 15.1202 13.0826 15.1709 13.2044C15.2217 13.3263 15.2961 13.4369 15.3898 13.5298C15.4828 13.6236 15.5934 13.698 15.7153 13.7487C15.8371 13.7995 15.9678 13.8256 16.0998 13.8256C16.2318 13.8256 16.3626 13.7995 16.4844 13.7487C16.6063 13.698 16.7169 13.6236 16.8098 13.5298Z" fill="#9F9F9F"/>
</svg>
