<svg width="15" height="15" viewBox="0 0 15 15" fill="none" xmlns="http://www.w3.org/2000/svg">
<path fill-rule="evenodd" clip-rule="evenodd" d="M9.84655 5.8327C9.84655 8.07304 8.03705 9.88034 5.8158 9.88034C3.59456 9.88034 1.78505 8.07304 1.78505 5.8327C1.78505 3.59236 3.59456 1.78505 5.8158 1.78505C8.03705 1.78505 9.84655 3.59236 9.84655 5.8327ZM8.9336 10.7573C8.03252 11.3323 6.96295 11.6654 5.8158 11.6654C2.60382 11.6654 0 9.05401 0 5.8327C0 2.61139 2.60382 0 5.8158 0C9.02778 0 11.6316 2.61139 11.6316 5.8327C11.6316 7.2575 11.1222 8.56299 10.2761 9.57596L13.9735 13.2991L12.7157 14.5657L8.9336 10.7573Z" fill="#9F9F9F"/>
</svg>
