<svg width="17" height="17" viewBox="0 0 17 17" fill="none" xmlns="http://www.w3.org/2000/svg">
<path d="M7.70801 8.49967H1.37467C1.16471 8.49967 0.963348 8.58308 0.814882 8.73155C0.666415 8.88001 0.583008 9.08138 0.583008 9.29134V15.6247C0.583008 15.8346 0.666415 16.036 0.814882 16.1845C0.963348 16.3329 1.16471 16.4163 1.37467 16.4163H7.70801C7.91797 16.4163 8.11933 16.3329 8.2678 16.1845C8.41627 16.036 8.49967 15.8346 8.49967 15.6247V9.29134C8.49967 9.08138 8.41627 8.88001 8.2678 8.73155C8.11933 8.58308 7.91797 8.49967 7.70801 8.49967ZM6.91634 14.833H2.16634V10.083H6.91634V14.833ZM16.353 1.07384C16.2727 0.880398 16.1189 0.726675 15.9255 0.646341C15.8303 0.605775 15.7281 0.584259 15.6247 0.583008H10.8747C10.6647 0.583008 10.4633 0.666415 10.3149 0.814882C10.1664 0.963348 10.083 1.16471 10.083 1.37467C10.083 1.58464 10.1664 1.786 10.3149 1.93447C10.4633 2.08293 10.6647 2.16634 10.8747 2.16634H13.7168L9.52092 6.35426C9.44672 6.42785 9.38783 6.51541 9.34764 6.61188C9.30744 6.70836 9.28675 6.81183 9.28675 6.91634C9.28675 7.02085 9.30744 7.12433 9.34764 7.2208C9.38783 7.31727 9.44672 7.40483 9.52092 7.47842C9.59452 7.55263 9.68208 7.61152 9.77855 7.65171C9.87502 7.69191 9.9785 7.7126 10.083 7.7126C10.1875 7.7126 10.291 7.69191 10.3875 7.65171C10.4839 7.61152 10.5715 7.55263 10.6451 7.47842L14.833 3.28259V6.12467C14.833 6.33464 14.9164 6.536 15.0649 6.68447C15.2133 6.83293 15.4147 6.91634 15.6247 6.91634C15.8346 6.91634 16.036 6.83293 16.1845 6.68447C16.3329 6.536 16.4163 6.33464 16.4163 6.12467V1.37467C16.4151 1.27122 16.3936 1.16902 16.353 1.07384Z" fill="#7C7C7C"/>
</svg>
