<svg width="16" height="19" viewBox="0 0 16 19" fill="none" xmlns="http://www.w3.org/2000/svg">
<path d="M0 0V4.55121L11.9788 11.2058L0 18.2076H9.86984C13.0235 18.2076 15.5778 15.9671 15.5778 13.2027V9.10523L0 0Z" fill="url(#paint0_linear_3829_4299)"/>
<path d="M0 0V4.55121L11.9788 11.2058L0 18.2076H9.86984C13.0235 18.2076 15.5778 15.9671 15.5778 13.2027V9.10523L0 0Z" fill="url(#paint1_linear_3829_4299)"/>
<path d="M0 0L15.5778 9.10523V5.00495C15.5778 2.2406 13.0207 0 9.86984 0H0Z" fill="url(#paint2_linear_3829_4299)"/>
<path d="M8.19497 9.09961L0 13.6508V18.2021L11.9788 11.2002L8.19497 9.09961Z" fill="url(#paint3_linear_3829_4299)"/>
<defs>
<linearGradient id="paint0_linear_3829_4299" x1="3.82942" y1="4.09474" x2="9.24773" y2="17.1804" gradientUnits="userSpaceOnUse">
<stop stop-color="#0057FF"/>
<stop offset="1" stop-color="#00A3FF"/>
</linearGradient>
<linearGradient id="paint1_linear_3829_4299" x1="3.82942" y1="4.09474" x2="9.24773" y2="17.1804" gradientUnits="userSpaceOnUse">
<stop stop-color="#0057FF"/>
<stop offset="1" stop-color="#00A3FF"/>
</linearGradient>
<linearGradient id="paint2_linear_3829_4299" x1="6.3712" y1="4.18726" x2="16.4508" y2="1.52473" gradientUnits="userSpaceOnUse">
<stop stop-color="#0283FF"/>
<stop offset="1" stop-color="#01C2FF"/>
</linearGradient>
<linearGradient id="paint3_linear_3829_4299" x1="2.907" y1="16.5157" x2="17.0237" y2="-2.21608" gradientUnits="userSpaceOnUse">
<stop stop-color="#0157FF"/>
<stop offset="1" stop-color="#00FFFF"/>
</linearGradient>
</defs>
</svg>
