<svg width="40" height="40" viewBox="0 0 40 40" fill="none" xmlns="http://www.w3.org/2000/svg">
<g clip-path="url(#clip0_2386_2896)">
<path d="M35.8371 19.4104C36.0575 28.2868 29.0398 35.6617 20.1622 35.8818C11.2883 36.1016 3.91332 29.0834 3.69399 20.2074C3.4724 11.3303 10.49 3.95505 19.3648 3.73506C28.2416 3.51452 35.6166 10.5337 35.8369 19.4106L35.837 19.4104L35.8371 19.4104Z" fill="#F7931A"/>
<path d="M26.9714 15.9041C26.7108 13.7559 24.8342 13.0802 22.4823 12.9328L22.4082 9.94596L20.59 9.99133L20.6623 12.8995C20.1843 12.9113 19.696 12.9329 19.2108 12.9547L19.1385 10.0271L17.3214 10.0722L17.3949 13.0583C17.0016 13.0761 16.6151 13.0931 16.2382 13.1026L16.2377 13.0933L13.7301 13.1546L13.7788 15.0964C13.7788 15.0964 15.1208 15.0376 15.0991 15.0627C15.8354 15.0446 16.0858 15.4663 16.1648 15.8335L16.2493 19.2362C16.3001 19.2352 16.3664 19.2356 16.4419 19.2442C16.3812 19.2457 16.3166 19.247 16.2498 19.2493L16.3676 24.0162C16.3411 24.2487 16.2141 24.6218 15.6995 24.6354C15.7234 24.6554 14.3779 24.6679 14.3779 24.6679L14.0705 26.8482L16.4366 26.7894C16.8769 26.7791 17.3103 26.7758 17.7358 26.7678L17.8116 29.7887L19.6277 29.7439L19.5534 26.7548C20.0524 26.7528 20.5349 26.7448 21.0062 26.7327L21.0792 29.7079L22.8974 29.6625L22.823 26.6469C25.8754 26.3957 27.9956 25.5727 28.1899 22.6956C28.347 20.379 27.2343 19.3747 25.4889 19.0011C26.5298 18.4381 27.1654 17.476 26.972 15.9042L26.9714 15.904L26.9714 15.9041ZM24.588 22.4267C24.6449 24.6842 20.7731 24.5234 19.5409 24.5551L19.4421 20.5525C20.6746 20.5223 24.5297 20.072 24.588 22.4267L24.588 22.4267ZM23.6022 16.8006C23.6526 18.8544 20.4229 18.6948 19.3966 18.7203L19.3067 15.0903C20.333 15.0647 23.5489 14.6584 23.6023 16.8005L23.6022 16.8006Z" fill="white"/>
</g>
<defs>
<clipPath id="clip0_2386_2896">
<rect width="32.1641" height="32.1641" fill="white" transform="translate(0 8.55273) rotate(-15.4213)"/>
</clipPath>
</defs>
</svg>
