<svg width="32" height="32" viewBox="0 0 32 32" fill="none" xmlns="http://www.w3.org/2000/svg">
<path d="M16.0494 0.174244V0.190007C16.0651 0.268825 16.0651 0.363406 16.0651 0.457988V11.8235C16.0494 11.8866 16.0021 11.9023 15.9548 11.9339C15.6237 12.0915 15.3085 12.2334 14.9774 12.3752C14.5203 12.5802 14.0474 12.8008 13.5902 13.0058L11.9351 13.7624C11.4779 13.9673 11.0208 14.1723 10.5794 14.3772C10.0434 14.6294 9.49171 14.8659 8.95575 15.1181C8.49861 15.323 8.04147 15.5437 7.56856 15.7486C7.19024 15.922 6.81191 16.0797 6.44935 16.2531C6.41782 16.2688 6.3863 16.2846 6.35477 16.2846C6.33901 16.2846 6.33901 16.2846 6.32324 16.2688L6.74886 15.5595C7.56856 14.2038 8.3725 12.8639 9.19221 11.5082C10.0592 10.058 10.942 8.60774 11.809 7.1575C12.6129 5.81759 13.4326 4.47769 14.2365 3.13779C14.8198 2.16045 15.4188 1.18311 16.0021 0.205771C16.0178 0.174244 16.0336 0.15848 16.0336 0.126953H16.0494C16.0336 0.142717 16.0494 0.15848 16.0494 0.174244Z" fill="#8A92B2"/>
<path d="M25.7279 16.2686L25.7437 16.2843L23.4264 17.6558L16.1437 21.9592C16.1122 21.975 16.0806 21.9907 16.0649 22.0065C16.0176 22.0065 16.0176 21.9592 16.0176 21.9434V21.8016V12.0597C16.0176 12.0124 16.0176 11.9494 16.0333 11.9021C16.0491 11.839 16.0964 11.8548 16.1437 11.8705C16.3486 11.9651 16.5693 12.0597 16.7742 12.1543C17.389 12.438 18.0038 12.7218 18.6186 12.9898C19.1545 13.2262 19.6747 13.4784 20.2107 13.7149C20.7466 13.9513 21.2826 14.2035 21.8186 14.44C22.2757 14.6449 22.7486 14.8656 23.2058 15.0705C23.6629 15.2755 24.1358 15.4962 24.5929 15.7011C24.9555 15.8587 25.3181 16.0321 25.6806 16.1898C25.6806 16.237 25.6964 16.2528 25.7279 16.2686Z" fill="#454A75"/>
<path d="M16.0484 31.7966C16.0484 31.8124 16.0326 31.8281 16.0326 31.8439H16.0168C16.0168 31.8124 15.9853 31.7966 15.9696 31.7651C14.9922 30.3936 14.0149 29.0065 13.0375 27.635C12.0444 26.2321 11.0356 24.8134 10.0425 23.4104C9.08089 22.0547 8.10355 20.6833 7.14197 19.3276C6.88975 18.9651 6.63754 18.6183 6.38532 18.2557C6.36956 18.2242 6.35379 18.2084 6.32227 18.1611C6.36956 18.1611 6.40108 18.1927 6.41685 18.2084C7.78828 19.0124 9.14394 19.8163 10.5154 20.6202C12.0917 21.5503 13.6523 22.4803 15.2287 23.4104L16.0326 23.8833C16.0641 23.9148 16.0641 23.9464 16.0641 23.9779V31.5759C16.0641 31.6547 16.0641 31.7335 16.0484 31.7966Z" fill="#8A92B2"/>
<path d="M6.30664 16.2998V16.284C6.81107 16.0634 7.29974 15.8269 7.80418 15.6062C8.45048 15.3067 9.09679 15.023 9.74309 14.7235C10.2318 14.5028 10.7362 14.2663 11.2249 14.0456C11.95 13.7146 12.6593 13.3993 13.3845 13.0683C13.8731 12.8476 14.3618 12.6269 14.8662 12.3905C15.213 12.2328 15.5756 12.0752 15.9224 11.9175C15.9539 11.9018 16.0012 11.886 16.017 11.8545C16.0327 11.8545 16.0327 11.8703 16.017 11.886V21.8959C16.017 21.9432 16.0012 21.9905 16.0327 22.022C16.0012 22.0693 15.9697 22.022 15.9539 22.0062C15.8121 21.9274 15.6702 21.8486 15.5283 21.754C12.4859 19.957 9.42782 18.1441 6.38546 16.3471C6.36969 16.3313 6.33817 16.3156 6.30664 16.2998Z" fill="#62688F"/>
<path d="M25.6963 18.1611H25.712C25.712 18.1927 25.6805 18.2242 25.6647 18.2557C22.7642 22.3385 19.8637 26.437 16.9633 30.5198C16.6637 30.9454 16.3485 31.371 16.049 31.7966C16.0332 31.7808 16.0332 31.7651 16.0332 31.7493V31.6547V24.0094V23.8675C16.6953 23.4734 17.3416 23.0951 18.0036 22.701C20.5573 21.1877 23.111 19.6902 25.649 18.1769C25.6647 18.1927 25.6805 18.1769 25.6963 18.1611Z" fill="#62688F"/>
<path d="M16.0315 11.6966V11.665V11.5704V0.126108C16.0315 0.0788177 16.0158 0.0472906 16.0473 0C19.2473 5.31231 22.4473 10.6089 25.6315 15.9212C25.6631 15.9685 25.7103 16.0315 25.7261 16.0946C25.5054 16.0158 25.3005 15.9054 25.0956 15.8108C24.8434 15.7005 24.5754 15.5744 24.3232 15.464C24.1655 15.3852 23.9921 15.3222 23.8345 15.2433C23.5665 15.1172 23.2985 15.0069 23.0305 14.8808C22.8729 14.8177 22.7153 14.7389 22.5576 14.6601L21.5172 14.1872C21.3438 14.1084 21.1704 14.0296 20.9813 13.9507L20.2246 13.6197C20.067 13.5567 19.9094 13.4778 19.7517 13.399L18.7113 12.9261C18.5379 12.8473 18.3645 12.7685 18.1754 12.6897L17.4187 12.3586C17.2453 12.2798 17.0877 12.201 16.9143 12.1222C16.6148 11.9803 16.3153 11.8384 16 11.7123C16.0473 11.6966 16.0315 11.6966 16.0315 11.6966Z" fill="#62688F"/>
</svg>
