<svg width="23" height="25" viewBox="0 0 23 25" fill="none" xmlns="http://www.w3.org/2000/svg">
<path d="M22.638 7.53796L21.513 3.18421C21.3984 2.75185 21.199 2.34657 20.9264 1.99195C20.6538 1.63733 20.3134 1.34043 19.9251 1.11851C19.5367 0.89659 19.1081 0.754081 18.6642 0.699267C18.2203 0.644453 17.7699 0.678426 17.3392 0.799211L15.168 1.38421C15.0243 1.42206 14.8896 1.48798 14.7716 1.57816C14.6536 1.66835 14.5546 1.78102 14.4803 1.90966C14.406 2.03831 14.358 2.18039 14.3389 2.32771C14.3199 2.47502 14.3302 2.62465 14.3692 2.76796L14.6617 3.89296L2.71423 7.05421C2.42661 7.13079 2.18106 7.31823 2.03135 7.57547C1.88164 7.83272 1.83998 8.13881 1.91548 8.42671L2.20798 9.55171L1.08298 9.84421C0.784609 9.88151 0.513277 10.0358 0.328671 10.2732C0.144065 10.5105 0.061307 10.8115 0.098603 11.1098C0.135899 11.4082 0.290194 11.6795 0.527545 11.8641C0.764896 12.0487 1.06586 12.1315 1.36423 12.0942C1.46138 12.1059 1.55958 12.1059 1.65673 12.0942L2.78173 11.7905L3.07423 12.9155C3.15175 13.1995 3.33754 13.4419 3.59173 13.5905C3.76209 13.6916 3.95613 13.7459 4.15423 13.748C4.25098 13.765 4.34997 13.765 4.44673 13.748L8.12548 12.5892V13.0617C8.12626 13.5612 8.24172 14.0539 8.46298 14.5017L2.83798 20.1267C2.62614 20.3371 2.50653 20.6229 2.50548 20.9215C2.50442 21.22 2.622 21.5067 2.83235 21.7186C3.0427 21.9304 3.32859 22.05 3.62713 22.0511C3.92566 22.0521 4.21239 21.9346 4.42423 21.7242L10.0492 16.0992L10.3642 16.223V23.1867C10.3642 23.4851 10.4828 23.7712 10.6937 23.9822C10.9047 24.1932 11.1909 24.3117 11.4892 24.3117C11.7876 24.3117 12.0737 24.1932 12.2847 23.9822C12.4957 23.7712 12.6142 23.4851 12.6142 23.1867V16.2342C12.7257 16.196 12.8346 16.1509 12.9405 16.0992L18.5655 21.7242C18.7773 21.9346 19.064 22.0521 19.3626 22.0511C19.6611 22.05 19.947 21.9304 20.1574 21.7186C20.3677 21.5067 20.4853 21.22 20.4842 20.9215C20.4832 20.6229 20.3636 20.3371 20.1517 20.1267L14.5267 14.5017C14.7451 14.0524 14.8641 13.5612 14.8755 13.0617V10.8117L16.3942 10.4067L16.6755 11.5317C16.7414 11.7771 16.8885 11.993 17.0928 12.1442C17.297 12.2954 17.5465 12.3729 17.8005 12.3642H18.093L20.2642 11.7792C20.7031 11.664 21.1142 11.4615 21.473 11.1839C21.8318 10.9062 22.1309 10.559 22.3525 10.1631C22.5741 9.76719 22.7136 9.33066 22.7627 8.87961C22.8117 8.42856 22.7693 7.97225 22.638 7.53796ZM12.6255 13.0617C12.6243 13.3514 12.5115 13.6294 12.3105 13.838C12.1019 14.039 11.8239 14.1518 11.5342 14.153C11.2391 14.1517 10.9563 14.0345 10.7467 13.8267C10.5389 13.6172 10.4217 13.3343 10.4205 13.0392V11.9142L12.6255 11.3742V13.0617ZM4.96423 11.1042L4.37923 8.93296L15.2467 6.01921L15.5392 7.14421L15.8317 8.26921L4.96423 11.1042ZM20.3542 8.96671C20.2805 9.09582 20.1818 9.20903 20.064 9.29979C19.9462 9.39055 19.8116 9.45705 19.668 9.49546L18.543 9.78796L17.6655 6.52546L17.1255 4.35421L16.833 3.22921L17.958 2.93671C18.1013 2.89764 18.2509 2.88734 18.3982 2.90641C18.5455 2.92547 18.6876 2.97352 18.8163 3.04778C18.9449 3.12204 19.0576 3.22104 19.1478 3.33907C19.238 3.4571 19.3039 3.59182 19.3417 3.73546L20.4667 8.08921C20.5083 8.23549 20.5197 8.38866 20.5004 8.53948C20.481 8.6903 20.4313 8.83564 20.3542 8.96671Z" fill="#222222"/>
</svg>
