<svg width="26" height="26" viewBox="0 0 26 26" fill="none" xmlns="http://www.w3.org/2000/svg">
<path d="M13.2609 4.85187C10.7854 2.63384 6.97831 2.7143 4.59936 5.09325C2.13713 7.55548 2.13713 11.5475 4.59936 14.0098L11.7748 21.1852C12.5956 22.006 13.9263 22.006 14.747 21.1852L21.9225 14.0098C24.3847 11.5475 24.3847 7.55548 21.9225 5.09325C19.5435 2.7143 15.7365 2.63384 13.2609 4.85187ZM12.0298 6.57934L12.5179 7.06741C12.9282 7.47778 13.5936 7.47778 14.004 7.06741L14.492 6.57934C16.1335 4.93785 18.7949 4.93785 20.4364 6.57934C22.0779 8.22083 22.0779 10.8822 20.4364 12.5237L13.2609 19.6992L6.08544 12.5237C4.44396 10.8822 4.44396 8.22083 6.08544 6.57934C7.72693 4.93785 10.3883 4.93785 12.0298 6.57934Z" fill="#b9b9b9"/>
<path d="M6.08544 6.57934C7.72693 4.93785 10.3883 4.93785 12.0298 6.57934L12.5179 7.06741C12.9282 7.47778 13.5936 7.47778 14.004 7.06741L14.492 6.57934C16.1335 4.93785 18.7949 4.93785 20.4364 6.57934C22.0779 8.22083 22.0779 10.8822 20.4364 12.5237L13.2609 19.6992L6.08544 12.5237C4.44396 10.8822 4.44396 8.22083 6.08544 6.57934Z" fill="none"/>
</svg>
