<svg width="26" height="26" viewBox="0 0 26 26" fill="none" xmlns="http://www.w3.org/2000/svg">
<path d="M25.4874 13.3651C25.4874 20.2915 19.8724 25.9065 12.946 25.9065C6.01952 25.9065 0.404541 20.2915 0.404541 13.3651C0.404541 6.43858 6.01952 0.823608 12.946 0.823608C19.8724 0.823608 25.4874 6.43858 25.4874 13.3651ZM11.4953 20.0056L20.8003 10.7007C21.1162 10.3847 21.1162 9.87241 20.8003 9.55645L19.656 8.41219C19.34 8.09618 18.8277 8.09618 18.5117 8.41219L10.9232 16.0007L7.38026 12.4578C7.0643 12.1418 6.55197 12.1418 6.23596 12.4578L5.0917 13.602C4.77574 13.918 4.77574 14.4303 5.0917 14.7463L10.351 20.0056C10.667 20.3216 11.1793 20.3216 11.4953 20.0056Z" fill="#5A5A5A"/>
</svg>
