<svg width="10" height="10" viewBox="0 0 10 10" fill="none" xmlns="http://www.w3.org/2000/svg">
<path d="M0.529247 0.529323C0.789596 0.268973 1.21171 0.268973 1.47206 0.529323L5.00065 4.05792L8.52925 0.529323C8.7896 0.268973 9.21171 0.268973 9.47205 0.529323C9.7324 0.789672 9.7324 1.21178 9.47205 1.47213L5.94346 5.00073L9.47205 8.52932C9.7324 8.78967 9.7324 9.21178 9.47205 9.47213C9.21171 9.73248 8.7896 9.73248 8.52925 9.47213L5.00065 5.94354L1.47206 9.47213C1.21171 9.73248 0.789596 9.73248 0.529247 9.47213C0.268897 9.21178 0.268897 8.78967 0.529247 8.52932L4.05784 5.00073L0.529247 1.47213C0.268897 1.21178 0.268897 0.789672 0.529247 0.529323Z" fill="#858585"/>
</svg>
