<svg width="56" height="57" viewBox="0 0 56 57" fill="none" xmlns="http://www.w3.org/2000/svg">
<path d="M38.6966 22.3434C41.2456 22.3434 43.3119 20.2771 43.3119 17.7282C43.3119 15.1793 41.2456 13.113 38.6966 13.113C36.1477 13.113 34.0814 15.1793 34.0814 17.7282C34.0814 20.2771 36.1477 22.3434 38.6966 22.3434Z" fill="#626262"/>
<path d="M0.236328 6.95931C0.236328 3.56075 2.99141 0.805664 6.38998 0.805664H49.4655C52.8641 0.805664 55.6192 3.56075 55.6192 6.95931V50.0348C55.6192 53.4334 52.8641 56.1885 49.4655 56.1885H6.38998C2.99141 56.1885 0.236328 53.4334 0.236328 50.0348V6.95931ZM49.4655 6.95931H6.38998V31.3259L16.7753 23.0177C17.899 22.1187 19.4957 22.1187 20.6195 23.0177L33.8532 33.6046L38.0595 29.3983C39.2611 28.1967 41.2092 28.1967 42.4108 29.3983L49.4655 36.453V6.95931ZM6.38998 50.0348H49.4655V45.1555L40.2352 35.9252L36.2571 39.9032C35.1486 41.0118 33.3837 41.1095 32.1594 40.1301L18.6974 29.3605L6.38998 39.2064V50.0348Z" fill="#626262"/>
</svg>
