<svg width="20" height="20" viewBox="0 0 20 20" fill="none" xmlns="http://www.w3.org/2000/svg">
<path d="M12.7636 6.17644L15.6457 3.29436M17.2926 1.64746L15.6457 3.29436L17.2926 1.64746ZM9.37926 9.56082C9.80444 9.98034 10.1424 10.4798 10.3738 11.0305C10.6051 11.5812 10.7253 12.1722 10.7273 12.7695C10.7293 13.3668 10.6131 13.9586 10.3854 14.5108C10.1578 15.0631 9.82315 15.5648 9.40079 15.9871C8.97843 16.4095 8.47669 16.7441 7.92447 16.9718C7.37225 17.1995 6.78045 17.3156 6.18315 17.3136C5.58584 17.3116 4.99483 17.1915 4.44415 16.9601C3.89347 16.7288 3.39398 16.3908 2.97446 15.9656C2.14947 15.1114 1.69298 13.9674 1.7033 12.7799C1.71362 11.5924 2.18992 10.4565 3.02963 9.61681C3.86934 8.7771 5.00527 8.3008 6.19275 8.29048C7.38023 8.28016 8.52426 8.73665 9.37844 9.56164L9.37926 9.56082ZM9.37926 9.56082L12.7636 6.17644L9.37926 9.56082ZM12.7636 6.17644L15.234 8.64679L18.1161 5.76471L15.6457 3.29436L12.7636 6.17644Z" stroke="#424242" stroke-width="1.6469" stroke-linecap="round" stroke-linejoin="round"/>
</svg>
