<svg width="21" height="25" viewBox="0 0 21 25" fill="none" xmlns="http://www.w3.org/2000/svg">
<path d="M20.0341 9.63999C19.9337 9.44072 19.7801 9.27314 19.5903 9.15584C19.4004 9.03853 19.1819 8.97608 18.9587 8.9754H12.917V1.7254C12.93 1.4604 12.8554 1.19849 12.7047 0.980104C12.554 0.761721 12.3357 0.599004 12.0833 0.517071C11.8407 0.437252 11.579 0.436355 11.3359 0.514508C11.0928 0.592662 10.8806 0.745846 10.73 0.952071L1.0633 14.2437C0.942182 14.4188 0.869456 14.6227 0.852481 14.8349C0.835507 15.0471 0.874885 15.26 0.966632 15.4521C1.05112 15.6717 1.19789 15.8618 1.38893 15.9992C1.57997 16.1366 1.80696 16.2152 2.04205 16.2254H8.08372V23.4754C8.0839 23.7302 8.16464 23.9784 8.31438 24.1846C8.46412 24.3908 8.67521 24.5443 8.91747 24.6233C9.03887 24.661 9.16497 24.6813 9.29205 24.6837C9.48271 24.6842 9.67078 24.6396 9.84088 24.5535C10.011 24.4674 10.1583 24.3423 10.2708 24.1883L19.9375 10.8967C20.0677 10.7164 20.1456 10.5036 20.1626 10.2819C20.1797 10.0602 20.1352 9.83807 20.0341 9.63999ZM10.5004 19.7537V15.0171C10.5004 14.6966 10.3731 14.3893 10.1465 14.1627C9.91986 13.936 9.61252 13.8087 9.29205 13.8087H4.45872L10.5004 5.44707V10.1837C10.5004 10.5042 10.6277 10.8116 10.8543 11.0382C11.0809 11.2648 11.3882 11.3921 11.7087 11.3921H16.542L10.5004 19.7537Z" fill="#222222"/>
</svg>
