<svg width="23" height="22" viewBox="0 0 23 22" fill="none" xmlns="http://www.w3.org/2000/svg">
<path d="M6.58333 15.3332C7.01431 15.3332 7.42763 15.162 7.73238 14.8572C8.03713 14.5525 8.20833 14.1391 8.20833 13.7082C8.21362 13.6541 8.21362 13.5997 8.20833 13.5457L11.2308 10.5232H11.48H11.7292L13.4733 12.2673C13.4733 12.2673 13.4733 12.3215 13.4733 12.354C13.4733 12.785 13.6445 13.1983 13.9493 13.5031C14.254 13.8078 14.6674 13.979 15.0983 13.979C15.5293 13.979 15.9426 13.8078 16.2474 13.5031C16.5521 13.1983 16.7233 12.785 16.7233 12.354V12.2673L20.6667 8.2915C20.9881 8.2915 21.3022 8.1962 21.5695 8.01764C21.8367 7.83908 22.045 7.58529 22.168 7.28836C22.291 6.99143 22.3231 6.6647 22.2604 6.34948C22.1977 6.03426 22.043 5.74472 21.8157 5.51745C21.5885 5.29019 21.2989 5.13543 20.9837 5.07273C20.6685 5.01003 20.3417 5.04221 20.0448 5.1652C19.7479 5.28819 19.4941 5.49647 19.3155 5.7637C19.137 6.03093 19.0417 6.34511 19.0417 6.6665C19.0364 6.72054 19.0364 6.77497 19.0417 6.829L15.1308 10.7398H14.9575L13.0833 8.83317C13.0833 8.40219 12.9121 7.98887 12.6074 7.68412C12.3026 7.37937 11.8893 7.20817 11.4583 7.20817C11.0274 7.20817 10.614 7.37937 10.3093 7.68412C10.0045 7.98887 9.83333 8.40219 9.83333 8.83317L6.58333 12.0832C6.15236 12.0832 5.73903 12.2544 5.43428 12.5591C5.12954 12.8639 4.95833 13.2772 4.95833 13.7082C4.95833 14.1391 5.12954 14.5525 5.43428 14.8572C5.73903 15.162 6.15236 15.3332 6.58333 15.3332ZM21.2083 19.6665H2.79167V1.24984C2.79167 0.962519 2.67753 0.686969 2.47437 0.483805C2.2712 0.28064 1.99565 0.166504 1.70833 0.166504C1.42102 0.166504 1.14547 0.28064 0.942301 0.483805C0.739137 0.686969 0.625 0.962519 0.625 1.24984V20.7498C0.625 21.0372 0.739137 21.3127 0.942301 21.5159C1.14547 21.719 1.42102 21.8332 1.70833 21.8332H21.2083C21.4956 21.8332 21.7712 21.719 21.9744 21.5159C22.1775 21.3127 22.2917 21.0372 22.2917 20.7498C22.2917 20.4625 22.1775 20.187 21.9744 19.9838C21.7712 19.7806 21.4956 19.6665 21.2083 19.6665Z" fill="#222222"/>
</svg>
