<svg width="23" height="25" viewBox="0 0 23 25" fill="none" xmlns="http://www.w3.org/2000/svg">
<path d="M22.638 7.53845L21.513 3.1847C21.3984 2.75234 21.199 2.34706 20.9264 1.99244C20.6538 1.63781 20.3134 1.34091 19.9251 1.119C19.5367 0.897078 19.1081 0.75457 18.6642 0.699755C18.2203 0.644941 17.7699 0.678914 17.3392 0.799699L15.168 1.3847C15.0243 1.42255 14.8896 1.48847 14.7716 1.57865C14.6536 1.66884 14.5546 1.78151 14.4803 1.91015C14.406 2.0388 14.358 2.18088 14.3389 2.32819C14.3199 2.47551 14.3302 2.62514 14.3692 2.76845L14.6617 3.89345L2.71423 7.0547C2.42661 7.13128 2.18106 7.31872 2.03135 7.57596C1.88164 7.83321 1.83998 8.1393 1.91548 8.4272L2.20798 9.5522L1.08298 9.8447C0.784609 9.882 0.513277 10.0363 0.328671 10.2736C0.144065 10.511 0.061307 10.812 0.098603 11.1103C0.135899 11.4087 0.290194 11.68 0.527545 11.8646C0.764896 12.0492 1.06586 12.132 1.36423 12.0947C1.46138 12.1064 1.55958 12.1064 1.65673 12.0947L2.78173 11.7909L3.07423 12.9159C3.15175 13.2 3.33754 13.4423 3.59173 13.591C3.76209 13.6921 3.95613 13.7464 4.15423 13.7484C4.25098 13.7655 4.34997 13.7655 4.44673 13.7484L8.12548 12.5897V13.0622C8.12626 13.5617 8.24172 14.0544 8.46298 14.5022L2.83798 20.1272C2.62614 20.3376 2.50653 20.6234 2.50548 20.922C2.50442 21.2205 2.622 21.5072 2.83235 21.7191C3.0427 21.9309 3.32859 22.0505 3.62713 22.0516C3.92566 22.0526 4.21239 21.9351 4.42423 21.7247L10.0492 16.0997L10.3642 16.2234V23.1872C10.3642 23.4856 10.4828 23.7717 10.6937 23.9827C10.9047 24.1937 11.1909 24.3122 11.4892 24.3122C11.7876 24.3122 12.0737 24.1937 12.2847 23.9827C12.4957 23.7717 12.6142 23.4856 12.6142 23.1872V16.2347C12.7257 16.1965 12.8346 16.1514 12.9405 16.0997L18.5655 21.7247C18.7773 21.9351 19.064 22.0526 19.3626 22.0516C19.6611 22.0505 19.947 21.9309 20.1574 21.7191C20.3677 21.5072 20.4853 21.2205 20.4842 20.922C20.4832 20.6234 20.3636 20.3376 20.1517 20.1272L14.5267 14.5022C14.7451 14.0528 14.8641 13.5617 14.8755 13.0622V10.8122L16.3942 10.4072L16.6755 11.5322C16.7414 11.7776 16.8885 11.9935 17.0928 12.1447C17.297 12.2958 17.5465 12.3734 17.8005 12.3647H18.093L20.2642 11.7797C20.7031 11.6645 21.1142 11.462 21.473 11.1844C21.8318 10.9067 22.1309 10.5595 22.3525 10.1636C22.5741 9.76767 22.7136 9.33114 22.7627 8.88009C22.8117 8.42905 22.7693 7.97274 22.638 7.53845ZM12.6255 13.0622C12.6243 13.3519 12.5115 13.6299 12.3105 13.8384C12.1019 14.0395 11.8239 14.1523 11.5342 14.1535C11.2391 14.1522 10.9563 14.035 10.7467 13.8272C10.5389 13.6177 10.4217 13.3348 10.4205 13.0397V11.9147L12.6255 11.3747V13.0622ZM4.96423 11.1047L4.37923 8.93345L15.2467 6.0197L15.5392 7.1447L15.8317 8.2697L4.96423 11.1047ZM20.3542 8.9672C20.2805 9.09631 20.1818 9.20952 20.064 9.30028C19.9462 9.39104 19.8116 9.45754 19.668 9.49595L18.543 9.78845L17.6655 6.52595L17.1255 4.3547L16.833 3.2297L17.958 2.9372C18.1013 2.89813 18.2509 2.88783 18.3982 2.9069C18.5455 2.92596 18.6876 2.97401 18.8163 3.04827C18.9449 3.12253 19.0576 3.22153 19.1478 3.33956C19.238 3.45759 19.3039 3.59231 19.3417 3.73595L20.4667 8.0897C20.5083 8.23598 20.5197 8.38915 20.5004 8.53997C20.481 8.69079 20.4313 8.83613 20.3542 8.9672Z" fill="#222222"/>
</svg>
