<svg width="26" height="26" viewBox="0 0 26 26" fill="none" xmlns="http://www.w3.org/2000/svg">
<path d="M12.8639 8.87917C12.2449 8.5618 11.542 8.44651 10.854 8.5495C10.1661 8.6525 9.52777 8.9686 9.02887 9.45333C8.42025 10.0627 8.07839 10.8887 8.07839 11.75C8.07839 12.6113 8.42025 13.4373 9.02887 14.0467L12.0947 17.1667C12.1954 17.2682 12.3152 17.3488 12.4472 17.4038C12.5793 17.4588 12.7209 17.4871 12.8639 17.4871C13.0069 17.4871 13.1485 17.4588 13.2805 17.4038C13.4125 17.3488 13.5323 17.2682 13.633 17.1667L16.6989 14.1008C17.3075 13.4915 17.6493 12.6654 17.6493 11.8042C17.6493 10.9429 17.3075 10.1169 16.6989 9.5075C16.2062 9.01393 15.5709 8.6877 14.8827 8.57494C14.1945 8.46219 13.4883 8.56861 12.8639 8.87917ZM15.1605 12.5192L12.8639 14.8158L10.5672 12.5192C10.4657 12.4185 10.3851 12.2986 10.3301 12.1666C10.2751 12.0346 10.2468 11.893 10.2468 11.75C10.2468 11.607 10.2751 11.4654 10.3301 11.3334C10.3851 11.2014 10.4657 11.0815 10.5672 10.9808C10.7702 10.7791 11.0448 10.6658 11.331 10.6658C11.6172 10.6658 11.8917 10.7791 12.0947 10.9808C12.1954 11.0824 12.3152 11.163 12.4472 11.218C12.5793 11.273 12.7209 11.3013 12.8639 11.3013C13.0069 11.3013 13.1485 11.273 13.2805 11.218C13.4125 11.163 13.5323 11.0824 13.633 10.9808C13.836 10.7791 14.1106 10.6658 14.3968 10.6658C14.683 10.6658 14.9576 10.7791 15.1605 10.9808C15.2621 11.0815 15.3427 11.2014 15.3977 11.3334C15.4527 11.4654 15.481 11.607 15.481 11.75C15.481 11.893 15.4527 12.0346 15.3977 12.1666C15.3427 12.2986 15.2621 12.4185 15.1605 12.5192ZM12.8639 2C11.4412 2 10.0325 2.28021 8.71813 2.82464C7.40377 3.36906 6.20951 4.16704 5.20355 5.17301C3.1719 7.20465 2.03054 9.96016 2.03054 12.8333C2.02106 15.3349 2.88723 17.7609 4.47887 19.6908L2.3122 21.8575C2.16188 22.0098 2.06005 22.2033 2.01956 22.4135C1.97907 22.6236 2.00174 22.841 2.0847 23.0383C2.17468 23.2333 2.32055 23.3971 2.50379 23.5089C2.68702 23.6208 2.89937 23.6757 3.11387 23.6667H12.8639C15.737 23.6667 18.4925 22.5253 20.5242 20.4937C22.5558 18.462 23.6972 15.7065 23.6972 12.8333C23.6972 9.96016 22.5558 7.20465 20.5242 5.17301C18.4925 3.14137 15.737 2 12.8639 2ZM12.8639 21.5H5.7247L6.7322 20.4925C6.93397 20.2895 7.04723 20.015 7.04723 19.7288C7.04723 19.4425 6.93397 19.168 6.7322 18.965C5.31367 17.548 4.43031 15.6831 4.23262 13.6879C4.03493 11.6926 4.53514 9.69059 5.64803 8.02282C6.76092 6.35504 8.41764 5.12472 10.3359 4.54147C12.2542 3.95822 14.3154 4.05812 16.1683 4.82416C18.0212 5.59019 19.5511 6.97496 20.4975 8.74255C21.4439 10.5101 21.7481 12.5512 21.3584 14.5179C20.9687 16.4847 19.9091 18.2555 18.3602 19.5286C16.8113 20.8017 14.8689 21.4984 12.8639 21.5Z" fill="black"/>
</svg>
