<svg width="41" height="41" viewBox="0 0 41 41" fill="none" xmlns="http://www.w3.org/2000/svg">
<g clip-path="url(#clip0_4237_4957)">
<path d="M26.3647 11.6516L7.80609 14.6766C7.07456 14.7972 6.39804 15.1405 5.86875 15.6596C5.33946 16.1788 4.98316 16.8486 4.84844 17.5776C4.71371 18.3067 4.80712 19.0595 5.11592 19.7336C5.42471 20.4076 5.93388 20.97 6.57399 21.3441L12.6874 24.8874C12.8317 24.9755 12.957 25.0916 13.056 25.2287C13.155 25.3658 13.2257 25.5213 13.2639 25.6861L14.7018 32.6042C14.8249 33.1921 15.0929 33.7398 15.4815 34.1977C15.8701 34.6555 16.367 35.009 16.927 35.226C17.487 35.443 18.0923 35.5167 18.688 35.4402C19.2837 35.3638 19.8508 35.1397 20.3378 34.7883C20.7906 34.4545 21.163 34.0237 21.4278 33.5274L30.143 16.8656C30.4511 16.2731 30.5885 15.6067 30.5399 14.9406C30.4913 14.2746 30.2585 13.6352 29.8677 13.0937C29.4769 12.5522 28.9432 12.13 28.3264 11.8741C27.7096 11.6183 27.0338 11.5388 26.3744 11.6446L26.3647 11.6516ZM28.0078 15.7548L19.2926 32.4166C19.1756 32.6319 18.9956 32.8062 18.7767 32.9162C18.5578 33.0262 18.3105 33.0667 18.068 33.0322C17.8254 32.9977 17.5992 32.8899 17.4197 32.7232C17.2402 32.5565 17.1159 32.3389 17.0636 32.0995L15.616 25.1884C15.5957 25.0968 15.5701 25.0065 15.5392 24.9179L22.2505 20.0735C22.5089 19.887 22.6825 19.6056 22.7334 19.2911C22.7842 18.9765 22.708 18.6547 22.5215 18.3964C22.335 18.138 22.0535 17.9643 21.739 17.9135C21.4245 17.8627 21.1027 17.9389 20.8443 18.1254L14.133 22.9697C14.0586 22.9126 13.981 22.8598 13.9004 22.8117L7.79676 19.2614C7.58609 19.1363 7.41868 18.9499 7.31699 18.727C7.2153 18.5041 7.18418 18.2555 7.22781 18.0144C7.27144 17.7733 7.38773 17.5513 7.56109 17.3782C7.73445 17.2051 7.95659 17.0892 8.19772 17.0459L26.7563 14.021C26.9749 13.9876 27.1984 14.0151 27.4023 14.1006C27.6062 14.186 27.7826 14.3261 27.912 14.5054C28.0414 14.6847 28.1188 14.8962 28.1357 15.1166C28.1526 15.3371 28.1084 15.5579 28.0078 15.7548Z" fill="#222222"/>
</g>
<defs>
<clipPath id="clip0_4237_4957">
<rect width="28.8315" height="28.8315" fill="white" transform="translate(0 16.8745) rotate(-35.8225)"/>
</clipPath>
</defs>
</svg>
