<svg width="22" height="22" viewBox="0 0 22 22" fill="none" xmlns="http://www.w3.org/2000/svg">
<path d="M21.8327 6.47074C21.8379 6.40223 21.8379 6.33342 21.8327 6.26491L19.666 0.848244C19.5814 0.63413 19.4308 0.452542 19.236 0.329821C19.0412 0.2071 18.8123 0.149629 18.5827 0.165744H3.41602C3.19905 0.165534 2.98701 0.230478 2.80738 0.352165C2.62775 0.473851 2.48879 0.646673 2.40852 0.848244L0.241849 6.26491C0.236627 6.33342 0.236627 6.40223 0.241849 6.47074C0.205851 6.53105 0.180218 6.59696 0.166016 6.66574C0.178074 7.41459 0.38401 8.14752 0.763739 8.79306C1.14347 9.4386 1.68402 9.9747 2.33268 10.3491V20.7491C2.33268 21.0364 2.44682 21.3119 2.64998 21.5151C2.85315 21.7183 3.1287 21.8324 3.41602 21.8324H18.5827C18.87 21.8324 19.1455 21.7183 19.3487 21.5151C19.5519 21.3119 19.666 21.0364 19.666 20.7491V10.3924C20.3209 10.0143 20.8655 9.47139 21.2456 8.81761C21.6257 8.16384 21.8281 7.42197 21.8327 6.66574C21.8428 6.60114 21.8428 6.53535 21.8327 6.47074ZM12.0827 19.6657H9.91601V15.3324H12.0827V19.6657ZM17.4993 19.6657H14.2493V14.2491C14.2493 13.9618 14.1352 13.6862 13.932 13.483C13.7289 13.2799 13.4533 13.1657 13.166 13.1657H8.83268C8.54536 13.1657 8.26981 13.2799 8.06665 13.483C7.86349 13.6862 7.74935 13.9618 7.74935 14.2491V19.6657H4.49935V10.9991C5.11627 10.9956 5.72534 10.8604 6.28582 10.6026C6.8463 10.3448 7.34527 9.97026 7.74935 9.50408C8.156 9.96517 8.65611 10.3345 9.21645 10.5874C9.7768 10.8404 10.3846 10.9712 10.9993 10.9712C11.6141 10.9712 12.2219 10.8404 12.7822 10.5874C13.3426 10.3345 13.8427 9.96517 14.2493 9.50408C14.6534 9.97026 15.1524 10.3448 15.7129 10.6026C16.2734 10.8604 16.8824 10.9956 17.4993 10.9991V19.6657ZM17.4993 8.83241C16.9247 8.83241 16.3736 8.60414 15.9673 8.19781C15.561 7.79148 15.3327 7.24038 15.3327 6.66574C15.3327 6.37843 15.2185 6.10288 15.0154 5.89971C14.8122 5.69655 14.5367 5.58241 14.2493 5.58241C13.962 5.58241 13.6865 5.69655 13.4833 5.89971C13.2802 6.10288 13.166 6.37843 13.166 6.66574C13.166 7.24038 12.9377 7.79148 12.5314 8.19781C12.1251 8.60414 11.574 8.83241 10.9993 8.83241C10.4247 8.83241 9.87361 8.60414 9.46728 8.19781C9.06096 7.79148 8.83268 7.24038 8.83268 6.66574C8.83268 6.37843 8.71854 6.10288 8.51538 5.89971C8.31222 5.69655 8.03667 5.58241 7.74935 5.58241C7.46203 5.58241 7.18648 5.69655 6.98332 5.89971C6.78015 6.10288 6.66602 6.37843 6.66602 6.66574C6.67668 6.95027 6.63121 7.23412 6.53218 7.50108C6.43315 7.76803 6.28251 8.01287 6.08887 8.22161C5.89522 8.43034 5.66235 8.5989 5.40356 8.71764C5.14477 8.83638 4.86513 8.90299 4.5806 8.91366C4.00596 8.93521 3.4463 8.7276 3.02474 8.33651C2.816 8.14286 2.64745 7.91 2.5287 7.65121C2.40996 7.39242 2.34335 7.11277 2.33268 6.82824L4.15268 2.33241H17.846L19.666 6.82824C19.6249 7.37426 19.3787 7.88448 18.9767 8.2563C18.5747 8.62812 18.0469 8.83395 17.4993 8.83241Z" fill="#222222"/>
</svg>
