<svg width="23" height="23" viewBox="0 0 23 23" fill="none" xmlns="http://www.w3.org/2000/svg">
<path d="M2.95361 13.3636C2.44693 12.4528 2.19359 11.9974 2.19359 11.5002C2.19359 11.0029 2.44693 10.5475 2.95361 9.63668L4.24664 7.31225L5.61314 5.03023C6.14861 4.13601 6.41635 3.6889 6.84696 3.44029C7.27756 3.19168 7.79864 3.18337 8.84079 3.16675L11.5003 3.12433L14.1599 3.16675C15.202 3.18337 15.7231 3.19168 16.1537 3.44029C16.5843 3.6889 16.852 4.13601 17.3875 5.03023L18.754 7.31225L20.047 9.63668C20.5537 10.5475 20.8071 11.0029 20.8071 11.5002C20.8071 11.9974 20.5537 12.4528 20.047 13.3636L18.754 15.6881L17.3875 17.9701C16.852 18.8643 16.5843 19.3114 16.1537 19.56C15.7231 19.8086 15.202 19.817 14.1599 19.8336L11.5003 19.876L8.84079 19.8336C7.79864 19.817 7.27756 19.8086 6.84696 19.56C6.41635 19.3114 6.14861 18.8643 5.61314 17.9701L4.24664 15.6881L2.95361 13.3636Z" stroke="#505050" stroke-width="1.91667"/>
<circle cx="11.5" cy="11.5" r="2.875" stroke="#505050" stroke-width="1.91667"/>
</svg>
