<svg width="24" height="22" viewBox="0 0 24 22" fill="none" xmlns="http://www.w3.org/2000/svg">
<path d="M12.0002 11.0001C11.3574 11.0001 10.729 11.1907 10.1946 11.5478C9.6601 11.9049 9.24354 12.4125 8.99755 13.0064C8.75157 13.6002 8.68721 14.2537 8.81261 14.8841C8.93801 15.5146 9.24755 16.0937 9.70207 16.5482C10.1566 17.0027 10.7357 17.3122 11.3661 17.4376C11.9966 17.563 12.65 17.4987 13.2439 17.2527C13.8377 17.0067 14.3453 16.5901 14.7024 16.0557C15.0596 15.5212 15.2502 14.8929 15.2502 14.2501C15.2502 13.3881 14.9078 12.5615 14.2983 11.952C13.6888 11.3425 12.8621 11.0001 12.0002 11.0001ZM12.0002 15.3334C11.7859 15.3334 11.5764 15.2699 11.3983 15.1508C11.2201 15.0318 11.0813 14.8626 10.9993 14.6647C10.9173 14.4667 10.8958 14.2489 10.9376 14.0387C10.9794 13.8286 11.0826 13.6356 11.2341 13.484C11.3856 13.3325 11.5787 13.2294 11.7888 13.1876C11.999 13.1458 12.2168 13.1672 12.4147 13.2492C12.6127 13.3312 12.7819 13.4701 12.9009 13.6482C13.02 13.8264 13.0835 14.0358 13.0835 14.2501C13.0835 14.5374 12.9694 14.8129 12.7662 15.0161C12.563 15.2193 12.2875 15.3334 12.0002 15.3334ZM11.231 8.51925C11.334 8.61788 11.4555 8.69519 11.5885 8.74675C11.7182 8.80406 11.8584 8.83367 12.0002 8.83367C12.1419 8.83367 12.2822 8.80406 12.4118 8.74675C12.5448 8.69519 12.6663 8.61788 12.7693 8.51925L15.2502 6.08175C15.4599 5.87201 15.5777 5.58753 15.5777 5.29091C15.5777 4.99429 15.4599 4.70982 15.2502 4.50008C15.0404 4.29034 14.756 4.17251 14.4593 4.17251C14.1627 4.17251 13.8782 4.29034 13.6685 4.50008L13.0835 5.13925V1.25008C13.0835 0.962763 12.9694 0.687213 12.7662 0.484049C12.563 0.280885 12.2875 0.166748 12.0002 0.166748C11.7128 0.166748 11.4373 0.280885 11.2341 0.484049C11.031 0.687213 10.9168 0.962763 10.9168 1.25008V5.13925L10.3318 4.50008C10.1221 4.29034 9.83762 4.17251 9.541 4.17251C9.24438 4.17251 8.9599 4.29034 8.75016 4.50008C8.54042 4.70982 8.42259 4.99429 8.42259 5.29091C8.42259 5.58753 8.54042 5.87201 8.75016 6.08175L11.231 8.51925ZM19.5835 14.2501C19.5835 14.0358 19.52 13.8264 19.4009 13.6482C19.2819 13.4701 19.1127 13.3312 18.9147 13.2492C18.7168 13.1672 18.499 13.1458 18.2888 13.1876C18.0787 13.2294 17.8856 13.3325 17.7341 13.484C17.5826 13.6356 17.4794 13.8286 17.4376 14.0387C17.3958 14.2489 17.4173 14.4667 17.4993 14.6647C17.5813 14.8626 17.7201 15.0318 17.8983 15.1508C18.0764 15.2699 18.2859 15.3334 18.5002 15.3334C18.7875 15.3334 19.063 15.2193 19.2662 15.0161C19.4694 14.8129 19.5835 14.5374 19.5835 14.2501ZM20.6668 6.66675H17.4168C17.1295 6.66675 16.854 6.78088 16.6508 6.98405C16.4476 7.18721 16.3335 7.46276 16.3335 7.75008C16.3335 8.0374 16.4476 8.31295 16.6508 8.51611C16.854 8.71928 17.1295 8.83341 17.4168 8.83341H20.6668C20.9541 8.83341 21.2297 8.94755 21.4329 9.15071C21.636 9.35388 21.7502 9.62943 21.7502 9.91675V18.5834C21.7502 18.8707 21.636 19.1463 21.4329 19.3494C21.2297 19.5526 20.9541 19.6667 20.6668 19.6667H3.3335C3.04618 19.6667 2.77063 19.5526 2.56746 19.3494C2.3643 19.1463 2.25016 18.8707 2.25016 18.5834V9.91675C2.25016 9.62943 2.3643 9.35388 2.56746 9.15071C2.77063 8.94755 3.04618 8.83341 3.3335 8.83341H6.5835C6.87081 8.83341 7.14636 8.71928 7.34953 8.51611C7.55269 8.31295 7.66683 8.0374 7.66683 7.75008C7.66683 7.46276 7.55269 7.18721 7.34953 6.98405C7.14636 6.78088 6.87081 6.66675 6.5835 6.66675H3.3335C2.47154 6.66675 1.64489 7.00916 1.0354 7.61865C0.425906 8.22814 0.0834961 9.05479 0.0834961 9.91675V18.5834C0.0834961 19.4454 0.425906 20.272 1.0354 20.8815C1.64489 21.491 2.47154 21.8334 3.3335 21.8334H20.6668C21.5288 21.8334 22.3554 21.491 22.9649 20.8815C23.5744 20.272 23.9168 19.4454 23.9168 18.5834V9.91675C23.9168 9.05479 23.5744 8.22814 22.9649 7.61865C22.3554 7.00916 21.5288 6.66675 20.6668 6.66675ZM4.41683 14.2501C4.41683 14.4643 4.48037 14.6738 4.5994 14.8519C4.71844 15.0301 4.88764 15.169 5.08559 15.2509C5.28354 15.3329 5.50136 15.3544 5.71151 15.3126C5.92166 15.2708 6.11469 15.1676 6.2662 15.0161C6.4177 14.8646 6.52088 14.6716 6.56268 14.4614C6.60448 14.2513 6.58303 14.0335 6.50103 13.8355C6.41904 13.6376 6.28018 13.4684 6.10203 13.3493C5.92388 13.2303 5.71443 13.1667 5.50016 13.1667C5.21284 13.1667 4.9373 13.2809 4.73413 13.484C4.53097 13.6872 4.41683 13.9628 4.41683 14.2501Z" fill="black"/>
</svg>
