<svg width="26" height="24" viewBox="0 0 26 24" fill="none" xmlns="http://www.w3.org/2000/svg">
<path d="M21.75 5.85059H20.5V4.60059C20.5 3.60602 20.1049 2.6522 19.4017 1.94894C18.6984 1.24567 17.7446 0.850586 16.75 0.850586H4.25C3.25544 0.850586 2.30161 1.24567 1.59835 1.94894C0.895088 2.6522 0.5 3.60602 0.5 4.60059V19.6006C0.5 20.5951 0.895088 21.549 1.59835 22.2522C2.30161 22.9555 3.25544 23.3506 4.25 23.3506H21.75C22.7446 23.3506 23.6984 22.9555 24.4017 22.2522C25.1049 21.549 25.5 20.5951 25.5 19.6006V9.60059C25.5 8.60602 25.1049 7.6522 24.4017 6.94894C23.6984 6.24567 22.7446 5.85059 21.75 5.85059ZM4.25 3.35059H16.75C17.0815 3.35059 17.3995 3.48228 17.6339 3.7167C17.8683 3.95112 18 4.26907 18 4.60059V5.85059H4.25C3.91848 5.85059 3.60054 5.71889 3.36612 5.48447C3.1317 5.25005 3 4.93211 3 4.60059C3 4.26907 3.1317 3.95112 3.36612 3.7167C3.60054 3.48228 3.91848 3.35059 4.25 3.35059ZM23 15.8506H21.75C21.4185 15.8506 21.1005 15.7189 20.8661 15.4845C20.6317 15.25 20.5 14.9321 20.5 14.6006C20.5 14.2691 20.6317 13.9511 20.8661 13.7167C21.1005 13.4823 21.4185 13.3506 21.75 13.3506H23V15.8506ZM23 10.8506H21.75C20.7554 10.8506 19.8016 11.2457 19.0983 11.9489C18.3951 12.6522 18 13.606 18 14.6006C18 15.5951 18.3951 16.549 19.0983 17.2522C19.8016 17.9555 20.7554 18.3506 21.75 18.3506H23V19.6006C23 19.9321 22.8683 20.25 22.6339 20.4845C22.3995 20.7189 22.0815 20.8506 21.75 20.8506H4.25C3.91848 20.8506 3.60054 20.7189 3.36612 20.4845C3.1317 20.25 3 19.9321 3 19.6006V8.13809C3.40158 8.27936 3.82429 8.35122 4.25 8.35059H21.75C22.0815 8.35059 22.3995 8.48228 22.6339 8.7167C22.8683 8.95112 23 9.26906 23 9.60059V10.8506Z" fill="#222222"/>
</svg>
