<svg width="18" height="16" viewBox="0 0 18 16" fill="none" xmlns="http://www.w3.org/2000/svg">
<path d="M15.7996 2.16648C14.9162 1.28082 13.7453 0.740262 12.4982 0.642454C11.2511 0.544646 10.0102 0.896034 8.99958 1.63315C7.93929 0.84451 6.61957 0.486905 5.30618 0.632343C3.99279 0.777782 2.78328 1.41546 1.92122 2.41697C1.05917 3.41847 0.608597 4.70941 0.660246 6.02982C0.711895 7.35024 1.26193 8.60204 2.19958 9.53315L7.37458 14.7165C7.80793 15.143 8.39157 15.382 8.99958 15.382C9.60759 15.382 10.1912 15.143 10.6246 14.7165L15.7996 9.53315C16.7726 8.5542 17.3187 7.23004 17.3187 5.84981C17.3187 4.46958 16.7726 3.14542 15.7996 2.16648V2.16648ZM14.6246 8.38315L9.44958 13.5581C9.39069 13.6176 9.3206 13.6648 9.24336 13.697C9.16612 13.7292 9.08327 13.7458 8.99958 13.7458C8.91589 13.7458 8.83303 13.7292 8.7558 13.697C8.67856 13.6648 8.60847 13.6176 8.54958 13.5581L3.37458 8.35815C2.72104 7.6901 2.35509 6.7927 2.35509 5.85815C2.35509 4.92359 2.72104 4.02619 3.37458 3.35815C4.04054 2.70064 4.93872 2.33195 5.87458 2.33195C6.81043 2.33195 7.70862 2.70064 8.37458 3.35815C8.45205 3.43625 8.54422 3.49825 8.64577 3.54056C8.74731 3.58286 8.85624 3.60464 8.96625 3.60464C9.07626 3.60464 9.18518 3.58286 9.28673 3.54056C9.38828 3.49825 9.48044 3.43625 9.55791 3.35815C10.2239 2.70064 11.1221 2.33195 12.0579 2.33195C12.9938 2.33195 13.8919 2.70064 14.5579 3.35815C15.2204 4.01744 15.5984 4.90997 15.6109 5.84455C15.6233 6.77913 15.2693 7.68142 14.6246 8.35815V8.38315Z" fill="#515151"/>
</svg>
