<svg width="10" height="10" viewBox="0 0 10 10" fill="none" xmlns="http://www.w3.org/2000/svg">
<path d="M7.79167 0H1.375C1.01033 0 0.660591 0.144866 0.402728 0.402728C0.144866 0.660591 8.29024e-08 1.01033 8.29024e-08 1.375V1.91125C-6.56367e-05 2.10052 0.0389429 2.28776 0.114583 2.46125V2.48875C0.179337 2.63586 0.271055 2.76955 0.385 2.88292L3.20833 5.68792V8.70833C3.20818 8.78622 3.22787 8.86287 3.26557 8.93103C3.30326 8.9992 3.3577 9.05663 3.42375 9.09792C3.49669 9.14312 3.58086 9.16694 3.66667 9.16667C3.73842 9.16624 3.80906 9.14897 3.87292 9.11625L5.70625 8.19958C5.78184 8.1615 5.8454 8.10322 5.88989 8.03122C5.93439 7.95922 5.95808 7.87631 5.95833 7.79167V5.68792L8.76333 2.88292C8.87728 2.76955 8.969 2.63586 9.03375 2.48875V2.46125C9.11571 2.28911 9.16097 2.10182 9.16667 1.91125V1.375C9.16667 1.01033 9.0218 0.660591 8.76394 0.402728C8.50608 0.144866 8.15634 0 7.79167 0ZM5.17458 5.17458C5.1321 5.21741 5.0985 5.2682 5.07569 5.32404C5.05288 5.37988 5.04132 5.43968 5.04167 5.5V7.5075L4.125 7.96583V5.5C4.12535 5.43968 4.11379 5.37988 4.09098 5.32404C4.06817 5.2682 4.03456 5.21741 3.99208 5.17458L1.56292 2.75H7.60375L5.17458 5.17458ZM8.25 1.83333H0.916667V1.375C0.916667 1.25344 0.964955 1.13686 1.05091 1.05091C1.13686 0.964955 1.25344 0.916667 1.375 0.916667H7.79167C7.91322 0.916667 8.0298 0.964955 8.11576 1.05091C8.20171 1.13686 8.25 1.25344 8.25 1.375V1.83333Z" fill="white"/>
</svg>
