<svg width="16" height="16" viewBox="0 0 16 16" fill="none" xmlns="http://www.w3.org/2000/svg">
<path d="M0.875298 5.64497L7.6253 9.54497C7.73931 9.6108 7.86865 9.64545 8.0003 9.64545C8.13195 9.64545 8.26128 9.6108 8.3753 9.54497L15.1253 5.64497C15.2387 5.57953 15.3329 5.48557 15.3987 5.37241C15.4645 5.25926 15.4995 5.13086 15.5003 4.99997C15.5008 4.86782 15.4664 4.73787 15.4006 4.62328C15.3347 4.5087 15.2398 4.41355 15.1253 4.34747L8.3753 0.454973C8.26128 0.389147 8.13195 0.354492 8.0003 0.354492C7.86865 0.354492 7.73931 0.389147 7.6253 0.454973L0.875298 4.34747C0.760844 4.41355 0.665884 4.5087 0.600031 4.62328C0.534179 4.73787 0.499773 4.86782 0.500298 4.99997C0.501088 5.13086 0.536117 5.25926 0.601904 5.37241C0.66769 5.48557 0.761944 5.57953 0.875298 5.64497ZM8.0003 1.99997L13.2503 4.99997L8.0003 7.99997L2.7503 4.99997L8.0003 1.99997ZM14.3753 7.37747L8.0003 11L1.6253 7.34747C1.5397 7.29788 1.44513 7.26572 1.34705 7.25283C1.24896 7.23994 1.1493 7.24659 1.05379 7.27238C0.95829 7.29818 0.868831 7.34261 0.790571 7.40312C0.71231 7.46363 0.646795 7.53903 0.597798 7.62497C0.500018 7.79719 0.474319 8.00108 0.526306 8.19217C0.578294 8.38326 0.703749 8.54603 0.875298 8.64497L7.6253 12.545C7.73931 12.6108 7.86865 12.6455 8.0003 12.6455C8.13195 12.6455 8.26128 12.6108 8.3753 12.545L15.1253 8.64497C15.2968 8.54603 15.4223 8.38326 15.4743 8.19217C15.5263 8.00108 15.5006 7.79719 15.4028 7.62497C15.3538 7.53903 15.2883 7.46363 15.21 7.40312C15.1318 7.34261 15.0423 7.29818 14.9468 7.27238C14.8513 7.24659 14.7516 7.23994 14.6535 7.25283C14.5555 7.26572 14.4609 7.29788 14.3753 7.34747V7.37747ZM14.3753 10.3775L8.0003 14L1.6253 10.3475C1.5397 10.2979 1.44513 10.2657 1.34705 10.2528C1.24896 10.2399 1.1493 10.2466 1.05379 10.2724C0.95829 10.2982 0.868831 10.3426 0.790571 10.4031C0.71231 10.4636 0.646795 10.539 0.597798 10.625C0.500018 10.7972 0.474319 11.0011 0.526306 11.1922C0.578294 11.3833 0.703749 11.546 0.875298 11.645L7.6253 15.545C7.73931 15.6108 7.86865 15.6455 8.0003 15.6455C8.13195 15.6455 8.26128 15.6108 8.3753 15.545L15.1253 11.645C15.2968 11.546 15.4223 11.3833 15.4743 11.1922C15.5263 11.0011 15.5006 10.7972 15.4028 10.625C15.3538 10.539 15.2883 10.4636 15.21 10.4031C15.1318 10.3426 15.0423 10.2982 14.9468 10.2724C14.8513 10.2466 14.7516 10.2399 14.6535 10.2528C14.5555 10.2657 14.4609 10.2979 14.3753 10.3475V10.3775Z" fill="#626262"/>
</svg>
