<svg width="16" height="16" viewBox="0 0 16 16" fill="none" xmlns="http://www.w3.org/2000/svg">
<path d="M15.0579 5.47961C15.0579 5.47961 15.0579 5.47961 15.0579 5.44211C14.5294 3.99927 13.5706 2.75357 12.311 1.8735C11.0514 0.993438 9.55196 0.521484 8.01539 0.521484C6.47883 0.521484 4.97934 0.993438 3.71977 1.8735C2.46021 2.75357 1.50134 3.99927 0.972891 5.44211C0.972891 5.44211 0.972891 5.44211 0.972891 5.47961C0.382734 7.10778 0.382734 8.89143 0.972891 10.5196C0.972891 10.5196 0.972891 10.5196 0.972891 10.5571C1.50134 11.9999 2.46021 13.2456 3.71977 14.1257C4.97934 15.0058 6.47883 15.4777 8.01539 15.4777C9.55196 15.4777 11.0514 15.0058 12.311 14.1257C13.5706 13.2456 14.5294 11.9999 15.0579 10.5571C15.0579 10.5571 15.0579 10.5571 15.0579 10.5196C15.648 8.89143 15.648 7.10778 15.0579 5.47961ZM2.19539 9.49961C1.93531 8.51652 1.93531 7.4827 2.19539 6.49961H3.59039C3.47042 7.49601 3.47042 8.50321 3.59039 9.49961H2.19539ZM2.81039 10.9996H3.86039C4.03643 11.6685 4.28805 12.3152 4.61039 12.9271C3.87486 12.4261 3.26001 11.7677 2.81039 10.9996ZM3.86039 4.99961H2.81039C3.25354 4.23392 3.86053 3.57571 4.58789 3.07211C4.27331 3.68504 4.02925 4.33167 3.86039 4.99961ZM7.25039 13.7746C6.32922 13.0986 5.68225 12.1135 5.42789 10.9996H7.25039V13.7746ZM7.25039 9.49961H5.10539C4.96543 8.5045 4.96543 7.49471 5.10539 6.49961H7.25039V9.49961ZM7.25039 4.99961H5.42789C5.68225 3.88568 6.32922 2.90059 7.25039 2.22461V4.99961ZM13.1904 4.99961H12.1404C11.9644 4.33072 11.7127 3.68406 11.3904 3.07211C12.1259 3.57316 12.7408 4.23156 13.1904 4.99961ZM8.75039 2.22461C9.67157 2.90059 10.3185 3.88568 10.5729 4.99961H8.75039V2.22461ZM8.75039 13.7746V10.9996H10.5729C10.3185 12.1135 9.67157 13.0986 8.75039 13.7746ZM10.8954 9.49961H8.75039V6.49961H10.8954C11.0353 7.49471 11.0353 8.5045 10.8954 9.49961ZM11.4129 12.9271C11.7352 12.3152 11.9869 11.6685 12.1629 10.9996H13.2129C12.7633 11.7677 12.1484 12.4261 11.4129 12.9271ZM13.8054 9.49961H12.4104C12.4714 9.00195 12.5014 8.50099 12.5004 7.99961C12.5012 7.49823 12.4712 6.99728 12.4104 6.49961H13.8054C14.0655 7.4827 14.0655 8.51652 13.8054 9.49961Z" fill="#1B1B1B"/>
</svg>
