<svg width="16" height="16" viewBox="0 0 16 16" fill="none" xmlns="http://www.w3.org/2000/svg">
<path d="M10.9524 6.35635C11.6447 6.35635 12.2059 5.79516 12.2059 5.10289C12.2059 4.41061 11.6447 3.84942 10.9524 3.84942C10.2601 3.84942 9.69894 4.41061 9.69894 5.10289C9.69894 5.79516 10.2601 6.35635 10.9524 6.35635Z" fill="#626262"/>
<path d="M0.506836 2.17813C0.506836 1.2551 1.2551 0.506836 2.17813 0.506836H13.8772C14.8002 0.506836 15.5485 1.2551 15.5485 2.17813V13.8772C15.5485 14.8002 14.8002 15.5485 13.8772 15.5485H2.17813C1.2551 15.5485 0.506836 14.8002 0.506836 13.8772V2.17813ZM13.8772 2.17813H2.17813V8.79594L4.99872 6.53947C5.30391 6.29531 5.73757 6.29531 6.04276 6.53947L9.63695 9.41482L10.7794 8.2724C11.1057 7.94606 11.6348 7.94606 11.9611 8.2724L13.8772 10.1884V2.17813ZM2.17813 13.8772H13.8772V12.552L11.3703 10.0451L10.2899 11.1255C9.98877 11.4266 9.50944 11.4531 9.17694 11.1871L5.52074 8.26215L2.17813 10.9362V13.8772Z" fill="#626262"/>
</svg>
