<svg width="16" height="16" viewBox="0 0 16 16" fill="none" xmlns="http://www.w3.org/2000/svg">
<path d="M15.2375 0.679869C15.1557 0.609711 15.0598 0.557988 14.9563 0.528222C14.8528 0.498455 14.744 0.491343 14.6375 0.507369L4.8875 2.00737C4.70995 2.03431 4.54795 2.12406 4.43096 2.26032C4.31398 2.39657 4.24976 2.57028 4.25 2.74987V10.5124C3.89958 10.3412 3.51499 10.2515 3.125 10.2499C2.60583 10.2499 2.09831 10.4038 1.66663 10.6923C1.23495 10.9807 0.898497 11.3907 0.699817 11.8703C0.501137 12.35 0.449154 12.8778 0.55044 13.387C0.651726 13.8962 0.901733 14.3639 1.26885 14.731C1.63596 15.0981 2.10369 15.3481 2.61289 15.4494C3.12209 15.5507 3.64989 15.4987 4.12954 15.3C4.6092 15.1014 5.01917 14.7649 5.30761 14.3332C5.59605 13.9016 5.75 13.394 5.75 12.8749V7.14487L14 5.87737V9.01237C13.6496 8.8412 13.265 8.75147 12.875 8.74987C12.3558 8.74987 11.8483 8.90382 11.4166 9.19226C10.9849 9.4807 10.6485 9.89067 10.4498 10.3703C10.2511 10.85 10.1992 11.3778 10.3004 11.887C10.4017 12.3962 10.6517 12.8639 11.0188 13.231C11.386 13.5981 11.8537 13.8481 12.3629 13.9494C12.8721 14.0507 13.3999 13.9987 13.8795 13.8001C14.3592 13.6014 14.7692 13.2649 15.0576 12.8332C15.346 12.4016 15.5 11.894 15.5 11.3749V1.24987C15.5 1.14154 15.4765 1.03449 15.4312 0.936094C15.3859 0.837697 15.3198 0.750283 15.2375 0.679869V0.679869ZM3.125 13.9999C2.9025 13.9999 2.68499 13.9339 2.49998 13.8103C2.31498 13.6867 2.17079 13.511 2.08564 13.3054C2.00049 13.0998 1.97821 12.8736 2.02162 12.6554C2.06503 12.4372 2.17217 12.2367 2.32951 12.0794C2.48684 11.922 2.6873 11.8149 2.90552 11.7715C3.12375 11.7281 3.34995 11.7504 3.55552 11.8355C3.76109 11.9207 3.93679 12.0648 4.0604 12.2499C4.18402 12.4349 4.25 12.6524 4.25 12.8749C4.25 13.1732 4.13147 13.4594 3.9205 13.6704C3.70952 13.8813 3.42337 13.9999 3.125 13.9999ZM12.875 12.4999C12.6525 12.4999 12.435 12.4339 12.25 12.3103C12.065 12.1867 11.9208 12.011 11.8356 11.8054C11.7505 11.5998 11.7282 11.3736 11.7716 11.1554C11.815 10.9372 11.9222 10.7367 12.0795 10.5794C12.2368 10.422 12.4373 10.3149 12.6555 10.2715C12.8738 10.2281 13.1 10.2504 13.3055 10.3355C13.5111 10.4207 13.6868 10.5648 13.8104 10.7499C13.934 10.9349 14 11.1524 14 11.3749C14 11.6732 13.8815 11.9594 13.6705 12.1704C13.4595 12.3813 13.1734 12.4999 12.875 12.4999ZM14 4.35487L5.75 5.62237V3.37237L14 2.12737V4.35487Z" fill="#626262"/>
</svg>
