<svg width="20" height="21" viewBox="0 0 20 21" fill="none" xmlns="http://www.w3.org/2000/svg">
<path d="M19.0054 0.736328H1.49432C1.23631 0.736328 0.988864 0.838823 0.806422 1.02127C0.623979 1.20371 0.521484 1.45115 0.521484 1.70917V19.2202C0.521484 19.4783 0.623979 19.7257 0.806422 19.9081C0.988864 20.0906 1.23631 20.1931 1.49432 20.1931H19.0054C19.2634 20.1931 19.5109 20.0906 19.6933 19.9081C19.8757 19.7257 19.9782 19.4783 19.9782 19.2202V1.70917C19.9782 1.45115 19.8757 1.20371 19.6933 1.02127C19.5109 0.838823 19.2634 0.736328 19.0054 0.736328ZM6.35851 18.2474H2.46716V14.3561H6.35851V18.2474ZM6.35851 12.4104H2.46716V8.51903H6.35851V12.4104ZM6.35851 6.57335H2.46716V2.682H6.35851V6.57335ZM12.1955 18.2474H8.30418V14.3561H12.1955V18.2474ZM12.1955 12.4104H8.30418V8.51903H12.1955V12.4104ZM12.1955 6.57335H8.30418V2.682H12.1955V6.57335ZM18.0326 18.2474H14.1412V14.3561H18.0326V18.2474ZM18.0326 12.4104H14.1412V8.51903H18.0326V12.4104ZM18.0326 6.57335H14.1412V2.682H18.0326V6.57335Z" fill="#6A6A6A"/>
</svg>
