<svg width="14" height="14" viewBox="0 0 14 14" fill="none" xmlns="http://www.w3.org/2000/svg">
<path d="M12.6626 2.16232C12.8904 1.93451 12.8904 1.56516 12.6626 1.33736C12.4348 1.10955 12.0654 1.10955 11.8376 1.33736L9.33342 3.84155L9.33342 2.9165C9.33342 2.59433 9.07225 2.33317 8.75008 2.33317C8.42792 2.33317 8.16675 2.59434 8.16675 2.9165L8.16675 5.24984C8.16675 5.572 8.42792 5.83317 8.75008 5.83317L11.0834 5.83317C11.4056 5.83317 11.6667 5.572 11.6667 5.24984C11.6667 4.92767 11.4056 4.6665 11.0834 4.6665L10.1584 4.6665L12.6626 2.16232ZM1.3376 12.6623C1.1098 12.4345 1.1098 12.0652 1.3376 11.8374L3.84179 9.33317H2.91675C2.59458 9.33317 2.33342 9.072 2.33342 8.74984C2.33342 8.42767 2.59458 8.1665 2.91675 8.1665H5.25008C5.57225 8.1665 5.83341 8.42767 5.83341 8.74984L5.83342 11.0832C5.83342 11.4053 5.57225 11.6665 5.25008 11.6665C4.92792 11.6665 4.66675 11.4053 4.66675 11.0832L4.66675 10.1581L2.16256 12.6623C1.93475 12.8901 1.56541 12.8901 1.3376 12.6623Z" fill="#434343"/>
</svg>
