<svg width="61" height="60" viewBox="0 0 61 60" fill="none" xmlns="http://www.w3.org/2000/svg">
<path d="M58.9997 1.34778C58.6778 1.07155 58.3002 0.867904 57.8925 0.750704C57.4849 0.633504 57.0568 0.6055 56.6373 0.6686L18.2486 6.57455C17.5495 6.68061 16.9117 7.034 16.4511 7.57048C15.9905 8.10696 15.7377 8.79091 15.7386 9.498V40.0613C14.3589 39.3874 12.8446 39.0341 11.3091 39.0278C9.26498 39.0278 7.26674 39.6339 5.56709 40.7696C3.86744 41.9053 2.54272 43.5194 1.76046 45.408C0.978195 47.2965 0.773519 49.3746 1.17231 51.3795C1.57111 53.3844 2.55546 55.226 4.00089 56.6714C5.44633 58.1168 7.28792 59.1012 9.2928 59.5C11.2977 59.8988 13.3758 59.6941 15.2643 58.9118C17.1529 58.1296 18.7671 56.8049 19.9027 55.1052C21.0384 53.4056 21.6446 51.4073 21.6446 49.3632V26.8024L54.1273 21.8119V34.1553C52.7476 33.4814 51.2333 33.1281 49.6978 33.1218C47.6537 33.1218 45.6554 33.728 43.9558 34.8636C42.2561 35.9993 40.9314 37.6135 40.1491 39.502C39.3669 41.3906 39.1622 43.4687 39.561 45.4736C39.9598 47.4784 40.9441 49.32 42.3896 50.7655C43.835 52.2109 45.6766 53.1952 47.6815 53.594C49.6864 53.9928 51.7645 53.7882 53.653 53.0059C55.5416 52.2236 57.1557 50.8989 58.2914 49.1993C59.4271 47.4996 60.0332 45.5014 60.0332 43.4572V3.59205C60.0333 3.16552 59.9409 2.74404 59.7625 2.35662C59.5841 1.9692 59.3238 1.62503 58.9997 1.34778V1.34778ZM11.3091 53.7926C10.4331 53.7926 9.57668 53.5328 8.84826 53.0461C8.11984 52.5594 7.5521 51.8676 7.21685 51.0583C6.88159 50.2489 6.79387 49.3583 6.96478 48.499C7.1357 47.6398 7.55756 46.8505 8.17703 46.2311C8.7965 45.6116 9.58576 45.1897 10.445 45.0188C11.3042 44.8479 12.1948 44.9356 13.0042 45.2709C13.8136 45.6061 14.5054 46.1739 14.9921 46.9023C15.4788 47.6307 15.7386 48.4871 15.7386 49.3632C15.7386 50.5379 15.2719 51.6646 14.4412 52.4953C13.6106 53.326 12.4839 53.7926 11.3091 53.7926ZM49.6978 47.8867C48.8218 47.8867 47.9654 47.6269 47.2369 47.1402C46.5085 46.6535 45.9408 45.9617 45.6055 45.1523C45.2703 44.3429 45.1826 43.4523 45.3535 42.5931C45.5244 41.7338 45.9462 40.9446 46.5657 40.3251C47.1852 39.7056 47.9744 39.2838 48.8337 39.1129C49.6929 38.942 50.5835 39.0297 51.3929 39.3649C52.2023 39.7002 52.8941 40.2679 53.3808 40.9963C53.8675 41.7248 54.1273 42.5812 54.1273 43.4572C54.1273 44.632 53.6606 45.7586 52.8299 46.5893C51.9992 47.42 50.8726 47.8867 49.6978 47.8867ZM54.1273 15.8174L21.6446 20.8079V11.949L54.1273 7.04703V15.8174Z" fill="#626262"/>
</svg>
