<svg width="110" height="110" viewBox="0 0 110 110" fill="none" xmlns="http://www.w3.org/2000/svg">
<path d="M107.271 2.13301C106.68 1.62631 105.987 1.25276 105.24 1.03778C104.492 0.822798 103.707 0.771431 102.937 0.887175L32.5205 11.7205C31.2382 11.9151 30.0682 12.5633 29.2233 13.5474C28.3784 14.5314 27.9146 15.786 27.9163 17.083V73.1455C25.3855 71.9093 22.6079 71.2612 19.7913 71.2497C16.0417 71.2497 12.3763 72.3616 9.25866 74.4447C6.14098 76.5279 3.71104 79.4888 2.27613 82.953C0.841222 86.4172 0.465784 90.229 1.1973 93.9066C1.92881 97.5842 3.73441 100.962 6.38578 103.614C9.03715 106.265 12.4152 108.071 16.0928 108.802C19.7703 109.534 23.5822 109.158 27.0464 107.723C30.5106 106.288 33.4715 103.858 35.5546 100.741C37.6378 97.623 38.7497 93.9576 38.7497 90.208V48.8247L98.333 39.6705V62.3122C95.8022 61.076 93.0246 60.4279 90.208 60.4163C86.4584 60.4163 82.793 61.5282 79.6753 63.6114C76.5576 65.6946 74.1277 68.6555 72.6928 72.1196C71.2579 75.5838 70.8824 79.3957 71.614 83.0733C72.3455 86.7508 74.1511 90.1289 76.8024 92.7803C79.4538 95.4316 82.8319 97.2372 86.5094 97.9687C90.187 98.7002 93.9989 98.3248 97.4631 96.8899C100.927 95.455 103.888 93.0251 105.971 89.9074C108.054 86.7897 109.166 83.1243 109.166 79.3747V6.24968C109.166 5.46729 108.997 4.69418 108.67 3.98353C108.342 3.27288 107.865 2.64156 107.271 2.13301ZM19.7913 98.333C18.1844 98.333 16.6135 97.8565 15.2773 96.9637C13.9412 96.0709 12.8998 94.802 12.2848 93.3173C11.6699 91.8327 11.509 90.199 11.8225 88.6229C12.136 87.0468 12.9098 85.5991 14.0461 84.4628C15.1824 83.3265 16.6301 82.5526 18.2062 82.2391C19.7823 81.9256 21.416 82.0865 22.9007 82.7015C24.3853 83.3165 25.6543 84.3579 26.547 85.694C27.4398 87.0302 27.9163 88.601 27.9163 90.208C27.9163 92.3629 27.0603 94.4295 25.5366 95.9533C24.0129 97.477 21.9462 98.333 19.7913 98.333ZM90.208 87.4997C88.601 87.4997 87.0302 87.0232 85.694 86.1304C84.3579 85.2376 83.3165 83.9686 82.7015 82.484C82.0865 80.9993 81.9256 79.3657 82.2391 77.7896C82.5526 76.2135 83.3265 74.7657 84.4628 73.6294C85.5991 72.4931 87.0468 71.7193 88.6229 71.4058C90.199 71.0923 91.8327 71.2532 93.3173 71.8682C94.802 72.4831 96.0709 73.5245 96.9637 74.8607C97.8565 76.1968 98.333 77.7677 98.333 79.3747C98.333 81.5296 97.477 83.5962 95.9533 85.1199C94.4295 86.6437 92.3629 87.4997 90.208 87.4997ZM98.333 28.6747L38.7497 37.8288V21.5788L98.333 12.5872V28.6747Z" fill="white"/>
</svg>
