<svg width="20" height="21" viewBox="0 0 20 21" fill="none" xmlns="http://www.w3.org/2000/svg">
<path d="M2.91683 5.13086C2.75201 5.13086 2.5909 5.17973 2.45385 5.2713C2.31681 5.36287 2.21 5.49302 2.14693 5.64529C2.08386 5.79756 2.06735 5.96512 2.09951 6.12677C2.13166 6.28842 2.21103 6.4369 2.32757 6.55345C2.44412 6.66999 2.5926 6.74936 2.75425 6.78151C2.91591 6.81367 3.08346 6.79717 3.23573 6.73409C3.388 6.67102 3.51815 6.56421 3.60972 6.42717C3.70129 6.29013 3.75016 6.12901 3.75016 5.96419C3.75016 5.74318 3.66237 5.53122 3.50609 5.37494C3.34981 5.21866 3.13784 5.13086 2.91683 5.13086ZM6.25016 6.79753H17.9168C18.1378 6.79753 18.3498 6.70973 18.5061 6.55345C18.6624 6.39717 18.7502 6.18521 18.7502 5.96419C18.7502 5.74318 18.6624 5.53122 18.5061 5.37494C18.3498 5.21866 18.1378 5.13086 17.9168 5.13086H6.25016C6.02915 5.13086 5.81719 5.21866 5.66091 5.37494C5.50463 5.53122 5.41683 5.74318 5.41683 5.96419C5.41683 6.18521 5.50463 6.39717 5.66091 6.55345C5.81719 6.70973 6.02915 6.79753 6.25016 6.79753ZM6.25016 9.29753C6.08535 9.29753 5.92423 9.3464 5.78719 9.43797C5.65015 9.52954 5.54334 9.65968 5.48026 9.81196C5.41719 9.96423 5.40069 10.1318 5.43284 10.2934C5.465 10.4551 5.54436 10.6036 5.66091 10.7201C5.77745 10.8367 5.92594 10.916 6.08759 10.9482C6.24924 10.9803 6.41679 10.9638 6.56907 10.9008C6.72134 10.8377 6.85149 10.7309 6.94305 10.5938C7.03462 10.4568 7.0835 10.2957 7.0835 10.1309C7.0835 9.90985 6.9957 9.69788 6.83942 9.5416C6.68314 9.38532 6.47118 9.29753 6.25016 9.29753ZM9.5835 13.4642C9.41868 13.4642 9.25756 13.5131 9.12052 13.6046C8.98348 13.6962 8.87667 13.8264 8.8136 13.9786C8.75052 14.1309 8.73402 14.2985 8.76618 14.4601C8.79833 14.6218 8.8777 14.7702 8.99424 14.8868C9.11079 15.0033 9.25927 15.0827 9.42092 15.1148C9.58257 15.147 9.75013 15.1305 9.9024 15.0674C10.0547 15.0044 10.1848 14.8975 10.2764 14.7605C10.368 14.6235 10.4168 14.4623 10.4168 14.2975C10.4168 14.0765 10.329 13.8646 10.1728 13.7083C10.0165 13.552 9.80451 13.4642 9.5835 13.4642ZM17.9168 9.29753H9.5835C9.36248 9.29753 9.15052 9.38532 8.99424 9.5416C8.83796 9.69788 8.75016 9.90985 8.75016 10.1309C8.75016 10.3519 8.83796 10.5638 8.99424 10.7201C9.15052 10.8764 9.36248 10.9642 9.5835 10.9642H17.9168C18.1378 10.9642 18.3498 10.8764 18.5061 10.7201C18.6624 10.5638 18.7502 10.3519 18.7502 10.1309C18.7502 9.90985 18.6624 9.69788 18.5061 9.5416C18.3498 9.38532 18.1378 9.29753 17.9168 9.29753ZM17.9168 13.4642H12.9168C12.6958 13.4642 12.4839 13.552 12.3276 13.7083C12.1713 13.8646 12.0835 14.0765 12.0835 14.2975C12.0835 14.5185 12.1713 14.7305 12.3276 14.8868C12.4839 15.0431 12.6958 15.1309 12.9168 15.1309H17.9168C18.1378 15.1309 18.3498 15.0431 18.5061 14.8868C18.6624 14.7305 18.7502 14.5185 18.7502 14.2975C18.7502 14.0765 18.6624 13.8646 18.5061 13.7083C18.3498 13.552 18.1378 13.4642 17.9168 13.4642Z" fill="#717171"/>
</svg>
