<svg width="16" height="17" viewBox="0 0 16 17" fill="none" xmlns="http://www.w3.org/2000/svg">
<path d="M1.66661 6.03859L7.66661 9.50525C7.76795 9.56377 7.88291 9.59457 7.99994 9.59457C8.11696 9.59457 8.23193 9.56377 8.33327 9.50525L14.3333 6.03859C14.434 5.98042 14.5178 5.89689 14.5763 5.79631C14.6348 5.69573 14.6659 5.5816 14.6666 5.46525C14.6671 5.34778 14.6365 5.23227 14.578 5.13042C14.5194 5.02857 14.435 4.94399 14.3333 4.88525L8.33327 1.42525C8.23193 1.36674 8.11696 1.33594 7.99994 1.33594C7.88291 1.33594 7.76795 1.36674 7.66661 1.42525L1.66661 4.88525C1.56487 4.94399 1.48046 5.02857 1.42192 5.13042C1.36339 5.23227 1.33281 5.34778 1.33327 5.46525C1.33397 5.5816 1.36511 5.69573 1.42359 5.79631C1.48207 5.89689 1.56585 5.98042 1.66661 6.03859ZM7.99994 2.79859L12.6666 5.46525L7.99994 8.13192L3.33327 5.46525L7.99994 2.79859ZM13.6666 7.57859L7.99994 10.7986L2.33327 7.55192C2.25718 7.50784 2.17313 7.47925 2.08594 7.4678C1.99875 7.45634 1.91016 7.46225 1.82527 7.48517C1.74038 7.5081 1.66086 7.5476 1.59129 7.60139C1.52173 7.65518 1.46349 7.7222 1.41994 7.79859C1.33302 7.95167 1.31018 8.13291 1.35639 8.30276C1.4026 8.47262 1.51412 8.61731 1.66661 8.70525L7.66661 12.1719C7.76795 12.2304 7.88291 12.2612 7.99994 12.2612C8.11696 12.2612 8.23193 12.2304 8.33327 12.1719L14.3333 8.70525C14.4858 8.61731 14.5973 8.47262 14.6435 8.30276C14.6897 8.13291 14.6669 7.95167 14.5799 7.79859C14.5364 7.7222 14.4781 7.65518 14.4086 7.60139C14.339 7.5476 14.2595 7.5081 14.1746 7.48517C14.0897 7.46225 14.0011 7.45634 13.9139 7.4678C13.8268 7.47925 13.7427 7.50784 13.6666 7.55192V7.57859ZM13.6666 10.2453L7.99994 13.4653L2.33327 10.2186C2.25718 10.1745 2.17313 10.1459 2.08594 10.1345C1.99875 10.123 1.91016 10.1289 1.82527 10.1518C1.74038 10.1748 1.66086 10.2143 1.59129 10.2681C1.52173 10.3218 1.46349 10.3889 1.41994 10.4653C1.33302 10.6183 1.31018 10.7996 1.35639 10.9694C1.4026 11.1393 1.51412 11.284 1.66661 11.3719L7.66661 14.8386C7.76795 14.8971 7.88291 14.9279 7.99994 14.9279C8.11696 14.9279 8.23193 14.8971 8.33327 14.8386L14.3333 11.3719C14.4858 11.284 14.5973 11.1393 14.6435 10.9694C14.6897 10.7996 14.6669 10.6183 14.5799 10.4653C14.5364 10.3889 14.4781 10.3218 14.4086 10.2681C14.339 10.2143 14.2595 10.1748 14.1746 10.1518C14.0897 10.1289 14.0011 10.123 13.9139 10.1345C13.8268 10.1459 13.7427 10.1745 13.6666 10.2186V10.2453Z" fill="#717171"/>
</svg>
