<svg width="15" height="15" viewBox="0 0 15 15" fill="none" xmlns="http://www.w3.org/2000/svg">
<path d="M4.68751 3.75001C4.50209 3.75001 4.32083 3.80499 4.16666 3.90801C4.01249 4.01102 3.89233 4.15744 3.82137 4.32874C3.75042 4.50005 3.73185 4.68855 3.76802 4.87041C3.8042 5.05226 3.89349 5.21931 4.0246 5.35042C4.15571 5.48153 4.32276 5.57082 4.50461 5.607C4.68647 5.64317 4.87497 5.6246 5.04628 5.55365C5.21758 5.48269 5.364 5.36253 5.46701 5.20836C5.57003 5.05419 5.62501 4.87293 5.62501 4.68751C5.62501 4.43887 5.52624 4.20041 5.35042 4.0246C5.17461 3.84878 4.93615 3.75001 4.68751 3.75001V3.75001ZM13.2 6.69376L7.94376 1.43126C7.88536 1.37333 7.8161 1.32751 7.73995 1.2964C7.6638 1.2653 7.58226 1.24953 7.50001 1.25001H1.87501C1.70925 1.25001 1.55028 1.31586 1.43307 1.43307C1.31586 1.55028 1.25001 1.70925 1.25001 1.87501V7.50001C1.24953 7.58226 1.2653 7.6638 1.2964 7.73995C1.32751 7.8161 1.37333 7.88536 1.43126 7.94376L6.69376 13.2C7.04532 13.5511 7.52188 13.7484 8.01876 13.7484C8.51564 13.7484 8.9922 13.5511 9.34376 13.2L13.2 9.37501C13.5511 9.02345 13.7484 8.54689 13.7484 8.05001C13.7484 7.55313 13.5511 7.07657 13.2 6.72501V6.69376ZM12.3188 8.45626L8.45626 12.3125C8.33916 12.4289 8.18075 12.4943 8.01564 12.4943C7.85052 12.4943 7.69211 12.4289 7.57501 12.3125L2.50001 7.24376V2.50001H7.24376L12.3188 7.57501C12.3767 7.63341 12.4225 7.70267 12.4536 7.77882C12.4847 7.85497 12.5005 7.93651 12.5 8.01876C12.4993 8.18272 12.4342 8.33985 12.3188 8.45626V8.45626Z" fill="black"/>
</svg>
