<svg width="88" height="88" viewBox="0 0 88 88" fill="none" xmlns="http://www.w3.org/2000/svg">
    <path d="M44.0003 39.666C42.8511 39.666 41.7489 40.1226 40.9362 40.9352C40.1236 41.7479 39.667 42.8501 39.667 43.9994V61.3327C39.667 62.482 40.1236 63.5842 40.9362 64.3968C41.7489 65.2095 42.8511 65.666 44.0003 65.666C45.1496 65.666 46.2518 65.2095 47.0645 64.3968C47.8771 63.5842 48.3337 62.482 48.3337 61.3327V43.9994C48.3337 42.8501 47.8771 41.7479 47.0645 40.9352C46.2518 40.1226 45.1496 39.666 44.0003 39.666ZM45.647 22.6793C44.592 22.2459 43.4087 22.2459 42.3537 22.6793C41.8218 22.8856 41.3358 23.1948 40.9237 23.5893C40.5409 24.0106 40.2331 24.4942 40.0137 25.0194C39.7711 25.5336 39.6524 26.0976 39.667 26.666C39.6637 27.2363 39.773 27.8016 39.9887 28.3296C40.2043 28.8576 40.5221 29.3378 40.9237 29.7427C41.3449 30.1255 41.8285 30.4332 42.3537 30.6527C43.0102 30.9224 43.7229 31.0267 44.4291 30.9565C45.1354 30.8863 45.8136 30.6437 46.4041 30.25C46.9946 29.8563 47.4794 29.3236 47.8159 28.6987C48.1523 28.0737 48.3301 27.3757 48.3337 26.666C48.3177 25.5187 47.8689 24.4198 47.077 23.5893C46.6649 23.1948 46.1789 22.8856 45.647 22.6793ZM44.0003 0.666016C35.4298 0.666016 27.0518 3.20747 19.9256 7.969C12.7995 12.7305 7.24536 19.4983 3.96557 27.4164C0.685768 35.3345 -0.172377 44.0474 1.49965 52.4533C3.17168 60.8591 7.29878 68.5804 13.3591 74.6406C19.4193 80.7009 27.1406 84.828 35.5464 86.5001C43.9523 88.1721 52.6652 87.3139 60.5833 84.0341C68.5014 80.7543 75.2692 75.2002 80.0307 68.0741C84.7922 60.9479 87.3337 52.5699 87.3337 43.9994C87.3337 38.3087 86.2128 32.6738 84.0351 27.4164C81.8574 22.159 78.6655 17.3819 74.6416 13.3581C70.6178 9.33418 65.8407 6.14227 60.5833 3.96457C55.3259 1.78687 49.691 0.666016 44.0003 0.666016ZM44.0003 78.666C37.1439 78.666 30.4415 76.6329 24.7406 72.8236C19.0397 69.0144 14.5964 63.6002 11.9725 57.2657C9.34868 50.9312 8.66217 43.9609 9.99979 37.2362C11.3374 30.5115 14.6391 24.3345 19.4873 19.4863C24.3355 14.6381 30.5125 11.3364 37.2372 9.99879C43.9619 8.66117 50.9322 9.34769 57.2667 11.9715C63.6012 14.5954 69.0154 19.0387 72.8246 24.7396C76.6338 30.4405 78.667 37.1429 78.667 43.9994C78.667 53.1935 75.0146 62.0111 68.5134 68.5124C62.0121 75.0136 53.1945 78.666 44.0003 78.666Z" fill="black"/>
    </svg>
    