<svg width="10" height="16" viewBox="0 0 10 16" fill="none" xmlns="http://www.w3.org/2000/svg">
<path d="M6.5 7.25H5.75V4.25H7.25C7.44891 4.25 7.63968 4.32902 7.78033 4.46967C7.92098 4.61032 8 4.80109 8 5C8 5.19891 8.07902 5.38968 8.21967 5.53033C8.36032 5.67098 8.55109 5.75 8.75 5.75C8.94891 5.75 9.13968 5.67098 9.28033 5.53033C9.42098 5.38968 9.5 5.19891 9.5 5C9.5 4.40326 9.26295 3.83097 8.84099 3.40901C8.41903 2.98705 7.84674 2.75 7.25 2.75H5.75V1.25C5.75 1.05109 5.67098 0.860322 5.53033 0.71967C5.38968 0.579018 5.19891 0.5 5 0.5C4.80109 0.5 4.61032 0.579018 4.46967 0.71967C4.32902 0.860322 4.25 1.05109 4.25 1.25V2.75H3.5C2.70435 2.75 1.94129 3.06607 1.37868 3.62868C0.81607 4.19129 0.5 4.95435 0.5 5.75C0.5 6.54565 0.81607 7.30871 1.37868 7.87132C1.94129 8.43393 2.70435 8.75 3.5 8.75H4.25V11.75H2.75C2.55109 11.75 2.36032 11.671 2.21967 11.5303C2.07902 11.3897 2 11.1989 2 11C2 10.8011 1.92098 10.6103 1.78033 10.4697C1.63968 10.329 1.44891 10.25 1.25 10.25C1.05109 10.25 0.860322 10.329 0.71967 10.4697C0.579018 10.6103 0.5 10.8011 0.5 11C0.5 11.5967 0.737053 12.169 1.15901 12.591C1.58097 13.0129 2.15326 13.25 2.75 13.25H4.25V14.75C4.25 14.9489 4.32902 15.1397 4.46967 15.2803C4.61032 15.421 4.80109 15.5 5 15.5C5.19891 15.5 5.38968 15.421 5.53033 15.2803C5.67098 15.1397 5.75 14.9489 5.75 14.75V13.25H6.5C7.29565 13.25 8.05871 12.9339 8.62132 12.3713C9.18393 11.8087 9.5 11.0456 9.5 10.25C9.5 9.45435 9.18393 8.69129 8.62132 8.12868C8.05871 7.56607 7.29565 7.25 6.5 7.25ZM4.25 7.25H3.5C3.10218 7.25 2.72064 7.09196 2.43934 6.81066C2.15804 6.52936 2 6.14782 2 5.75C2 5.35218 2.15804 4.97064 2.43934 4.68934C2.72064 4.40804 3.10218 4.25 3.5 4.25H4.25V7.25ZM6.5 11.75H5.75V8.75H6.5C6.89782 8.75 7.27936 8.90804 7.56066 9.18934C7.84196 9.47064 8 9.85218 8 10.25C8 10.6478 7.84196 11.0294 7.56066 11.3107C7.27936 11.592 6.89782 11.75 6.5 11.75Z" fill="#616161"/>
</svg>
