<svg width="24" height="24" viewBox="0 0 24 24" fill="none" xmlns="http://www.w3.org/2000/svg">
<path d="M11.8744 8.19619C11.303 7.90324 10.6542 7.79681 10.0191 7.89188C9.38413 7.98696 8.7949 8.27875 8.33438 8.72619C7.77258 9.28869 7.45702 10.0512 7.45702 10.8462C7.45702 11.6412 7.77258 12.4037 8.33438 12.9662L11.1644 15.8462C11.2573 15.9399 11.3679 16.0143 11.4898 16.0651C11.6117 16.1159 11.7424 16.142 11.8744 16.142C12.0064 16.142 12.1371 16.1159 12.259 16.0651C12.3808 16.0143 12.4914 15.9399 12.5844 15.8462L15.4144 13.0162C15.9762 12.4537 16.2917 11.6912 16.2917 10.8962C16.2917 10.1012 15.9762 9.33869 15.4144 8.77619C14.9596 8.32058 14.3732 8.01945 13.7379 7.91537C13.1026 7.81129 12.4507 7.90952 11.8744 8.19619ZM13.9944 11.5562L11.8744 13.6762L9.75438 11.5562C9.66065 11.4632 9.58626 11.3526 9.53549 11.2308C9.48472 11.1089 9.45858 10.9782 9.45858 10.8462C9.45858 10.7142 9.48472 10.5835 9.53549 10.4616C9.58626 10.3398 9.66065 10.2292 9.75438 10.1362C9.94174 9.94994 10.1952 9.8454 10.4594 9.8454C10.7236 9.8454 10.977 9.94994 11.1644 10.1362C11.2573 10.2299 11.3679 10.3043 11.4898 10.3551C11.6117 10.4059 11.7424 10.432 11.8744 10.432C12.0064 10.432 12.1371 10.4059 12.259 10.3551C12.3808 10.3043 12.4914 10.2299 12.5844 10.1362C12.7717 9.94994 13.0252 9.8454 13.2894 9.8454C13.5536 9.8454 13.807 9.94994 13.9944 10.1362C14.0881 10.2292 14.1625 10.3398 14.2133 10.4616C14.264 10.5835 14.2902 10.7142 14.2902 10.8462C14.2902 10.9782 14.264 11.1089 14.2133 11.2308C14.1625 11.3526 14.0881 11.4632 13.9944 11.5562ZM11.8744 1.84619C10.5612 1.84619 9.2608 2.10485 8.04754 2.6074C6.83429 3.10994 5.7319 3.84654 4.80331 4.77512C2.92795 6.65049 1.87438 9.19403 1.87438 11.8462C1.86564 14.1553 2.66517 16.3947 4.13438 18.1762L2.13438 20.1762C1.99562 20.3168 1.90162 20.4954 1.86425 20.6894C1.82688 20.8834 1.8478 21.0841 1.92438 21.2662C2.00744 21.4461 2.14208 21.5973 2.31122 21.7006C2.48037 21.8038 2.67638 21.8545 2.87438 21.8462H11.8744C14.5265 21.8462 17.0701 20.7926 18.9454 18.9173C20.8208 17.0419 21.8744 14.4984 21.8744 11.8462C21.8744 9.19403 20.8208 6.65049 18.9454 4.77512C17.0701 2.89976 14.5265 1.84619 11.8744 1.84619ZM11.8744 19.8462H5.28438L6.21438 18.9162C6.40063 18.7288 6.50517 18.4754 6.50517 18.2112C6.50517 17.947 6.40063 17.6936 6.21438 17.5062C4.90496 16.1982 4.08955 14.4767 3.90707 12.635C3.72459 10.7932 4.18632 8.9452 5.2136 7.40571C6.24089 5.86623 7.77017 4.73055 9.54089 4.19216C11.3116 3.65378 13.2142 3.746 14.9246 4.4531C16.635 5.16021 18.0472 6.43847 18.9208 8.07008C19.7944 9.7017 20.0752 11.5857 19.7155 13.4012C19.3558 15.2167 18.3777 16.8512 16.9479 18.0264C15.5181 19.2016 13.7251 19.8447 11.8744 19.8462Z" fill="#444444"/>
</svg>
