<svg width="21" height="20" viewBox="0 0 21 20" fill="none" xmlns="http://www.w3.org/2000/svg">
<path d="M13.0576 6.41472L15.9397 3.53264M17.5866 1.88574L15.9397 3.53264L17.5866 1.88574ZM9.67321 9.7991C10.0984 10.2186 10.4364 10.7181 10.6677 11.2688C10.8991 11.8195 11.0192 12.4105 11.0212 13.0078C11.0232 13.6051 10.907 14.1969 10.6794 14.7491C10.4517 15.3013 10.1171 15.8031 9.69473 16.2254C9.27238 16.6478 8.77064 16.9824 8.21842 17.2101C7.6662 17.4377 7.0744 17.5539 6.47709 17.5519C5.87979 17.5499 5.28878 17.4298 4.73809 17.1984C4.18741 16.9671 3.68793 16.6291 3.26841 16.2039C2.44342 15.3497 1.98692 14.2057 1.99724 13.0182C2.00756 11.8307 2.48387 10.6948 3.32358 9.85509C4.16329 9.01538 5.29921 8.53908 6.48669 8.52876C7.67418 8.51844 8.81821 8.97493 9.67238 9.79992L9.67321 9.7991ZM9.67321 9.7991L13.0576 6.41472L9.67321 9.7991ZM13.0576 6.41472L15.5279 8.88507L18.41 6.00299L15.9397 3.53264L13.0576 6.41472Z" stroke="#424242" stroke-width="1.6469" stroke-linecap="round" stroke-linejoin="round"/>
</svg>
    