<svg width="13" height="13" viewBox="0 0 13 13" fill="none" xmlns="http://www.w3.org/2000/svg">
<path d="M8.66699 11.375V10.2917C8.66699 9.71703 8.43872 9.16593 8.03239 8.7596C7.62606 8.35327 7.07496 8.125 6.50033 8.125H2.70866C2.13402 8.125 1.58292 8.35327 1.17659 8.7596C0.770265 9.16593 0.541992 9.71703 0.541992 10.2917V11.375" stroke="#101010" stroke-width="1.08333" stroke-linecap="round" stroke-linejoin="round"/>
<path d="M12.458 5.95833H9.20801" stroke="#101010" stroke-width="1.08333" stroke-linecap="round" stroke-linejoin="round"/>
<path d="M4.60417 5.95833C5.80078 5.95833 6.77083 4.98828 6.77083 3.79167C6.77083 2.59505 5.80078 1.625 4.60417 1.625C3.40755 1.625 2.4375 2.59505 2.4375 3.79167C2.4375 4.98828 3.40755 5.95833 4.60417 5.95833Z" stroke="#101010" stroke-width="1.08333" stroke-linecap="round" stroke-linejoin="round"/>
</svg>
