<?xml version="1.0" encoding="utf-8"?>
<!-- Generator: Adobe Illustrator 26.0.3, SVG Export Plug-In . SVG Version: 6.00 Build 0)  -->
<svg version="1.1" id="Layer_1" xmlns="http://www.w3.org/2000/svg" xmlns:xlink="http://www.w3.org/1999/xlink" x="0px" y="0px"
	 viewBox="0 0 20 20" style="enable-background:new 0 0 20 20;" xml:space="preserve">
<style type="text/css">
	.st0{fill:#EFEFEF;}
</style>
<path class="st0" d="M17,18H3c-0.3,0-0.5,0.1-0.7,0.3C2.1,18.5,2,18.7,2,19s0.1,0.5,0.3,0.7C2.5,19.9,2.7,20,3,20h14
	c0.3,0,0.5-0.1,0.7-0.3c0.2-0.2,0.3-0.4,0.3-0.7s-0.1-0.5-0.3-0.7C17.5,18.1,17.3,18,17,18z M6.7,5.7L9,3.4V15
	c0,0.3,0.1,0.5,0.3,0.7S9.7,16,10,16s0.5-0.1,0.7-0.3S11,15.3,11,15V3.4l2.3,2.3c0.1,0.1,0.2,0.2,0.3,0.2C13.7,6,13.9,6,14,6
	s0.3,0,0.4-0.1c0.1-0.1,0.2-0.1,0.3-0.2s0.2-0.2,0.2-0.3C15,5.3,15,5.1,15,5s0-0.3-0.1-0.4s-0.1-0.2-0.2-0.3l-4-4
	c-0.1-0.1-0.2-0.2-0.3-0.2C10.1,0,9.9,0,9.6,0.1c-0.1,0-0.2,0.1-0.3,0.2l-4,4C5.2,4.4,5.1,4.5,5.1,4.6S5,4.9,5,5s0,0.3,0.1,0.4
	s0.1,0.2,0.2,0.3c0.1,0.1,0.2,0.2,0.3,0.2C5.7,6,5.9,6,6,6s0.3,0,0.4-0.1C6.5,5.9,6.6,5.8,6.7,5.7z"/>
</svg>
