<svg width="167" height="24" viewBox="0 0 167 24" fill="none" xmlns="http://www.w3.org/2000/svg">
<path d="M7.91781 16.2192C6.58447 16.2192 5.39726 15.9909 4.35616 15.5342C3.31507 15.0776 2.49315 14.4566 1.89041 13.6712C1.28767 12.8676 0.949772 11.9726 0.876712 10.9863H5.50685C5.56164 11.516 5.80822 11.9452 6.24658 12.274C6.68493 12.6027 7.22374 12.7671 7.86301 12.7671C8.44749 12.7671 8.89498 12.6575 9.20548 12.4384C9.53425 12.2009 9.69863 11.8995 9.69863 11.5342C9.69863 11.0959 9.47032 10.7763 9.0137 10.5753C8.55708 10.3562 7.81735 10.1187 6.79452 9.86301C5.69863 9.60731 4.78539 9.34247 4.05479 9.06849C3.3242 8.77626 2.69406 8.32877 2.16438 7.72603C1.6347 7.10502 1.36986 6.27397 1.36986 5.23288C1.36986 4.35616 1.60731 3.56164 2.08219 2.84932C2.57534 2.11872 3.28767 1.54338 4.21918 1.12329C5.16895 0.703196 6.29224 0.49315 7.58904 0.49315C9.50685 0.49315 11.0137 0.968037 12.1096 1.91781C13.2237 2.86758 13.863 4.12785 14.0274 5.69863H9.69863C9.62557 5.16895 9.38813 4.74886 8.9863 4.43836C8.60274 4.12785 8.09132 3.9726 7.45205 3.9726C6.90411 3.9726 6.48402 4.08219 6.19178 4.30137C5.89954 4.50228 5.75342 4.78539 5.75342 5.15068C5.75342 5.58904 5.98174 5.91781 6.43836 6.13699C6.91324 6.35616 7.64384 6.57534 8.63014 6.79452C9.76256 7.08676 10.6849 7.379 11.3973 7.67123C12.1096 7.94521 12.7306 8.40183 13.2603 9.0411C13.8082 9.6621 14.0913 10.5023 14.1096 11.5616C14.1096 12.4566 13.8539 13.2603 13.3425 13.9726C12.8493 14.6667 12.1279 15.2146 11.1781 15.6164C10.2466 16.0183 9.15982 16.2192 7.91781 16.2192ZM32.0717 0.712329V16H27.3868V13.9178C26.9119 14.5936 26.2635 15.1416 25.4416 15.5616C24.6379 15.9635 23.7429 16.1644 22.7566 16.1644C21.5877 16.1644 20.5557 15.9087 19.6607 15.3973C18.7658 14.8676 18.0717 14.1096 17.5786 13.1233C17.0854 12.137 16.8388 10.9772 16.8388 9.64384V0.712329H21.4964V9.0137C21.4964 10.0365 21.7612 10.8311 22.2909 11.3973C22.8206 11.9635 23.5329 12.2466 24.4279 12.2466C25.3411 12.2466 26.0626 11.9635 26.5923 11.3973C27.1219 10.8311 27.3868 10.0365 27.3868 9.0137V0.712329H32.0717ZM40.1218 2.87671C40.5784 2.16438 41.2085 1.58904 42.0122 1.15068C42.8159 0.712328 43.7565 0.49315 44.8341 0.49315C46.0944 0.49315 47.2359 0.812785 48.2588 1.45206C49.2816 2.09132 50.0853 3.00457 50.6697 4.19178C51.2725 5.379 51.5738 6.75799 51.5738 8.32877C51.5738 9.89954 51.2725 11.2877 50.6697 12.4932C50.0853 13.6804 49.2816 14.6027 48.2588 15.2603C47.2359 15.8995 46.0944 16.2192 44.8341 16.2192C43.7748 16.2192 42.8341 16 42.0122 15.5616C41.2085 15.1233 40.5784 14.5571 40.1218 13.863V23.2877H35.4369V0.712329H40.1218V2.87671ZM46.8067 8.32877C46.8067 7.15982 46.478 6.24658 45.8204 5.58904C45.1812 4.91324 44.3866 4.57534 43.4369 4.57534C42.5054 4.57534 41.7108 4.91324 41.0533 5.58904C40.414 6.26484 40.0944 7.18721 40.0944 8.35616C40.0944 9.52511 40.414 10.4475 41.0533 11.1233C41.7108 11.7991 42.5054 12.137 43.4369 12.137C44.3684 12.137 45.1629 11.7991 45.8204 11.1233C46.478 10.4292 46.8067 9.49772 46.8067 8.32877ZM68.4426 8.10959C68.4426 8.54795 68.4152 9.00457 68.3604 9.47945H57.7577C57.8308 10.4292 58.1321 11.1598 58.6618 11.6712C59.2098 12.1644 59.8764 12.411 60.6618 12.411C61.8308 12.411 62.6435 11.9178 63.1002 10.9315H68.0865C67.8308 11.9361 67.365 12.8402 66.6892 13.6438C66.0317 14.4475 65.2006 15.0776 64.1961 15.5342C63.1915 15.9909 62.0682 16.2192 60.8262 16.2192C59.3285 16.2192 57.9951 15.8995 56.8262 15.2603C55.6572 14.621 54.744 13.7078 54.0865 12.5205C53.4289 11.3333 53.1002 9.94521 53.1002 8.35616C53.1002 6.76712 53.4198 5.379 54.0591 4.19178C54.7166 3.00457 55.6298 2.09132 56.7988 1.45206C57.9677 0.812785 59.3102 0.49315 60.8262 0.49315C62.3056 0.49315 63.6207 0.803653 64.7714 1.42466C65.9221 2.04566 66.8171 2.93151 67.4563 4.08219C68.1139 5.23288 68.4426 6.57534 68.4426 8.10959ZM63.6481 6.87671C63.6481 6.07306 63.3741 5.43379 62.8262 4.9589C62.2783 4.48402 61.5933 4.24658 60.7714 4.24658C59.986 4.24658 59.3193 4.47489 58.7714 4.93151C58.2417 5.38813 57.913 6.03653 57.7851 6.87671H63.6481ZM75.5991 3.26027C76.147 2.42009 76.832 1.76256 77.6539 1.28767C78.4758 0.794521 79.3891 0.547946 80.3936 0.547946V5.50685H79.1059C77.937 5.50685 77.0603 5.76256 76.4758 6.27397C75.8913 6.76712 75.5991 7.64384 75.5991 8.90411V16H70.9142V0.712329H75.5991V3.26027ZM91.948 0.547946C93.7379 0.547946 95.1626 1.13242 96.222 2.30137C97.2996 3.45206 97.8384 5.0411 97.8384 7.06849V16H93.1809V7.69863C93.1809 6.6758 92.916 5.88128 92.3863 5.31507C91.8567 4.74886 91.1443 4.46575 90.2494 4.46575C89.3544 4.46575 88.6421 4.74886 88.1124 5.31507C87.5827 5.88128 87.3178 6.6758 87.3178 7.69863V16H82.6329V0.712329H87.3178V2.73973C87.7927 2.06393 88.432 1.53425 89.2357 1.15068C90.0393 0.748859 90.9434 0.547946 91.948 0.547946ZM108.053 16.2192C106.555 16.2192 105.204 15.8995 103.998 15.2603C102.811 14.621 101.87 13.7078 101.176 12.5205C100.5 11.3333 100.162 9.94521 100.162 8.35616C100.162 6.78539 100.509 5.40639 101.204 4.21918C101.898 3.0137 102.847 2.09132 104.053 1.45206C105.258 0.812785 106.61 0.49315 108.108 0.49315C109.605 0.49315 110.957 0.812785 112.162 1.45206C113.368 2.09132 114.318 3.0137 115.012 4.21918C115.706 5.40639 116.053 6.78539 116.053 8.35616C116.053 9.92694 115.697 11.3151 114.984 12.5205C114.29 13.7078 113.331 14.621 112.108 15.2603C110.902 15.8995 109.551 16.2192 108.053 16.2192ZM108.053 12.1644C108.948 12.1644 109.706 11.8356 110.327 11.1781C110.966 10.5205 111.286 9.57991 111.286 8.35616C111.286 7.13242 110.975 6.19178 110.354 5.53425C109.751 4.87671 109.003 4.54795 108.108 4.54795C107.194 4.54795 106.436 4.87671 105.834 5.53425C105.231 6.17352 104.93 7.11416 104.93 8.35616C104.93 9.57991 105.222 10.5205 105.806 11.1781C106.409 11.8356 107.158 12.1644 108.053 12.1644ZM125.415 11.6164L128.73 0.712329H133.716L128.292 16H122.511L117.086 0.712329H122.1L125.415 11.6164ZM134.757 8.32877C134.757 6.75799 135.049 5.379 135.634 4.19178C136.236 3.00457 137.049 2.09132 138.072 1.45206C139.095 0.812785 140.236 0.49315 141.497 0.49315C142.574 0.49315 143.515 0.712328 144.318 1.15068C145.14 1.58904 145.771 2.16438 146.209 2.87671V0.712329H150.894V16H146.209V13.8356C145.752 14.5479 145.113 15.1233 144.291 15.5616C143.487 16 142.547 16.2192 141.469 16.2192C140.227 16.2192 139.095 15.8995 138.072 15.2603C137.049 14.6027 136.236 13.6804 135.634 12.4932C135.049 11.2877 134.757 9.89954 134.757 8.32877ZM146.209 8.35616C146.209 7.18721 145.88 6.26484 145.223 5.58904C144.583 4.91324 143.798 4.57534 142.866 4.57534C141.935 4.57534 141.14 4.91324 140.483 5.58904C139.844 6.24658 139.524 7.15982 139.524 8.32877C139.524 9.49772 139.844 10.4292 140.483 11.1233C141.14 11.7991 141.935 12.137 142.866 12.137C143.798 12.137 144.583 11.7991 145.223 11.1233C145.88 10.4475 146.209 9.52511 146.209 8.35616ZM160.502 16.2192C159.169 16.2192 157.982 15.9909 156.941 15.5342C155.9 15.0776 155.078 14.4566 154.475 13.6712C153.872 12.8676 153.534 11.9726 153.461 10.9863H158.091C158.146 11.516 158.393 11.9452 158.831 12.274C159.269 12.6027 159.808 12.7671 160.448 12.7671C161.032 12.7671 161.48 12.6575 161.79 12.4384C162.119 12.2009 162.283 11.8995 162.283 11.5342C162.283 11.0959 162.055 10.7763 161.598 10.5753C161.142 10.3562 160.402 10.1187 159.379 9.86301C158.283 9.60731 157.37 9.34247 156.639 9.06849C155.909 8.77626 155.279 8.32877 154.749 7.72603C154.219 7.10502 153.954 6.27397 153.954 5.23288C153.954 4.35616 154.192 3.56164 154.667 2.84932C155.16 2.11872 155.872 1.54338 156.804 1.12329C157.753 0.703196 158.877 0.49315 160.174 0.49315C162.091 0.49315 163.598 0.968037 164.694 1.91781C165.808 2.86758 166.448 4.12785 166.612 5.69863H162.283C162.21 5.16895 161.973 4.74886 161.571 4.43836C161.187 4.12785 160.676 3.9726 160.037 3.9726C159.489 3.9726 159.069 4.08219 158.776 4.30137C158.484 4.50228 158.338 4.78539 158.338 5.15068C158.338 5.58904 158.566 5.91781 159.023 6.13699C159.498 6.35616 160.228 6.57534 161.215 6.79452C162.347 7.08676 163.269 7.379 163.982 7.67123C164.694 7.94521 165.315 8.40183 165.845 9.0411C166.393 9.6621 166.676 10.5023 166.694 11.5616C166.694 12.4566 166.438 13.2603 165.927 13.9726C165.434 14.6667 164.712 15.2146 163.763 15.6164C162.831 16.0183 161.744 16.2192 160.502 16.2192Z" fill="#A5A5A5"/>
</svg>
    