<svg width="20" height="20" viewBox="0 0 20 20" fill="none" xmlns="http://www.w3.org/2000/svg">
<path d="M5.00004 9.1665C4.83522 9.1665 4.67411 9.21538 4.53707 9.30695C4.40002 9.39851 4.29321 9.52866 4.23014 9.68093C4.16707 9.83321 4.15057 10.0008 4.18272 10.1624C4.21487 10.3241 4.29424 10.4725 4.41079 10.5891C4.52733 10.7056 4.67581 10.785 4.83747 10.8172C4.99912 10.8493 5.16667 10.8328 5.31894 10.7697C5.47122 10.7067 5.60136 10.5999 5.69293 10.4628C5.7845 10.3258 5.83337 10.1647 5.83337 9.99984C5.83337 9.77882 5.74558 9.56686 5.5893 9.41058C5.43302 9.2543 5.22105 9.1665 5.00004 9.1665ZM15 9.1665C14.8352 9.1665 14.6741 9.21538 14.5371 9.30695C14.4 9.39851 14.2932 9.52866 14.2301 9.68093C14.1671 9.83321 14.1506 10.0008 14.1827 10.1624C14.2149 10.3241 14.2942 10.4725 14.4108 10.5891C14.5273 10.7056 14.6758 10.785 14.8375 10.8172C14.9991 10.8493 15.1667 10.8328 15.3189 10.7697C15.4712 10.7067 15.6014 10.5999 15.6929 10.4628C15.7845 10.3258 15.8334 10.1647 15.8334 9.99984C15.8334 9.77882 15.7456 9.56686 15.5893 9.41058C15.433 9.2543 15.2211 9.1665 15 9.1665ZM16.6667 4.1665H3.33337C2.67033 4.1665 2.03445 4.4299 1.56561 4.89874C1.09677 5.36758 0.833374 6.00346 0.833374 6.6665V13.3332C0.833374 13.9962 1.09677 14.6321 1.56561 15.1009C2.03445 15.5698 2.67033 15.8332 3.33337 15.8332H16.6667C17.3298 15.8332 17.9656 15.5698 18.4345 15.1009C18.9033 14.6321 19.1667 13.9962 19.1667 13.3332V6.6665C19.1667 6.00346 18.9033 5.36758 18.4345 4.89874C17.9656 4.4299 17.3298 4.1665 16.6667 4.1665ZM17.5 13.3332C17.5 13.5542 17.4122 13.7661 17.256 13.9224C17.0997 14.0787 16.8877 14.1665 16.6667 14.1665H3.33337C3.11236 14.1665 2.9004 14.0787 2.74412 13.9224C2.58784 13.7661 2.50004 13.5542 2.50004 13.3332V6.6665C2.50004 6.44549 2.58784 6.23353 2.74412 6.07725C2.9004 5.92097 3.11236 5.83317 3.33337 5.83317H16.6667C16.8877 5.83317 17.0997 5.92097 17.256 6.07725C17.4122 6.23353 17.5 6.44549 17.5 6.6665V13.3332ZM10 7.49984C9.50559 7.49984 9.02224 7.64646 8.61112 7.92116C8.19999 8.19587 7.87956 8.58631 7.69034 9.04313C7.50112 9.49994 7.45161 10.0026 7.54808 10.4876C7.64454 10.9725 7.88264 11.418 8.23227 11.7676C8.5819 12.1172 9.02736 12.3553 9.51232 12.4518C9.99727 12.5483 10.4999 12.4988 10.9567 12.3095C11.4136 12.1203 11.804 11.7999 12.0787 11.3888C12.3534 10.9776 12.5 10.4943 12.5 9.99984C12.5 9.3368 12.2366 8.70091 11.7678 8.23207C11.299 7.76323 10.6631 7.49984 10 7.49984ZM10 10.8332C9.83522 10.8332 9.67411 10.7843 9.53707 10.6927C9.40002 10.6012 9.29321 10.471 9.23014 10.3187C9.16707 10.1665 9.15057 9.99891 9.18272 9.83726C9.21487 9.67561 9.29424 9.52713 9.41079 9.41058C9.52733 9.29404 9.67581 9.21467 9.83747 9.18252C9.99912 9.15036 10.1667 9.16686 10.3189 9.22994C10.4712 9.29301 10.6014 9.39982 10.6929 9.53686C10.7845 9.6739 10.8334 9.83502 10.8334 9.99984C10.8334 10.2209 10.7456 10.4328 10.5893 10.5891C10.433 10.7454 10.2211 10.8332 10 10.8332Z" fill="white"/>
</svg>
