<svg width="21" height="21" viewBox="0 0 21 21" fill="none" xmlns="http://www.w3.org/2000/svg">
<path d="M10.5 3.5C9.05825 3.5 7.875 4.68325 7.875 6.125V8.75H15.75C16.7165 8.75 17.5 9.5335 17.5 10.5V17.5C17.5 18.4665 16.7165 19.25 15.75 19.25H5.25C4.2835 19.25 3.5 18.4665 3.5 17.5V10.5C3.5 9.5335 4.2835 8.75 5.25 8.75H6.125V6.125C6.125 3.71675 8.09175 1.75 10.5 1.75C12.9082 1.75 14.875 3.71675 14.875 6.125C14.875 6.60825 14.4832 7 14 7C13.5168 7 13.125 6.60825 13.125 6.125C13.125 4.68325 11.9418 3.5 10.5 3.5ZM5.25 10.5V17.5H15.75V10.5H5.25Z" fill="white"/>
<path d="M10.5 3.5C9.05825 3.5 7.875 4.68325 7.875 6.125V8.75H15.75C16.7165 8.75 17.5 9.5335 17.5 10.5V17.5C17.5 18.4665 16.7165 19.25 15.75 19.25H5.25C4.2835 19.25 3.5 18.4665 3.5 17.5V10.5C3.5 9.5335 4.2835 8.75 5.25 8.75H6.125V6.125C6.125 3.71675 8.09175 1.75 10.5 1.75C12.9082 1.75 14.875 3.71675 14.875 6.125C14.875 6.60825 14.4832 7 14 7C13.5168 7 13.125 6.60825 13.125 6.125C13.125 4.68325 11.9418 3.5 10.5 3.5ZM5.25 10.5V17.5H15.75V10.5H5.25Z" fill="white"/>
</svg>
