<svg width="20" height="23" viewBox="0 0 20 23" fill="none" xmlns="http://www.w3.org/2000/svg">
<path d="M0.00390625 0V5.74718L15.1305 14.1504L0.00390625 22.9922H12.4673C16.4497 22.9922 19.6752 20.1629 19.6752 16.6721V11.4979L0.00390625 0Z" fill="url(#paint0_linear_5273_4525)"/>
<path d="M0 0L0.00390625 5.74718L15.1305 14.1504L0.00390625 22.9922H12.4673C16.4497 22.9922 19.6752 20.1629 19.6752 16.6721V11.4979L0 0Z" fill="#222222"/>
<path d="M0 0L19.6713 11.7254V6.54769C19.6713 3.05692 16.4788 0 12.5 0H0Z" fill="#222222"/>
<path d="M10.3524 11.4941L0.00390625 17.2413V22.9885L15.1305 14.1467L10.3524 11.4941Z" fill="#222222"/>
<defs>
<linearGradient id="paint0_linear_5273_4525" x1="4.83962" y1="5.17075" x2="11.6817" y2="21.6951" gradientUnits="userSpaceOnUse">
<stop stop-color="#0057FF"/>
<stop offset="1" stop-color="#00A3FF"/>
</linearGradient>
</defs>
</svg>
