<svg width="20" height="20" viewBox="0 0 20 20" fill="none" xmlns="http://www.w3.org/2000/svg">
<path d="M9.24 11.14C9.12647 11.0735 9.00091 11.03 8.87054 11.0121C8.74017 10.9942 8.60755 11.0022 8.48028 11.0356C8.353 11.0691 8.23358 11.1273 8.12886 11.207C8.02413 11.2867 7.93617 11.3862 7.87 11.5C7.792 11.6328 7.68437 11.7458 7.5555 11.8302C7.42664 11.9146 7.28002 11.9681 7.12708 11.9865C6.97414 12.0049 6.81903 11.9877 6.67383 11.9363C6.52863 11.8848 6.39727 11.8006 6.29 11.69C6.19651 11.6013 6.12245 11.4942 6.07253 11.3755C6.0226 11.2567 5.99791 11.1288 6 11V9C5.99888 8.77698 6.07234 8.55998 6.2087 8.38351C6.34507 8.20703 6.53652 8.0812 6.75261 8.02603C6.9687 7.97086 7.19703 7.98951 7.40131 8.07901C7.60559 8.16851 7.77408 8.32374 7.88 8.52C8.01694 8.74637 8.238 8.90926 8.49477 8.97298C8.75155 9.03671 9.02312 8.99608 9.25 8.86C9.36344 8.79218 9.46231 8.70255 9.54089 8.59629C9.61948 8.49003 9.67622 8.36924 9.70784 8.24091C9.73945 8.11259 9.74532 7.97927 9.72509 7.84866C9.70487 7.71805 9.65895 7.59275 9.59 7.48C9.46122 7.26537 9.30674 7.06725 9.13 6.89C8.85133 6.60834 8.51962 6.38468 8.15404 6.23192C7.78845 6.07917 7.39622 6.00034 7 6C6.20435 6 5.44129 6.31607 4.87868 6.87868C4.31607 7.44129 4 8.20435 4 9V11C4.00304 11.6578 4.22222 12.2964 4.6238 12.8175C5.02538 13.3385 5.5871 13.7132 6.22247 13.8836C6.85784 14.0541 7.53163 14.0111 8.14012 13.7611C8.74861 13.511 9.25805 13.0679 9.59 12.5C9.72207 12.2728 9.75939 12.0027 9.6939 11.7482C9.6284 11.4937 9.46534 11.2752 9.24 11.14ZM15.24 11.14C15.1265 11.0735 15.0009 11.03 14.8705 11.0121C14.7402 10.9942 14.6075 11.0022 14.4803 11.0356C14.353 11.0691 14.2336 11.1273 14.1289 11.207C14.0241 11.2867 13.9362 11.3862 13.87 11.5C13.792 11.6328 13.6844 11.7458 13.5555 11.8302C13.4266 11.9146 13.28 11.9681 13.1271 11.9865C12.9741 12.0049 12.819 11.9877 12.6738 11.9363C12.5286 11.8848 12.3973 11.8006 12.29 11.69C12.1965 11.6013 12.1224 11.4942 12.0725 11.3755C12.0226 11.2567 11.9979 11.1288 12 11V9C11.9989 8.77698 12.0723 8.55998 12.2087 8.38351C12.3451 8.20703 12.5365 8.0812 12.7526 8.02603C12.9687 7.97086 13.197 7.98951 13.4013 8.07901C13.6056 8.16851 13.7741 8.32374 13.88 8.52C14.0169 8.74637 14.238 8.90926 14.4948 8.97298C14.7516 9.03671 15.0231 8.99608 15.25 8.86C15.3634 8.79218 15.4623 8.70255 15.5409 8.59629C15.6195 8.49003 15.6762 8.36924 15.7078 8.24091C15.7395 8.11259 15.7453 7.97927 15.7251 7.84866C15.7049 7.71805 15.659 7.59275 15.59 7.48C15.4612 7.26537 15.3067 7.06725 15.13 6.89C14.8513 6.60834 14.5196 6.38468 14.154 6.23192C13.7884 6.07917 13.3962 6.00034 13 6C12.2044 6 11.4413 6.31607 10.8787 6.87868C10.3161 7.44129 10 8.20435 10 9V11C10.003 11.6578 10.2222 12.2964 10.6238 12.8175C11.0254 13.3385 11.5871 13.7132 12.2225 13.8836C12.8578 14.0541 13.5316 14.0111 14.1401 13.7611C14.7486 13.511 15.258 13.0679 15.59 12.5C15.7221 12.2728 15.7594 12.0027 15.6939 11.7482C15.6284 11.4937 15.4653 11.2752 15.24 11.14ZM10 0C8.02219 0 6.08879 0.58649 4.4443 1.6853C2.79981 2.78412 1.51809 4.3459 0.761209 6.17317C0.00433284 8.00043 -0.193701 10.0111 0.192152 11.9509C0.578004 13.8907 1.53041 15.6725 2.92894 17.0711C4.32746 18.4696 6.10929 19.422 8.0491 19.8079C9.98891 20.1937 11.9996 19.9957 13.8268 19.2388C15.6541 18.4819 17.2159 17.2002 18.3147 15.5557C19.4135 13.9112 20 11.9778 20 10C20 8.68678 19.7413 7.38642 19.2388 6.17317C18.7363 4.95991 17.9997 3.85752 17.0711 2.92893C16.1425 2.00035 15.0401 1.26375 13.8268 0.761205C12.6136 0.258658 11.3132 0 10 0ZM10 18C8.41775 18 6.87104 17.5308 5.55544 16.6518C4.23985 15.7727 3.21447 14.5233 2.60897 13.0615C2.00347 11.5997 1.84504 9.99113 2.15372 8.43928C2.4624 6.88743 3.22433 5.46197 4.34315 4.34315C5.46197 3.22433 6.88743 2.4624 8.43928 2.15372C9.99113 1.84504 11.5997 2.00346 13.0615 2.60896C14.5233 3.21447 15.7727 4.23984 16.6518 5.55544C17.5308 6.87103 18 8.41775 18 10C18 12.1217 17.1572 14.1566 15.6569 15.6569C14.1566 17.1571 12.1217 18 10 18Z" fill="#727272"/>
</svg>
