<?xml version="1.0" encoding="utf-8"?>
<!-- Generator: Adobe Illustrator 26.0.3, SVG Export Plug-In . SVG Version: 6.00 Build 0)  -->
<svg version="1.1" id="Layer_1" xmlns="http://www.w3.org/2000/svg" xmlns:xlink="http://www.w3.org/1999/xlink" x="0px" y="0px"
	 viewBox="0 0 18 18" style="enable-background:new 0 0 18 18;" xml:space="preserve">
<style type="text/css">
	.st0{fill:#F2F2F2;}
</style>
<path class="st0" d="M5.2,15v1.5h9V15H5.2z M1.5,4.9v7.9H3V4.9H1.5z M4.1,6v1.5h10.1V6H4.1z M13.7,7.3L13.3,6H4.1C3.5,6,3,5.5,3,4.9
	v2.4c0.3,0.2,0.7,0.3,1.1,0.3h10.1V7.1C14.1,7.2,13.9,7.3,13.7,7.3z M13.7,7.3L13.3,6H4.1C3.5,6,3,5.5,3,4.9v2.4
	c0.3,0.2,0.7,0.3,1.1,0.3h10.1V7.1C14.1,7.2,13.9,7.3,13.7,7.3z M15,12.8V12h-2.2c-0.4,0-0.6,0-0.7,0c0,0,0,0,0,0s0,0,0,0
	c0-0.1,0-0.3,0-0.7s0-0.6,0-0.7c0,0,0,0,0,0s0,0,0,0c0.1,0,0.3,0,0.7,0H15V9h-2.2c-0.3,0-0.7,0-0.9,0c-0.3,0-0.6,0.1-0.9,0.4
	s-0.4,0.6-0.4,0.9c0,0.3,0,0.6,0,0.9s0,0.7,0,0.9c0,0.3,0.1,0.6,0.4,0.9s0.6,0.4,0.9,0.4c0.3,0,0.6,0,0.9,0H15v0.8h1.5v-1.5H15z
	 M14.2,7.5V7.1c-0.2,0.1-0.3,0.2-0.5,0.2L13.3,6H4.1C3.5,6,3,5.5,3,4.9v2.4c0.3,0.2,0.7,0.3,1.1,0.3H14.2z M13.7,7.3L13.3,6H4.1
	C3.5,6,3,5.5,3,4.9v2.4c0.3,0.2,0.7,0.3,1.1,0.3h10.1V7.1C14.1,7.2,13.9,7.3,13.7,7.3z M15,8.2v1.5h1.5V8.2H15z M12.8,12v1.5h3V12
	H12.8z M15,9.8v3h1.5v-3H15z M12.8,9v1.5h3V9H12.8z M11.2,6v1.5h0.5V6H11.2z M13.3,6L13.3,6c-0.2,0-0.5,0-1.5,0v1.5H12
	c0.7,0,1.2,0,1.7-0.2L13.3,6z M14.2,5c-0.1,0.4-0.5,0.8-0.9,0.9C13,6,12.8,6,11.8,6h1.5l0.5,1.3c0.2-0.1,0.4-0.1,0.5-0.2
	c0.4-0.2,0.8-0.6,1.1-1c0.1-0.2,0.2-0.4,0.3-0.6L14.2,5z M12,12C12,12,12,12,12,12c0-0.1,0-0.4,0-0.7h-1.5c0,0.3,0,0.7,0,0.9
	c0,0.3,0.1,0.6,0.4,0.9L12,12L12,12C12,12,12,12,12,12z M12,12C12,12,12,12,12,12C12,12,12,12,12,12L12,12l-1.1,1.1
	c0.3,0.3,0.6,0.4,0.9,0.4c0.3,0,0.6,0,0.9,0V12C12.4,12,12.2,12,12,12z M12,10.5l-1.1-1.1c-0.3,0.3-0.4,0.6-0.4,0.9
	c0,0.3,0,0.6,0,0.9H12C12,10.9,12,10.7,12,10.5C12,10.5,12,10.5,12,10.5C12,10.5,12,10.5,12,10.5L12,10.5z M11.8,9
	c-0.3,0-0.6,0.1-0.9,0.4l1.1,1.1l0,0c0,0,0,0,0.1,0c0,0,0,0,0,0c0.1,0,0.3,0,0.7,0V9C12.4,9,12.1,9,11.8,9z M16.1,6.4
	c-0.2-0.2-0.5-0.3-0.8-0.4c0,0-0.1,0-0.1,0c-0.3,0-0.6,0-0.9,0v1.5c0.4,0,0.6,0,0.7,0c0,0,0,0,0,0c0,0,0,0,0.1,0l0,0L16.1,6.4z
	 M16.5,7.3c0-0.3-0.1-0.6-0.4-0.9L15,7.5l0,0c0,0,0,0,0,0.1c0,0,0,0,0,0c0,0.1,0,0.3,0,0.7h1.5C16.5,7.9,16.5,7.6,16.5,7.3z M15,15
	L15,15C15,15,15,15,15,15C15,15,15,15,15,15c-0.2,0-0.4,0-0.8,0v1.5c0.3,0,0.7,0,0.9,0c0.3,0,0.6-0.1,0.9-0.4L15,15z M15,14.2
	c0,0.4,0,0.6,0,0.7c0,0,0,0,0,0c0,0,0,0,0,0.1l0,0l1.1,1.1c0.3-0.3,0.4-0.6,0.4-0.9c0-0.3,0-0.6,0-0.9H15z M3.7,15
	c-0.3,0-0.4-0.1-0.5-0.2l-1.1,1.1c0.4,0.4,0.9,0.5,1.3,0.6c0.5,0.1,1.1,0.1,1.8,0.1V15C4.5,15,4,15,3.7,15z M3,14.3
	c0-0.3,0-0.8,0-1.5H1.5c0,0.7,0,1.3,0.1,1.8c0.1,0.5,0.2,1,0.6,1.3l1.1-1.1C3.2,14.7,3.1,14.6,3,14.3z M3,4.9H1.5c0,1,0.6,2,1.5,2.4
	c0.3,0.2,0.7,0.3,1.1,0.3V6C3.5,6,3,5.5,3,4.9z M1.5,4.9H3c0-0.6,0.5-1.1,1.1-1.1V2.2C2.7,2.2,1.5,3.4,1.5,4.9z"/>
<path class="st0" d="M15.8,3.5c0,0.8,0,1.4-0.2,2L14.2,5c0.1-0.2,0.1-0.5,0.1-1.2H4.1V2.2h10.3c0.1,0,0.3,0,0.5,0.1
	c0.3,0.1,0.6,0.4,0.7,0.7C15.8,3.2,15.8,3.5,15.8,3.5z"/>
</svg>
