<svg width="104" height="31" viewBox="0 0 104 31" fill="none" xmlns="http://www.w3.org/2000/svg">
    <rect x="1.09827" y="1.09827" width="101.803" height="28.8035" rx="14.4017" fill="white"/>
    <path d="M36.1479 12.6397C36.8095 12.6397 37.3876 12.7708 37.8824 13.0331C38.3771 13.2954 38.7585 13.6649 39.0268 14.1417C39.3009 14.6126 39.438 15.158 39.438 15.7779C39.438 16.3918 39.3009 16.9372 39.0268 17.414C38.7585 17.8908 38.3741 18.2604 37.8734 18.5226C37.3787 18.7849 36.8035 18.916 36.1479 18.916H33.7965V12.6397H36.1479ZM36.0495 17.5928C36.6277 17.5928 37.0777 17.4349 37.3996 17.119C37.7214 16.8031 37.8824 16.356 37.8824 15.7779C37.8824 15.1997 37.7214 14.7497 37.3996 14.4278C37.0777 14.106 36.6277 13.945 36.0495 13.945H35.3253V17.5928H36.0495ZM41.0613 13.4086C40.7931 13.4086 40.5725 13.3311 40.3997 13.1762C40.2328 13.0152 40.1494 12.8185 40.1494 12.5861C40.1494 12.3477 40.2328 12.151 40.3997 11.996C40.5725 11.8351 40.7931 11.7546 41.0613 11.7546C41.3236 11.7546 41.5381 11.8351 41.705 11.996C41.8779 12.151 41.9643 12.3477 41.9643 12.5861C41.9643 12.8185 41.8779 13.0152 41.705 13.1762C41.5381 13.3311 41.3236 13.4086 41.0613 13.4086ZM41.8212 13.9272V18.916H40.2924V13.9272H41.8212ZM44.9587 18.9875C44.5236 18.9875 44.1362 18.913 43.7964 18.764C43.4567 18.615 43.1885 18.4124 42.9918 18.1561C42.7951 17.8938 42.6848 17.6017 42.661 17.2799H44.1719C44.1898 17.4527 44.2703 17.5928 44.4133 17.7001C44.5564 17.8074 44.7322 17.861 44.9408 17.861C45.1315 17.861 45.2776 17.8253 45.3789 17.7537C45.4862 17.6763 45.5398 17.5779 45.5398 17.4587C45.5398 17.3156 45.4653 17.2113 45.3163 17.1458C45.1673 17.0743 44.9259 16.9968 44.5921 16.9133C44.2345 16.8299 43.9365 16.7435 43.6981 16.654C43.4597 16.5587 43.254 16.4126 43.0812 16.216C42.9083 16.0133 42.8219 15.7421 42.8219 15.4024C42.8219 15.1163 42.8994 14.857 43.0543 14.6245C43.2153 14.3861 43.4477 14.1984 43.7517 14.0613C44.0617 13.9242 44.4282 13.8556 44.8514 13.8556C45.4773 13.8556 45.969 14.0106 46.3266 14.3205C46.6902 14.6305 46.8988 15.0418 46.9524 15.5544H45.5398C45.516 15.3815 45.4385 15.2444 45.3074 15.1431C45.1822 15.0418 45.0153 14.9911 44.8067 14.9911C44.6279 14.9911 44.4908 15.0269 44.3954 15.0984C44.3001 15.1639 44.2524 15.2563 44.2524 15.3755C44.2524 15.5186 44.3269 15.6259 44.4759 15.6974C44.6309 15.7689 44.8693 15.8405 45.1912 15.912C45.5607 16.0073 45.8617 16.1027 46.0942 16.1981C46.3266 16.2875 46.5293 16.4365 46.7021 16.6451C46.8809 16.8478 46.9733 17.1219 46.9793 17.4676C46.9793 17.7597 46.8958 18.022 46.7289 18.2544C46.568 18.4809 46.3326 18.6597 46.0226 18.7908C45.7186 18.922 45.364 18.9875 44.9587 18.9875ZM47.6106 16.4216C47.6106 15.903 47.7149 15.45 47.9236 15.0626C48.1381 14.6752 48.4332 14.3772 48.8087 14.1686C49.1901 13.9599 49.6252 13.8556 50.114 13.8556C50.7398 13.8556 51.2614 14.0195 51.6786 14.3474C52.1018 14.6752 52.3789 15.1371 52.5101 15.7332H50.8829C50.7458 15.3517 50.4806 15.161 50.0872 15.161C49.807 15.161 49.5835 15.2712 49.4166 15.4918C49.2497 15.7063 49.1663 16.0163 49.1663 16.4216C49.1663 16.8269 49.2497 17.1398 49.4166 17.3604C49.5835 17.5749 49.807 17.6822 50.0872 17.6822C50.4806 17.6822 50.7458 17.4915 50.8829 17.11H52.5101C52.3789 17.6941 52.1018 18.1531 51.6786 18.4869C51.2554 18.8206 50.7339 18.9875 50.114 18.9875C49.6252 18.9875 49.1901 18.8832 48.8087 18.6746C48.4332 18.466 48.1381 18.168 47.9236 17.7806C47.7149 17.3931 47.6106 16.9401 47.6106 16.4216ZM55.5988 18.9875C55.11 18.9875 54.669 18.8832 54.2756 18.6746C53.8881 18.466 53.5812 18.168 53.3547 17.7806C53.1341 17.3931 53.0239 16.9401 53.0239 16.4216C53.0239 15.909 53.1371 15.459 53.3636 15.0716C53.5901 14.6782 53.9001 14.3772 54.2934 14.1686C54.6868 13.9599 55.1279 13.8556 55.6167 13.8556C56.1054 13.8556 56.5465 13.9599 56.9399 14.1686C57.3332 14.3772 57.6432 14.6782 57.8697 15.0716C58.0962 15.459 58.2094 15.909 58.2094 16.4216C58.2094 16.9342 58.0932 17.3872 57.8607 17.7806C57.6342 18.168 57.3213 18.466 56.922 18.6746C56.5286 18.8832 56.0875 18.9875 55.5988 18.9875ZM55.5988 17.6643C55.8908 17.6643 56.1382 17.557 56.3408 17.3425C56.5495 17.1279 56.6538 16.8209 56.6538 16.4216C56.6538 16.0222 56.5524 15.7153 56.3498 15.5007C56.1531 15.2861 55.9087 15.1788 55.6167 15.1788C55.3186 15.1788 55.0713 15.2861 54.8746 15.5007C54.6779 15.7093 54.5795 16.0163 54.5795 16.4216C54.5795 16.8209 54.6749 17.1279 54.8656 17.3425C55.0623 17.557 55.3067 17.6643 55.5988 17.6643ZM62.0603 13.8735C62.6444 13.8735 63.1093 14.0643 63.455 14.4457C63.8067 14.8212 63.9825 15.3398 63.9825 16.0014V18.916H62.4626V16.207C62.4626 15.8732 62.3762 15.614 62.2034 15.4292C62.0305 15.2444 61.7981 15.152 61.506 15.152C61.2139 15.152 60.9815 15.2444 60.8086 15.4292C60.6358 15.614 60.5493 15.8732 60.5493 16.207V18.916H59.0205V13.9272H60.5493V14.5888C60.7043 14.3682 60.9129 14.1954 61.1752 14.0702C61.4374 13.9391 61.7325 13.8735 62.0603 13.8735ZM68.0847 13.8735C68.6688 13.8735 69.1338 14.0643 69.4795 14.4457C69.8311 14.8212 70.007 15.3398 70.007 16.0014V18.916H68.4871V16.207C68.4871 15.8732 68.4006 15.614 68.2278 15.4292C68.0549 15.2444 67.8225 15.152 67.5304 15.152C67.2384 15.152 67.0059 15.2444 66.833 15.4292C66.6602 15.614 66.5738 15.8732 66.5738 16.207V18.916H65.0449V13.9272H66.5738V14.5888C66.7287 14.3682 66.9374 14.1954 67.1996 14.0702C67.4619 13.9391 67.7569 13.8735 68.0847 13.8735ZM75.7721 16.3411C75.7721 16.4842 75.7632 16.6332 75.7453 16.7882H72.2853C72.3091 17.0981 72.4075 17.3365 72.5803 17.5034C72.7591 17.6643 72.9767 17.7448 73.233 17.7448C73.6144 17.7448 73.8797 17.5839 74.0287 17.262H75.6559C75.5724 17.5898 75.4204 17.8849 75.1999 18.1471C74.9853 18.4094 74.7141 18.615 74.3863 18.764C74.0585 18.913 73.6919 18.9875 73.2866 18.9875C72.7979 18.9875 72.3628 18.8832 71.9813 18.6746C71.5998 18.466 71.3018 18.168 71.0872 17.7806C70.8727 17.3931 70.7654 16.9401 70.7654 16.4216C70.7654 15.903 70.8697 15.45 71.0783 15.0626C71.2929 14.6752 71.5909 14.3772 71.9724 14.1686C72.3538 13.9599 72.7919 13.8556 73.2866 13.8556C73.7694 13.8556 74.1986 13.957 74.5741 14.1596C74.9496 14.3623 75.2416 14.6514 75.4502 15.0269C75.6648 15.4024 75.7721 15.8405 75.7721 16.3411ZM74.2075 15.9388C74.2075 15.6765 74.1181 15.4679 73.9393 15.313C73.7605 15.158 73.537 15.0805 73.2687 15.0805C73.0124 15.0805 72.7949 15.155 72.6161 15.304C72.4432 15.453 72.3359 15.6646 72.2942 15.9388H74.2075ZM76.2747 16.4216C76.2747 15.903 76.379 15.45 76.5876 15.0626C76.8022 14.6752 77.0972 14.3772 77.4727 14.1686C77.8542 13.9599 78.2893 13.8556 78.778 13.8556C79.4039 13.8556 79.9254 14.0195 80.3426 14.3474C80.7658 14.6752 81.043 15.1371 81.1741 15.7332H79.5469C79.4098 15.3517 79.1446 15.161 78.7512 15.161C78.4711 15.161 78.2476 15.2712 78.0807 15.4918C77.9138 15.7063 77.8303 16.0163 77.8303 16.4216C77.8303 16.8269 77.9138 17.1398 78.0807 17.3604C78.2476 17.5749 78.4711 17.6822 78.7512 17.6822C79.1446 17.6822 79.4098 17.4915 79.5469 17.11H81.1741C81.043 17.6941 80.7658 18.1531 80.3426 18.4869C79.9194 18.8206 79.3979 18.9875 78.778 18.9875C78.2893 18.9875 77.8542 18.8832 77.4727 18.6746C77.0972 18.466 76.8022 18.168 76.5876 17.7806C76.379 17.3931 76.2747 16.9401 76.2747 16.4216ZM84.7724 17.6196V18.916H83.9946C83.4403 18.916 83.0081 18.7819 82.6982 18.5137C82.3883 18.2395 82.2333 17.7955 82.2333 17.1815V15.1967H81.6253V13.9272H82.2333V12.7112H83.7621V13.9272H84.7635V15.1967H83.7621V17.1994C83.7621 17.3484 83.7979 17.4557 83.8694 17.5213C83.9409 17.5868 84.0602 17.6196 84.227 17.6196H84.7724Z" fill="#060606"/>
    <path d="M3.27637 22.0501L3.40074 22.1744L3.64939 21.9258" stroke="white" stroke-width="0.0785862" stroke-linecap="round" stroke-linejoin="round"/>
    <path d="M3.27637 22.0501L3.40074 22.1744L3.64939 21.9258" stroke="white" stroke-width="0.0785862" stroke-linecap="round" stroke-linejoin="round"/>
    <path d="M21.7047 12.4708L22.1461 12.0238V14.5886C22.1461 14.7368 22.205 14.8789 22.3098 14.9837C22.4146 15.0885 22.5567 15.1474 22.7049 15.1474C22.8531 15.1474 22.9952 15.0885 23.1 14.9837C23.2048 14.8789 23.2637 14.7368 23.2637 14.5886V12.0238L23.7051 12.4708C23.7571 12.5232 23.8189 12.5647 23.887 12.5931C23.955 12.6215 24.0281 12.6361 24.1018 12.6361C24.1756 12.6361 24.2487 12.6215 24.3167 12.5931C24.3848 12.5647 24.4466 12.5232 24.4986 12.4708C24.551 12.4189 24.5925 12.3571 24.6209 12.289C24.6493 12.2209 24.6639 12.1478 24.6639 12.0741C24.6639 12.0003 24.6493 11.9273 24.6209 11.8592C24.5925 11.7911 24.551 11.7293 24.4986 11.6773L23.1016 10.2804C23.0485 10.2295 22.9858 10.1896 22.9172 10.163C22.7812 10.1071 22.6286 10.1071 22.4925 10.163C22.4239 10.1896 22.3613 10.2295 22.3081 10.2804L20.9112 11.6773C20.806 11.7825 20.7468 11.9253 20.7468 12.0741C20.7468 12.2229 20.806 12.3656 20.9112 12.4708C21.0164 12.576 21.1591 12.6351 21.3079 12.6351C21.4567 12.6351 21.5994 12.576 21.7047 12.4708ZM26.0576 13.2252C26.0048 13.1723 25.942 13.1304 25.873 13.1018C25.804 13.0732 25.73 13.0585 25.6553 13.0585C25.5806 13.0585 25.5066 13.0732 25.4375 13.1018C25.3685 13.1304 25.3058 13.1723 25.2529 13.2252C25.2001 13.278 25.1582 13.3407 25.1296 13.4098C25.101 13.4788 25.0863 13.5528 25.0863 13.6275C25.0863 13.7022 25.101 13.7762 25.1296 13.8452C25.1582 13.9143 25.2001 13.977 25.2529 14.0298C25.7571 14.5338 26.1005 15.176 26.2397 15.8752C26.3789 16.5744 26.3076 17.2991 26.0348 17.9578C25.7621 18.6164 25.3001 19.1794 24.7074 19.5755C24.1147 19.9716 23.4178 20.183 22.7049 20.183C21.992 20.183 21.2951 19.9716 20.7024 19.5755C20.1096 19.1794 19.6477 18.6164 19.3749 17.9578C19.1022 17.2991 19.0309 16.5744 19.1701 15.8752C19.3092 15.176 19.6526 14.5338 20.1568 14.0298C20.2096 13.977 20.2516 13.9143 20.2801 13.8452C20.3087 13.7762 20.3235 13.7022 20.3235 13.6275C20.3235 13.5528 20.3087 13.4788 20.2801 13.4098C20.2516 13.3407 20.2096 13.278 20.1568 13.2252C20.104 13.1723 20.0413 13.1304 19.9722 13.1018C19.9032 13.0732 19.8292 13.0585 19.7545 13.0585C19.6798 13.0585 19.6058 13.0732 19.5367 13.1018C19.4677 13.1304 19.405 13.1723 19.3522 13.2252C18.6939 13.8874 18.2464 14.7298 18.0663 15.646C17.8862 16.5623 17.9815 17.5113 18.3401 18.3735C18.6987 19.2356 19.3047 19.9723 20.0815 20.4905C20.8582 21.0087 21.7711 21.2852 22.7049 21.2852C23.6387 21.2852 24.5515 21.0087 25.3283 20.4905C26.1051 19.9723 26.711 19.2356 27.0697 18.3735C27.4283 17.5113 27.5236 16.5623 27.3434 15.646C27.1633 14.7298 26.7159 13.8874 26.0576 13.2252Z" fill="#060606"/>
    <rect x="1.09827" y="1.09827" width="101.803" height="28.8035" rx="14.4017" stroke="#060606" stroke-width="1.80345"/>
    </svg>
    