<svg width="98" height="24" viewBox="0 0 98 24" fill="none" xmlns="http://www.w3.org/2000/svg">
    <path d="M20.926 8.81V11.26H24.216V12.814H20.926V15.404H24.636V17H18.966V7.214H24.636V8.81H20.926ZM28.6992 10.854V14.606C28.6992 14.8673 28.7598 15.0587 28.8812 15.18C29.0118 15.292 29.2265 15.348 29.5252 15.348H30.4352V17H29.2032C27.5512 17 26.7252 16.1973 26.7252 14.592V10.854H25.8012V9.244H26.7252V7.326H28.6992V9.244H30.4352V10.854H28.6992ZM36.2129 9.132C36.8009 9.132 37.3236 9.26267 37.7809 9.524C38.2382 9.776 38.5929 10.154 38.8449 10.658C39.1062 11.1527 39.2369 11.75 39.2369 12.45V17H37.2769V12.716C37.2769 12.1 37.1229 11.6287 36.8149 11.302C36.5069 10.966 36.0869 10.798 35.5549 10.798C35.0136 10.798 34.5842 10.966 34.2669 11.302C33.9589 11.6287 33.8049 12.1 33.8049 12.716V17H31.8449V6.64H33.8049V10.21C34.0569 9.874 34.3929 9.61267 34.8129 9.426C35.2329 9.23 35.6996 9.132 36.2129 9.132ZM48.3108 12.954C48.3108 13.234 48.2921 13.486 48.2548 13.71H42.5848C42.6314 14.27 42.8274 14.7087 43.1728 15.026C43.5181 15.3433 43.9428 15.502 44.4468 15.502C45.1748 15.502 45.6928 15.1893 46.0008 14.564H48.1148C47.8908 15.3107 47.4614 15.9267 46.8268 16.412C46.1921 16.888 45.4128 17.126 44.4888 17.126C43.7421 17.126 43.0701 16.9627 42.4728 16.636C41.8848 16.3 41.4228 15.8287 41.0868 15.222C40.7601 14.6153 40.5968 13.9153 40.5968 13.122C40.5968 12.3193 40.7601 11.6147 41.0868 11.008C41.4134 10.4013 41.8708 9.93467 42.4588 9.608C43.0468 9.28133 43.7234 9.118 44.4888 9.118C45.2261 9.118 45.8841 9.27667 46.4628 9.594C47.0508 9.91133 47.5034 10.364 47.8208 10.952C48.1474 11.5307 48.3108 12.198 48.3108 12.954ZM46.2808 12.394C46.2714 11.89 46.0894 11.4887 45.7348 11.19C45.3801 10.882 44.9461 10.728 44.4328 10.728C43.9474 10.728 43.5368 10.8773 43.2008 11.176C42.8741 11.4653 42.6734 11.8713 42.5988 12.394H46.2808ZM51.7014 10.448C51.9534 10.0373 52.2801 9.71533 52.6814 9.482C53.0921 9.24867 53.5587 9.132 54.0814 9.132V11.19H53.5634C52.9474 11.19 52.4807 11.3347 52.1634 11.624C51.8554 11.9133 51.7014 12.4173 51.7014 13.136V17H49.7414V9.244H51.7014V10.448ZM62.6115 12.954C62.6115 13.234 62.5929 13.486 62.5555 13.71H56.8855C56.9322 14.27 57.1282 14.7087 57.4735 15.026C57.8189 15.3433 58.2435 15.502 58.7475 15.502C59.4755 15.502 59.9935 15.1893 60.3015 14.564H62.4155C62.1915 15.3107 61.7622 15.9267 61.1275 16.412C60.4929 16.888 59.7135 17.126 58.7895 17.126C58.0429 17.126 57.3709 16.9627 56.7735 16.636C56.1855 16.3 55.7235 15.8287 55.3875 15.222C55.0609 14.6153 54.8975 13.9153 54.8975 13.122C54.8975 12.3193 55.0609 11.6147 55.3875 11.008C55.7142 10.4013 56.1715 9.93467 56.7595 9.608C57.3475 9.28133 58.0242 9.118 58.7895 9.118C59.5269 9.118 60.1849 9.27667 60.7635 9.594C61.3515 9.91133 61.8042 10.364 62.1215 10.952C62.4482 11.5307 62.6115 12.198 62.6115 12.954ZM60.5815 12.394C60.5722 11.89 60.3902 11.4887 60.0355 11.19C59.6809 10.882 59.2469 10.728 58.7335 10.728C58.2482 10.728 57.8375 10.8773 57.5015 11.176C57.1749 11.4653 56.9742 11.8713 56.8995 12.394H60.5815ZM71.3642 9.244V17H69.3902V16.02C69.1382 16.356 68.8068 16.622 68.3962 16.818C67.9948 17.0047 67.5562 17.098 67.0802 17.098C66.4735 17.098 65.9368 16.972 65.4702 16.72C65.0035 16.4587 64.6348 16.0807 64.3642 15.586C64.1028 15.082 63.9722 14.4847 63.9722 13.794V9.244H65.9322V13.514C65.9322 14.13 66.0862 14.606 66.3942 14.942C66.7022 15.2687 67.1222 15.432 67.6542 15.432C68.1955 15.432 68.6202 15.2687 68.9282 14.942C69.2362 14.606 69.3902 14.13 69.3902 13.514V9.244H71.3642ZM82.93 9.132C83.882 9.132 84.6474 9.426 85.226 10.014C85.814 10.5927 86.108 11.4047 86.108 12.45V17H84.148V12.716C84.148 12.1093 83.994 11.6473 83.686 11.33C83.378 11.0033 82.958 10.84 82.426 10.84C81.894 10.84 81.4694 11.0033 81.152 11.33C80.844 11.6473 80.69 12.1093 80.69 12.716V17H78.73V12.716C78.73 12.1093 78.576 11.6473 78.268 11.33C77.96 11.0033 77.54 10.84 77.008 10.84C76.4667 10.84 76.0374 11.0033 75.72 11.33C75.412 11.6473 75.258 12.1093 75.258 12.716V17H73.298V9.244H75.258V10.182C75.51 9.85533 75.832 9.59867 76.224 9.412C76.6254 9.22533 77.064 9.132 77.54 9.132C78.1467 9.132 78.688 9.26267 79.164 9.524C79.64 9.776 80.0087 10.14 80.27 10.616C80.522 10.168 80.886 9.80867 81.362 9.538C81.8474 9.26733 82.37 9.132 82.93 9.132Z" fill="#2D2D2D"/>
    <path d="M2.33398 12.9336L8.06464 16.3161V21L2.33398 12.9336Z" fill="#909090"/>
    <path d="M2.33398 11.8406L8.06464 9.23272V2.33301L2.33398 11.8406Z" fill="#909090"/>
    <path d="M2.33398 11.8403L8.06464 9.23242V15.2276L2.33398 11.8403Z" fill="#484848"/>
    <path d="M13.7951 12.9336L8.06445 16.3161V21L13.7951 12.9336Z" fill="#404040"/>
    <path d="M13.7951 11.8406L8.06445 9.23272V2.33301L13.7951 11.8406Z" fill="#404040"/>
    <path d="M13.7951 11.8403L8.06445 9.23242V15.2276L13.7951 11.8403Z" fill="#101010"/>
    </svg>
    