<svg width="26" height="22" viewBox="0 0 26 22" fill="none" xmlns="http://www.w3.org/2000/svg">
    <g clip-path="url(#clip0_6498_2498)">
    <path d="M23.2127 0.00195312H25.9437L14.8703 12.6466C14.5897 12.9645 14.571 13.4509 14.8516 13.7876L21.23 21.2135H18.3868L12.4947 14.33L12.1955 13.9559C11.9149 13.6379 11.9336 13.1329 12.2142 12.8149L23.2127 0.00195312Z" fill="#17B5CB"/>
    <path d="M17.0584 13.7874C16.8713 13.5817 16.8152 13.2824 16.8713 13.0205C16.9275 12.8709 17.021 12.7212 17.1332 12.609L17.8627 11.8047L25.9994 21.2133H23.4181C23.4181 21.2133 18.6483 15.6392 17.0584 13.7874Z" fill="#17B5CB"/>
    <path d="M2.84317 21.2135H0L8.71655 11.1314C8.99712 10.8135 8.99712 10.3271 8.71655 10.0091L0.0748202 0.00195312H2.80576L11.5036 10.084C11.7281 10.3832 11.7655 10.8135 11.5223 11.094C9.24029 13.7314 2.84317 21.2135 2.84317 21.2135Z" fill="#17B5CB"/>
    <path d="M7.59331 0.00195312H4.97461L13.0365 9.33577C13.0365 9.33577 13.0552 9.31706 13.953 8.25087C14.1962 7.9703 14.2523 7.6149 13.9717 7.33433C12.2883 5.61346 7.59331 0.00195312 7.59331 0.00195312Z" fill="#17B5CB"/>
    <path d="M15.4503 6.51131L21.0431 0.00195312H18.387L15.469 3.40627L14.6272 4.39764C14.3467 4.71562 14.328 5.20195 14.6085 5.53864C14.8143 5.78181 15.4503 6.51131 15.4503 6.51131Z" fill="#17B5CB"/>
    <path d="M10.5869 14.7031L4.99414 21.2125H7.63155L10.5495 17.8082L11.3913 16.8168C11.6718 16.4988 11.6905 16.0125 11.41 15.6758C11.2042 15.4326 10.5869 14.7031 10.5869 14.7031Z" fill="#17B5CB"/>
    </g>
    <defs>
    <clipPath id="clip0_6498_2498">
    <rect width="26" height="21.1367" fill="white"/>
    </clipPath>
    </defs>
    </svg>
    