<svg width="19" height="19" viewBox="0 0 19 19" fill="none" xmlns="http://www.w3.org/2000/svg">
    <path d="M15.376 5.58745C15.9285 5.58745 16.4687 5.4236 16.9281 5.11662C17.3875 4.80964 17.7456 4.37332 17.957 3.86284C18.1685 3.35235 18.2238 2.79063 18.116 2.2487C18.0082 1.70677 17.7421 1.20897 17.3514 0.818264C16.9607 0.427555 16.4629 0.161478 15.921 0.0536819C15.3791 -0.0541146 14.8173 0.00121047 14.3069 0.212661C13.7964 0.424111 13.3601 0.78219 13.0531 1.24161C12.7461 1.70104 12.5822 2.24118 12.5822 2.79372C12.5822 3.16061 12.6545 3.5239 12.7949 3.86286C12.9352 4.20182 13.141 4.50981 13.4005 4.76924C13.6599 5.02866 13.9679 5.23444 14.3068 5.37483C14.6458 5.51522 15.0091 5.58747 15.376 5.58745ZM6.80971 18.1697C5.46288 18.1697 4.14629 17.7703 3.02644 17.022C1.90659 16.2738 1.03377 15.2102 0.51836 13.9659C0.00294978 12.7216 -0.131905 11.3524 0.130851 10.0314C0.393606 8.71049 1.04217 7.49712 1.99453 6.54477C2.94688 5.59241 4.16026 4.94385 5.48121 4.6811C6.80217 4.41835 8.17137 4.55321 9.41568 5.06862C10.66 5.58404 11.7235 6.45685 12.4718 7.57671C13.22 8.69656 13.6194 10.0132 13.6194 11.36C13.6194 12.2543 13.4433 13.1398 13.1011 13.966C12.7589 14.7922 12.2573 15.5429 11.625 16.1752C10.9926 16.8076 10.2419 17.3092 9.4157 17.6514C8.5895 17.9936 7.70398 18.1697 6.80971 18.1697Z" fill="black"/>
    </svg>
    