<svg width="91" height="18" viewBox="0 0 91 18" fill="none" xmlns="http://www.w3.org/2000/svg">
    <path d="M83.4382 13.7701L79.2382 4.12243H82.0505L84.9189 11.0416L88.234 4.12243H90.9999L84.4624 17.4112H81.6502L83.4382 13.7701ZM73.2112 11.7726C73.4594 11.7161 73.6989 11.6268 73.9236 11.5072C74.1407 11.3916 74.3425 11.2492 74.5242 11.0835C74.7057 10.9173 74.8625 10.726 74.9899 10.5154C75.1233 10.2942 75.2267 10.0562 75.2972 9.80765C75.3735 9.53649 75.4111 9.25589 75.4089 8.97419C75.4115 8.68941 75.3739 8.40568 75.2972 8.13141C75.2266 7.8829 75.1233 7.64489 74.9899 7.42367C74.8617 7.21225 74.7051 7.01952 74.5242 6.85096C74.3447 6.68373 74.1425 6.54265 73.9236 6.4319C73.6973 6.31805 73.4581 6.23206 73.2112 6.17582C72.9516 6.1163 72.686 6.08662 72.4196 6.08735C72.1548 6.08644 71.8907 6.11613 71.6327 6.17582C71.3888 6.23209 71.1526 6.31809 70.9296 6.4319C70.7116 6.54414 70.5096 6.68508 70.329 6.85096C70.1458 7.01859 69.9875 7.21143 69.8587 7.42367C69.7255 7.64442 69.6236 7.88261 69.556 8.13141C69.4825 8.40622 69.4464 8.68972 69.449 8.97419C69.4468 9.25558 69.4828 9.53595 69.556 9.80765C69.6236 10.0565 69.7255 10.2947 69.8587 10.5154C69.9867 10.7268 70.1452 10.9182 70.329 11.0835C70.5118 11.2479 70.7134 11.3901 70.9296 11.5072C71.151 11.6268 71.3875 11.716 71.6327 11.7726C71.8907 11.8324 72.1548 11.8621 72.4196 11.861C72.686 11.8619 72.9516 11.8322 73.2112 11.7726ZM70.3755 13.9331C69.9444 13.8233 69.5295 13.6574 69.1416 13.4395C68.3861 13.0146 67.7626 12.3895 67.3397 11.6329C67.1218 11.2417 66.9559 10.8238 66.8461 10.3897C66.6164 9.45688 66.6164 8.48225 66.8461 7.54942C66.9553 7.11662 67.1213 6.70017 67.3397 6.31087C67.7645 5.55697 68.3877 4.93379 69.1416 4.50892C69.5295 4.29106 69.9444 4.12512 70.3755 4.01536C70.8366 3.89842 71.3107 3.84053 71.7864 3.84308C72.0432 3.8425 72.2997 3.85805 72.5546 3.88964C72.789 3.91866 73.021 3.96535 73.2484 4.02933C73.4592 4.08915 73.666 4.16225 73.8676 4.24817C74.0564 4.32846 74.2385 4.42343 74.4124 4.5322C74.576 4.63459 74.7289 4.75314 74.8687 4.88607C74.9996 5.01029 75.121 5.14414 75.2319 5.2865V4.12243H77.9046V13.826H75.2319V12.6619C75.061 12.8763 74.8657 13.0701 74.6499 13.2393C74.4113 13.4266 74.1501 13.583 73.8723 13.7049C73.5634 13.8406 73.24 13.9406 72.9085 14.0029C72.5386 14.0729 72.1628 14.1072 71.7863 14.1053C71.3107 14.1079 70.8366 14.05 70.3755 13.9331ZM60.6727 6.58091C61.0555 6.58793 61.4375 6.54408 61.8088 6.45054C62.0982 6.37744 62.3683 6.2424 62.6004 6.05476C62.8099 5.88001 62.9704 5.65376 63.066 5.39823C63.1702 5.10871 63.2207 4.80259 63.215 4.49493C63.221 4.18877 63.1705 3.88413 63.066 3.59628C62.9701 3.34352 62.8095 3.12035 62.6004 2.94907C62.3671 2.76422 62.0973 2.63091 61.8088 2.55795C61.4375 2.46451 61.0555 2.42067 60.6727 2.42757H58.0466V6.58091L60.6727 6.58091ZM55.2808 0.136719H60.9334C61.8213 0.136719 62.5911 0.245364 63.2429 0.462656C63.8947 0.679948 64.4318 0.981049 64.854 1.36596C65.2739 1.74761 65.5978 2.22303 65.7992 2.75351C66.0106 3.31275 66.1164 3.90639 66.1112 4.50424C66.1178 5.1007 66.012 5.69307 65.7992 6.25032C65.5945 6.77639 65.271 7.24807 64.854 7.62856C64.4318 8.01667 63.8948 8.31932 63.2429 8.53651C62.5911 8.75396 61.8212 8.86261 60.9334 8.86245H58.0466V13.826H55.2808V0.136719ZM43.4043 4.12243H46.0584V5.28648C46.2222 5.06055 46.4165 4.85841 46.6357 4.68583C46.8678 4.50376 47.1211 4.35053 47.3901 4.22953C47.6864 4.097 47.9975 4.00009 48.3166 3.94084C48.6713 3.87416 49.0314 3.84142 49.3922 3.84306C49.9541 3.83502 50.5127 3.92969 51.0405 4.12243C51.5108 4.29567 51.9369 4.57075 52.2884 4.92796C52.6415 5.29815 52.9087 5.74172 53.0706 6.22704C53.2575 6.78509 53.3488 7.37069 53.3407 7.95915V13.826H50.6866V8.64826C50.693 8.26976 50.6396 7.89262 50.5283 7.53078C50.4363 7.23204 50.2824 6.956 50.0767 6.7206C49.879 6.50192 49.6314 6.33421 49.355 6.23169C49.0417 6.11837 48.7103 6.06314 48.3772 6.06873C48.0425 6.06343 47.7097 6.11864 47.3947 6.23169C47.1165 6.33334 46.8672 6.50113 46.6683 6.7206C46.4626 6.956 46.3088 7.23203 46.2167 7.53078C46.1054 7.89262 46.052 8.26976 46.0584 8.64826V13.826H43.4043V4.12243ZM36.8733 11.7446C37.1267 11.6834 37.372 11.5928 37.6044 11.4746C37.8254 11.3616 38.0279 11.2155 38.205 11.0415C38.3804 10.8698 38.5322 10.6757 38.6567 10.4642C38.7835 10.2463 38.8777 10.011 38.936 9.76573C38.9994 9.50037 39.0306 9.22836 39.0292 8.95555C39.0308 8.68427 38.9995 8.41378 38.936 8.15003C38.8186 7.66391 38.565 7.22135 38.205 6.87423C38.0256 6.70174 37.8235 6.55449 37.6044 6.43654C37.374 6.31293 37.1281 6.22055 36.8733 6.16183C36.5969 6.09836 36.3141 6.06711 36.0306 6.06871C35.7501 6.06744 35.4704 6.09869 35.1971 6.16183C34.9436 6.22 34.6993 6.31242 34.4707 6.43654C34.2535 6.5553 34.0531 6.70249 33.8747 6.87423C33.6991 7.04334 33.55 7.23798 33.4324 7.4516C33.3123 7.67105 33.2185 7.90393 33.153 8.1454C33.0827 8.40964 33.0482 8.68214 33.0506 8.95557C33.049 9.22896 33.0834 9.50137 33.153 9.76576C33.2167 10.0093 33.3106 10.2439 33.4324 10.4642C33.5514 10.6768 33.7004 10.8713 33.8747 11.0416C34.0507 11.2148 34.2516 11.3608 34.4707 11.4746C34.7012 11.5933 34.9451 11.684 35.1971 11.7447C35.4699 11.8109 35.7498 11.8438 36.0306 11.8424C36.3144 11.8441 36.5974 11.8113 36.8733 11.7447V11.7446ZM34.4661 13.9284C33.9872 13.817 33.5231 13.6497 33.0832 13.4302C32.6694 13.2239 32.2856 12.9623 31.9424 12.6526C31.6098 12.3517 31.3213 12.0052 31.0857 11.6236C30.8467 11.2351 30.6634 10.8151 30.5409 10.3757C30.2863 9.44607 30.2863 8.46509 30.5409 7.53544C30.6628 7.09739 30.8463 6.67883 31.0857 6.29223C31.323 5.91181 31.6113 5.56561 31.9424 5.26323C32.2847 4.95105 32.6686 4.68779 33.0832 4.48098C33.5231 4.26152 33.9872 4.09431 34.4661 3.98277C35.502 3.74685 36.5777 3.74685 37.6137 3.98277C38.0898 4.09331 38.5509 4.26058 38.9872 4.48098C39.4 4.69087 39.7835 4.95385 40.128 5.26323C40.4642 5.56451 40.7572 5.91078 40.9987 6.29223C41.2408 6.67801 41.4258 7.09674 41.5481 7.53544C41.8027 8.46509 41.8027 9.44607 41.5481 10.3757C41.4253 10.8157 41.2403 11.2359 40.9987 11.6236C40.7589 12.0063 40.4657 12.3528 40.128 12.6526C39.7826 12.9595 39.3992 13.2208 38.9872 13.4302C38.5524 13.6502 38.0928 13.8175 37.6183 13.9284C36.5808 14.1643 35.5036 14.1643 34.4661 13.9284ZM24.1096 11.7446C24.363 11.6834 24.6083 11.5928 24.8406 11.4746C25.0617 11.3616 25.2642 11.2155 25.4413 11.0415C25.6166 10.8698 25.7685 10.6757 25.8929 10.4642C26.0199 10.2464 26.114 10.011 26.1723 9.76573C26.2356 9.50037 26.2669 9.22836 26.2654 8.95555C26.2671 8.68427 26.2358 8.41378 26.1723 8.15003C26.0549 7.66391 25.8013 7.22134 25.4413 6.87423C25.2619 6.70174 25.0598 6.55449 24.8406 6.43654C24.6102 6.31291 24.3644 6.22053 24.1096 6.16183C23.8332 6.09836 23.5504 6.06712 23.2668 6.06871C22.9863 6.06745 22.7067 6.0987 22.4334 6.16183C22.1799 6.22 21.9355 6.31242 21.707 6.43654C21.4898 6.55533 21.2894 6.70252 21.111 6.87423C20.9354 7.04334 20.7862 7.23798 20.6687 7.4516C20.5486 7.67109 20.4549 7.90395 20.3893 8.14537C20.3189 8.40961 20.2845 8.68212 20.2869 8.95555C20.2853 9.22894 20.3197 9.50134 20.3893 9.76573C20.4531 10.0092 20.547 10.2438 20.6687 10.4642C20.7877 10.6768 20.9367 10.8712 21.111 11.0415C21.287 11.2147 21.4879 11.3607 21.707 11.4746C21.9375 11.5933 22.1813 11.684 22.4334 11.7446C22.7062 11.8109 22.9861 11.8437 23.2668 11.8424C23.5507 11.8441 23.8337 11.8112 24.1096 11.7446ZM21.7023 13.9284C21.2235 13.817 20.7594 13.6498 20.3195 13.4302C19.9057 13.2239 19.5219 12.9623 19.1787 12.6526C18.8461 12.3517 18.5577 12.0053 18.3219 11.6236C18.083 11.2351 17.8997 10.8151 17.7772 10.3758C17.5226 9.44612 17.5226 8.46514 17.7772 7.53549C17.8991 7.09744 18.0826 6.67888 18.3219 6.29228C18.5593 5.91188 18.8476 5.56568 19.1787 5.26328C19.521 4.95112 19.9049 4.68787 20.3195 4.48103C20.7594 4.26157 21.2235 4.09436 21.7023 3.98282C22.7383 3.7469 23.814 3.7469 24.8499 3.98282C25.3261 4.09334 25.7872 4.26061 26.2235 4.48103C26.6363 4.69088 27.0198 4.95387 27.3643 5.26328C27.7006 5.56452 27.9936 5.9108 28.235 6.29228C28.4771 6.67803 28.6622 7.09677 28.7844 7.53549C29.039 8.46514 29.039 9.44612 28.7844 10.3758C28.6617 10.8158 28.4766 11.236 28.235 11.6236C27.9953 12.0064 27.7021 12.3529 27.3643 12.6526C27.0189 12.9596 26.6355 13.2209 26.2235 13.4302C25.7887 13.6502 25.3291 13.8175 24.8546 13.9284C23.8171 14.1643 22.7399 14.1643 21.7023 13.9284ZM0.754883 0.136719H3.54861L8.32587 7.43764L13.1218 0.136719H15.9155V13.826H13.1497V4.43905L9.18262 10.4921H7.48776L3.52067 4.43905V13.826H0.754883V0.136719Z" fill="black"/>
    </svg>
    