<svg width="29" height="29" viewBox="0 0 29 29" fill="none" xmlns="http://www.w3.org/2000/svg">
    <path d="M17.9191 13.6409L12.7957 8.51758C12.6834 8.40432 12.5498 8.31443 12.4025 8.25309C12.2553 8.19174 12.0973 8.16016 11.9378 8.16016C11.7783 8.16016 11.6204 8.19174 11.4731 8.25309C11.3259 8.31443 11.1922 8.40432 11.0799 8.51758C10.8548 8.74398 10.7285 9.05023 10.7285 9.36945C10.7285 9.68868 10.8548 9.99493 11.0799 10.2213L15.3574 14.4988L11.0799 18.7763C10.8548 19.0027 10.7285 19.309 10.7285 19.6282C10.7285 19.9474 10.8548 20.2537 11.0799 20.4801C11.1928 20.5921 11.3267 20.6807 11.4739 20.7408C11.6211 20.8009 11.7788 20.8314 11.9378 20.8305C12.0968 20.8314 12.2545 20.8009 12.4017 20.7408C12.5489 20.6807 12.6828 20.5921 12.7957 20.4801L17.9191 15.3567C18.0323 15.2444 18.1222 15.1108 18.1835 14.9635C18.2449 14.8163 18.2765 14.6583 18.2765 14.4988C18.2765 14.3393 18.2449 14.1814 18.1835 14.0341C18.1222 13.8869 18.0323 13.7532 17.9191 13.6409Z" fill="#545454"/>
    </svg>
    