<svg width="12.5" height="12.5" viewBox="0 0 10 10" fill="none" xmlns="http://www.w3.org/2000/svg">
    <path d="M9.5 5.5L10 5.5V5.5L9.5 5.5ZM8.91583 2.49542L9.38777 2.66056L8.91583 2.49542ZM6.64645 7.35355L7 7L6.64645 7.35355ZM6.64645 5.64645L7 6L6.64645 5.64645ZM9.35355 3.64645L9 4L9.35355 3.64645ZM9.35355 9.35355L9.70711 9.70711L9.35355 9.35355ZM2.5 9.5L2.5 10L2.5 9.5ZM0.792896 9.20711L1.14645 8.85355L0.792896 9.20711ZM8.83257 1.01403L8.66743 1.48597L8.83257 1.01403ZM8.98597 1.16743L9.45791 1.00229L8.98597 1.16743ZM1.75 1.5L8.64286 1.5V0.499999L1.75 0.499999L1.75 1.5ZM2.5 10L8.5 10L8.5 9L2.5 9L2.5 10ZM2.68221e-06 2.25L2.68221e-06 7.5H1L1 2.25H2.68221e-06ZM8.5 3L1.75 3V4L8.5 4V3ZM9 7.5L9 8.5L10 8.5L10 7.5L9 7.5ZM9 4.5L9 5.5L10 5.5L10 4.5L9 4.5ZM7.5 8H9.5V7H7.5V8ZM9 5.5L9 7.5L10 7.5L10 5.5L9 5.5ZM9.5 5H7.5V6H9.5V5ZM6.85714 3L6.5 3V4L6.85714 4V3ZM8.5 1.35714C8.5 1.99747 8.49293 2.19012 8.44388 2.33028L9.38777 2.66056C9.50707 2.3196 9.5 1.91377 9.5 1.35714H8.5ZM6.85714 4C7.41378 4 7.8196 4.00707 8.16056 3.88777L7.83028 2.94388C7.69012 2.99293 7.49747 3 6.85714 3V4ZM8.44388 2.33028C8.34337 2.61753 8.11753 2.84337 7.83028 2.94388L8.16056 3.88777C8.73505 3.68674 9.18674 3.23505 9.38777 2.66056L8.44388 2.33028ZM6 6.5C6 6.72157 5.99894 6.93804 6.02276 7.11526C6.04852 7.30686 6.11129 7.5255 6.29289 7.70711L7 7C7.03516 7.03516 7.0247 7.06272 7.01385 6.98201C7.00106 6.88692 7 6.74984 7 6.5H6ZM7.5 7C7.25016 7 7.11308 6.99894 7.01799 6.98615C6.93727 6.9753 6.96484 6.96484 7 7L6.29289 7.70711C6.4745 7.88871 6.69314 7.95148 6.88474 7.97724C7.06196 8.00106 7.27843 8 7.5 8V7ZM7 6.5C7 6.25016 7.00106 6.11308 7.01385 6.01799C7.0247 5.93727 7.03516 5.96484 7 6L6.29289 5.29289C6.11129 5.4745 6.04852 5.69314 6.02276 5.88474C5.99894 6.06196 6 6.27843 6 6.5H7ZM7.5 5C7.27843 5 7.06196 4.99894 6.88474 5.02276C6.69314 5.04852 6.4745 5.11128 6.29289 5.29289L7 6C6.96484 6.03516 6.93727 6.0247 7.01799 6.01385C7.11308 6.00106 7.25016 6 7.5 6V5ZM8.5 4C8.74984 4 8.88692 4.00106 8.98201 4.01385C9.06272 4.0247 9.03516 4.03516 9 4L9.70711 3.29289C9.5255 3.11128 9.30686 3.04852 9.11526 3.02276C8.93804 2.99894 8.72157 3 8.5 3V4ZM10 4.5C10 4.27843 10.0011 4.06196 9.97724 3.88474C9.95148 3.69314 9.88871 3.4745 9.70711 3.29289L9 4C8.96484 3.96484 8.9753 3.93727 8.98615 4.01799C8.99894 4.11308 9 4.25016 9 4.5L10 4.5ZM8.5 10C8.72157 10 8.93804 10.0011 9.11526 9.97724C9.30686 9.95148 9.5255 9.88871 9.70711 9.70711L9 9C9.03516 8.96484 9.06272 8.9753 8.98201 8.98615C8.88692 8.99894 8.74984 9 8.5 9L8.5 10ZM9 8.5C9 8.74984 8.99894 8.88692 8.98615 8.98201C8.9753 9.06272 8.96484 9.03516 9 9L9.70711 9.70711C9.88871 9.5255 9.95148 9.30686 9.97724 9.11526C10.0011 8.93804 10 8.72157 10 8.5L9 8.5ZM2.5 9C2.01446 9 1.70061 8.99894 1.46935 8.96785C1.25249 8.93869 1.18451 8.89162 1.14645 8.85355L0.439343 9.56066C0.694174 9.81549 1.00835 9.91486 1.33611 9.95893C1.64948 10.0011 2.04273 10 2.5 10L2.5 9ZM2.68221e-06 7.5C2.68221e-06 7.95727 -0.00105918 8.35052 0.0410729 8.6639C0.0851389 8.99165 0.184511 9.30583 0.439343 9.56066L1.14645 8.85355C1.10839 8.81549 1.06131 8.74752 1.03216 8.53065C1.00106 8.29939 1 7.98554 1 7.5H2.68221e-06ZM2.68221e-06 2.25C2.68221e-06 3.2165 0.783504 4 1.75 4V3C1.33579 3 1 2.66421 1 2.25H2.68221e-06ZM8.64286 1.5C8.66862 1.5 8.68736 1.50001 8.70327 1.50019C8.71917 1.50037 8.72716 1.50068 8.73086 1.5009C8.73441 1.50111 8.72891 1.50095 8.71808 1.49915C8.70629 1.4972 8.68857 1.49337 8.66743 1.48597L8.99771 0.542086C8.85722 0.492926 8.70076 0.499999 8.64286 0.499999V1.5ZM9.5 1.35714C9.5 1.29924 9.50707 1.14278 9.45791 1.00229L8.51403 1.33257C8.50663 1.31143 8.5028 1.29371 8.50085 1.28192C8.49904 1.27109 8.49889 1.26559 8.4991 1.26914C8.49932 1.27284 8.49963 1.28083 8.49981 1.29673C8.49999 1.31264 8.5 1.33138 8.5 1.35714H9.5ZM8.66743 1.48597C8.59562 1.46084 8.53916 1.40438 8.51403 1.33257L9.45791 1.00229C9.38253 0.786854 9.21314 0.61747 8.99771 0.542086L8.66743 1.48597ZM1 2.25C1 1.83579 1.33579 1.5 1.75 1.5L1.75 0.499999C0.783504 0.499999 2.68221e-06 1.2835 2.68221e-06 2.25H1Z" fill="#4A4A4A"/>
    </svg>
    